<?xml version="1.0" encoding="UTF-8" standalone="no"?>
<svg
   xmlns:dc="http://purl.org/dc/elements/1.1/"
   xmlns:cc="http://creativecommons.org/ns#"
   xmlns:rdf="http://www.w3.org/1999/02/22-rdf-syntax-ns#"
   xmlns:svg="http://www.w3.org/2000/svg"
   xmlns="http://www.w3.org/2000/svg"
   viewBox="0 0 257.33334 257.33334"
   height="257.33334"
   width="257.33334"
   xml:space="preserve"
   id="svg2"
   version="1.1"><metadata
     id="metadata8"><rdf:RDF><cc:Work
         rdf:about=""><dc:format>image/svg+xml</dc:format><dc:type
           rdf:resource="http://purl.org/dc/dcmitype/StillImage" /></cc:Work></rdf:RDF></metadata><defs
     id="defs6" /><g
     transform="matrix(1.3333333,0,0,-1.3333333,0,257.33333)"
     id="g10"><g
       transform="scale(0.1)"
       id="g12"><path
         id="path14"
         style="fill:#ffffff;fill-opacity:1;fill-rule:evenodd;stroke:none"
         d="M 9.99609,1930 H 1930 V 9.99609 H 9.99609 V 1930" /><path
         id="path16"
         style="fill:#005399;fill-opacity:1;fill-rule:evenodd;stroke:none"
         d="M 465.379,1690 H 1474.62 V 920.164 C 1474.62,542.121 1178.33,352.574 970,250 761.664,352.574 465.379,542.121 465.379,920.164 V 1690" /><path
         id="path18"
         style="fill:none;stroke:#005399;stroke-width:5.66930008;stroke-linecap:butt;stroke-linejoin:miter;stroke-miterlimit:22.92560005;stroke-dasharray:none;stroke-opacity:1"
         d="M 465.379,1690 H 1474.62 V 920.164 C 1474.62,542.121 1178.33,352.574 970,250 761.664,352.574 465.379,542.121 465.379,920.164 Z" /><path
         id="path20"
         style="fill:#ffffff;fill-opacity:1;fill-rule:evenodd;stroke:none"
         d="M 491.727,1663.65 V 920.164 c 0,-162.437 56.8,-302.012 167.113,-420.426 C 746.082,406.094 856.16,336.426 970,279.41 c 113.84,57.016 223.91,126.684 311.16,220.328 110.31,118.414 167.11,257.989 167.11,420.426 V 1663.65 H 491.727" /><path
         id="path22"
         style="fill:#005399;fill-opacity:1;fill-rule:evenodd;stroke:none"
         d="M 622.074,1399.79 970,758.695 1317.92,1399.79 Z" /><path
         id="path24"
         style="fill:#ffffff;fill-opacity:1;fill-rule:evenodd;stroke:none"
         d="M 645.766,1378.46 970,785.328 1294.23,1378.46 Z" /><path
         id="path26"
         style="fill:#005399;fill-opacity:1;fill-rule:nonzero;stroke:none"
         d="m 887.695,1454.6 c -1.125,-2.57 -1.324,-4.45 -0.586,-5.67 0.739,-1.21 3.836,-3.11 9.278,-5.68 l -2.016,-4.74 -38.039,16.7 2.129,4.7 c 5.516,-2.25 8.953,-3.22 10.332,-2.93 1.359,0.29 2.609,1.71 3.734,4.28 l 21.703,49.44 c -3.011,-0.4 -5.808,-0.56 -8.394,-0.5 -2.602,0.08 -5,0.37 -7.203,0.89 l 0.164,4.75 c 5.848,0.09 11.363,0.75 16.578,2 5.215,1.24 10.07,3.04 14.539,5.39 l 6.629,-2.92 -28.848,-65.71" /><path
         id="path28"
         style="fill:#005399;fill-opacity:1;fill-rule:nonzero;stroke:none"
         d="m 951.469,1461.32 c -2.742,-0.64 -5.309,-1.05 -7.739,-1.2 -2.449,-0.14 -4.718,-0.03 -6.804,0.36 -6.832,1.28 -11.879,4.6 -15.121,9.98 -3.239,5.39 -4.153,11.94 -2.707,19.66 1.621,8.68 5.535,15.35 11.742,20.01 6.226,4.64 13.281,6.24 21.211,4.76 8.57,-1.6 14.89,-6.34 18.976,-14.22 4.082,-7.9 5.094,-17.36 3.02,-28.45 -2.449,-13.12 -8.832,-23.74 -19.125,-31.82 -10.317,-8.08 -22.82,-12.17 -37.539,-12.28 l -1.414,4.55 c 9.051,2.04 16.484,5.41 22.254,10.12 5.789,4.67 10.191,10.85 13.246,18.53 z m 2.222,6.41 c 0.985,2.91 1.801,5.6 2.469,8.1 0.668,2.52 1.192,4.83 1.578,6.91 1.563,8.36 1.793,14.72 0.68,19.11 -1.117,4.36 -3.578,6.91 -7.402,7.63 -3.524,0.65 -6.364,-0.62 -8.536,-3.79 -2.148,-3.18 -4.015,-9.01 -5.597,-17.48 -1.461,-7.82 -1.68,-13.26 -0.684,-16.39 0.996,-3.12 3.375,-5.03 7.09,-5.72 1.051,-0.2 2.418,-0.17 4.063,0.08 1.652,0.27 3.769,0.79 6.339,1.55" /><path
         id="path30"
         style="fill:#005399;fill-opacity:1;fill-rule:nonzero;stroke:none"
         d="m 995.859,1461.8 -2.14,3.58 c 4.82,3.9 8.311,7.47 10.491,10.8 2.17,3.29 3.26,6.63 3.26,10.02 0,3.12 -0.84,5.59 -2.51,7.37 -1.67,1.77 -3.98,2.65 -6.894,2.65 -2.636,0 -5.015,-0.77 -7.132,-2.33 -2.098,-1.57 -3.961,-3.92 -5.547,-7.05 l -4.52,1.3 c 2.379,6.33 5.59,11.06 9.637,14.25 4.027,3.17 8.871,4.75 14.526,4.75 5.31,0 9.68,-1.45 13.11,-4.39 3.42,-2.91 5.13,-6.59 5.13,-11.03 0,-3.12 -0.98,-6.14 -2.95,-9.03 -1.95,-2.87 -5.25,-6.13 -9.9,-9.71 6.11,-0.75 10.9,-3.19 14.35,-7.32 3.45,-4.11 5.19,-9.4 5.19,-15.83 0,-9.47 -3.21,-17.22 -9.64,-23.28 -6.41,-6.07 -14.71,-9.1 -24.933,-9.1 -5.438,0 -9.871,1.09 -13.321,3.25 -3.449,2.18 -5.183,4.93 -5.183,8.23 0,2.14 0.64,3.89 1.949,5.31 1.285,1.39 2.891,2.1 4.754,2.1 1.352,0 2.57,-0.24 3.707,-0.73 1.133,-0.47 2.078,-1.16 2.824,-2.04 0.301,-0.38 0.688,-0.83 1.199,-1.39 4.5,-5.38 8.399,-8.05 11.654,-8.05 3.19,0 5.76,1.64 7.71,4.97 1.97,3.29 2.96,7.69 2.96,13.17 0,6.53 -1.23,11.46 -3.64,14.8 -2.43,3.32 -6.07,4.99 -10.863,4.99 -0.641,0 -1.629,-0.09 -2.957,-0.26 -0.129,0 -0.235,0 -0.321,0" /><path
         id="path32"
         style="fill:#005399;fill-opacity:1;fill-rule:nonzero;stroke:none"
         d="m 1048.53,1483.89 c 2.2,1.74 4.34,3.18 6.47,4.31 2.11,1.12 4.22,1.94 6.3,2.46 6.7,1.64 12.61,0.71 17.7,-2.83 5.13,-3.53 8.6,-9.06 10.45,-16.6 2.07,-8.44 1.27,-15.99 -2.39,-22.66 -3.68,-6.66 -9.4,-10.94 -17.19,-12.86 -8.42,-2.06 -16.06,-0.42 -22.94,4.93 -6.89,5.37 -11.66,13.46 -14.31,24.27 -3.16,12.83 -1.73,25 4.26,36.5 6,11.49 15.59,20.32 28.76,26.52 l 3.17,-3.66 c -7.38,-5.68 -12.72,-11.78 -15.98,-18.26 -3.28,-6.5 -4.7,-13.87 -4.3,-22.12 z m 0.6,-6.62 c 0.3,-3.02 0.67,-5.78 1.08,-8.28 0.42,-2.51 0.89,-4.8 1.4,-6.9 2,-8.13 4.37,-13.87 7.11,-17.27 2.76,-3.39 6.01,-4.62 9.78,-3.7 3.44,0.84 5.49,3.11 6.17,6.77 0.66,3.66 -0.02,9.6 -2.03,17.81 -1.87,7.62 -3.9,12.62 -6.07,15.03 -2.18,2.4 -5.1,3.16 -8.73,2.26 -1.03,-0.25 -2.24,-0.84 -3.63,-1.73 -1.38,-0.9 -3.08,-2.23 -5.08,-3.99" /><path
         id="path34"
         style="fill:#005399;fill-opacity:1;fill-rule:nonzero;stroke:none"
         d="m 781.805,1476.39 c -4.407,-1.84 -9.465,0.25 -11.293,4.66 -1.832,4.41 0.258,9.47 4.668,11.3 l 2.074,0.86 h 0.035 l 2.078,0.86 c 9.578,3.95 20.106,6.83 29.684,4.87 10.801,-2.21 19.496,-9.71 23.074,-26.6 l 1.008,-4.72 c 1.402,-6.62 2.094,-12.02 1.937,-16.77 -0.183,-5.57 -1.496,-10.11 -4.117,-14.26 -5.129,-8.14 -14.16,-13.05 -29.375,-21.34 l -6.324,-3.47 c -8.711,-4.8 -17.191,-5.06 -24.875,-2.76 -9.149,2.74 -16.856,9.23 -22.16,15.7 -4.883,5.95 -7.922,12.05 -9.406,19.24 -1.395,6.77 -1.333,14.27 -0.098,23.44 l 0.863,6.38 c 1.051,7.83 2.059,15.1 3.008,21.45 1.078,7.26 2.223,14.42 3.469,21.56 l 5.015,28.67 c 0.336,1.99 0.672,3.98 1.028,5.83 1.574,8.14 4.699,16.22 8.937,23.62 4.309,7.52 9.809,14.43 16.059,20.12 7.851,7.14 15.285,11.82 22.226,14.47 8.348,3.17 16.032,3.49 22.942,1.61 9.953,-2.71 17.82,-9.87 23.48,-19.47 5.711,-9.7 9.168,-22.03 10.137,-34.54 0.078,-1.03 0.152,-2.06 0.246,-3.09 h 0.035 l 0.07,-0.81 c 0.133,-1.56 -0.14,1.01 0.086,-1.3 l 0.079,-0.89 c 0.425,-4.74 -3.071,-8.94 -7.817,-9.37 -4.746,-0.43 -8.941,3.07 -9.371,7.82 -0.074,0.82 -0.148,1.65 -0.25,2.47 0.004,-0.07 0.039,-0.43 0.02,-0.22 -0.016,0.22 -0.02,0.25 -0.02,0.22 l -0.051,0.59 h 0.035 l -0.089,0.95 c -0.129,1.41 -0.176,1.7 -0.227,2.35 -0.777,10.04 -3.43,19.72 -7.77,27.09 -3.421,5.81 -7.851,10.05 -13.125,11.49 -3.488,0.94 -7.574,0.71 -12.253,-1.08 -5.008,-1.9 -10.59,-5.48 -16.75,-11.08 -4.895,-4.46 -9.239,-9.93 -12.672,-15.92 -3.34,-5.83 -5.778,-12.08 -6.977,-18.28 -0.359,-1.89 -0.66,-3.65 -0.957,-5.42 -1.609,-9.61 -3.34,-19.21 -5.019,-28.81 -1.262,-7.23 -2.375,-14.2 -3.399,-21.08 -1.16,-7.77 -2.121,-14.66 -3.008,-21.25 l -0.863,-6.38 c -0.977,-7.26 -1.078,-12.96 -0.105,-17.69 0.886,-4.29 2.765,-8.01 5.816,-11.73 3.492,-4.25 8.355,-8.46 13.777,-10.08 3.551,-1.06 7.504,-0.93 11.614,1.33 l 6.39,3.48 c 12.723,6.93 20.274,11.04 23.016,15.38 0.93,1.48 1.402,3.26 1.48,5.6 0.102,3.17 -0.468,7.28 -1.601,12.64 -0.336,1.58 -0.656,3.15 -1.004,4.73 -1.852,8.72 -5.402,12.41 -9.617,13.27 -5.442,1.11 -12.711,-1.05 -19.672,-3.93 l -2.047,-0.84 0.004,-0.01 -2.078,-0.86" /><path
         id="path36"
         style="fill:#005399;fill-opacity:1;fill-rule:nonzero;stroke:none"
         d="m 1169.58,1492.35 c 4.41,-1.83 6.5,-6.89 4.67,-11.3 -1.83,-4.41 -6.89,-6.5 -11.29,-4.66 l -2.08,0.86 v 0.01 l -2.05,0.84 c -6.95,2.88 -14.22,5.04 -19.67,3.93 -4.21,-0.86 -7.76,-4.55 -9.61,-13.27 l -1.01,-4.73 c -1.13,-5.36 -1.7,-9.47 -1.59,-12.64 0.07,-2.34 0.54,-4.12 1.47,-5.6 2.74,-4.34 10.29,-8.45 23.02,-15.38 l 6.39,-3.48 c 4.11,-2.26 8.06,-2.39 11.62,-1.33 5.42,1.62 10.28,5.83 13.77,10.08 3.05,3.72 4.93,7.44 5.82,11.73 0.98,4.73 0.87,10.43 -0.11,17.69 l -0.86,6.38 c -0.89,6.59 -1.85,13.48 -3.01,21.25 -1.02,6.88 -2.14,13.85 -3.4,21.08 0,1.55 -2.65,15.18 -3,17.19 l -1.51,8.59 -0.51,3.01 c -0.29,1.77 -0.59,3.54 -0.96,5.44 -1.2,6.2 -3.63,12.45 -6.97,18.28 -3.44,5.99 -7.78,11.46 -12.68,15.92 -6.15,5.6 -11.74,9.18 -16.74,11.08 -4.69,1.79 -8.77,2.02 -12.26,1.08 -5.27,-1.44 -9.7,-5.67 -13.12,-11.49 -4.34,-7.37 -6.99,-17.05 -7.77,-27.09 -0.09,-1.14 -0.1,-0.85 -0.25,-2.57 l -0.07,-0.73 h 0.04 l -0.19,-2.21 -0.04,-0.06 c 0,-0.05 0,-0.02 0,-0.02 0,-4.78 -3.88,-8.66 -8.66,-8.66 -4.78,0 -8.66,3.88 -8.66,8.66 0,0 0.04,0.61 0.13,1.57 h -0.03 l 0.2,2.21 h 0.03 l 0.07,0.73 c 0.02,0.22 -0.05,-0.55 0.17,2.36 0.98,12.51 4.43,24.84 10.15,34.54 5.65,9.61 13.52,16.76 23.47,19.47 6.91,1.88 14.59,1.56 22.94,-1.61 6.94,-2.65 14.38,-7.33 22.23,-14.47 6.25,-5.69 11.75,-12.6 16.06,-20.12 4.23,-7.4 7.36,-15.48 8.93,-23.62 0.36,-1.85 0.7,-3.85 1.04,-5.84 l 5,-28.66 c 1.25,-7.14 2.39,-14.3 3.48,-21.56 0.95,-6.35 1.95,-13.62 3,-21.45 l 0.86,-6.38 c 1.25,-9.17 1.31,-16.67 -0.09,-23.44 -1.49,-7.2 -4.52,-13.29 -9.41,-19.24 -5.3,-6.47 -13,-12.96 -22.16,-15.7 -7.68,-2.3 -16.16,-2.04 -24.87,2.76 l -6.33,3.47 c -15.21,8.29 -24.24,13.2 -29.37,21.34 -2.62,4.15 -3.93,8.69 -4.12,14.26 -0.15,4.75 0.54,10.15 1.94,16.77 l 1,4.72 c 3.58,16.89 12.28,24.39 23.08,26.6 9.58,1.96 20.11,-0.92 29.68,-4.87 l 2.08,-0.86 h 0.04 l 2.07,-0.86" /><path
         id="path38"
         style="fill:#005399;fill-opacity:1;fill-rule:nonzero;stroke:none"
         d="m 849.07,1557.2 c 41.387,-8.54 82.446,-12.82 123.461,-12.95 41.019,-0.13 82.109,3.89 123.569,11.95 l 10.43,2.03 -0.18,-10.65 c -0.32,-18.28 1.56,-35.85 5.37,-52.77 3.81,-16.92 9.57,-33.24 16.99,-49.01 l 3.38,-7.17 -6.82,-3.99 c -50.85,-29.71 -101.9,-44.68 -153.102,-44.68 -50.934,0 -101.75,14.83 -152.371,44.72 l -6.797,4.02 3.383,7.11 c 8.133,17.1 14.051,34.26 17.769,51.39 3.731,17.19 5.246,34.28 4.567,51.21 l -0.446,11.02 z M 972.531,1527 c -38.75,0.13 -77.476,3.83 -116.398,11.21 -0.149,-14.87 -1.832,-29.78 -5.067,-44.66 -3.461,-15.95 -8.703,-31.93 -15.738,-47.87 45.692,-25.71 91.324,-38.47 136.84,-38.47 45.752,0 91.642,12.9 137.612,38.52 -6.36,14.6 -11.39,29.68 -14.9,45.29 -3.37,14.94 -5.34,30.36 -5.74,46.3 -38.96,-6.98 -77.76,-10.45 -116.609,-10.32" /><path
         id="path40"
         style="fill:#005399;fill-opacity:1;fill-rule:nonzero;stroke:none"
         d="m 967.574,1281.95 -0.379,19.88 240.105,36.74 21.8,3.5 c -56.26,-102.73 -112.08,-210.25 -168.58,-316.75 -4.45,-8.44 -14.9,-11.68 -23.35,-7.23 -8.44,4.44 -11.68,14.89 -7.24,23.33 l 64.64,121.82 h -92.36 V 934.836 c 0,-9.566 -7.753,-17.32 -17.315,-17.32 -9.563,0 -17.321,7.754 -17.321,17.32 z m 34.636,-11.86 v -72.21 h 110.74 l 52.44,98.85 -163.18,-26.64" /><path
         id="path42"
         style="fill:#005399;fill-opacity:1;fill-rule:nonzero;stroke:none"
         d="m 949.246,1286.33 c 0.106,-0.78 0.164,-1.58 0.164,-2.38 v -78.48 c 0,-9.56 -7.754,-17.32 -17.32,-17.32 -9.563,0 -17.32,7.76 -17.32,17.32 v 69.33 l -135.297,21.32 59.203,-109.26 112.238,-74.23 3.43,-224.638 -100.727,171.568 c -4.82,8.22 -2.062,18.79 6.156,23.61 8.219,4.82 18.793,2.06 23.614,-6.15 l 34.453,-58.7 -1.149,75.51 -104.293,68.97 -96.601,178.29 220.371,-34.73 12.719,-1.68 0.359,-18.35 v 0" /><path
         id="path44"
         style="fill:#005399;fill-opacity:1;fill-rule:nonzero;stroke:none"
         d="m 918.516,555.355 c 0,-4.781 -3.879,-8.66 -8.661,-8.66 -4.781,0 -8.66,3.879 -8.66,8.66 v 15.176 c 0,11.528 4.711,22 12.297,29.586 7.586,7.586 18.059,12.297 29.586,12.297 h 53.844 c 11.528,0 21.998,-4.711 29.578,-12.297 7.59,-7.586 12.3,-18.058 12.3,-29.586 v -18.043 c 0,-4.781 -3.88,-8.66 -8.66,-8.66 -4.78,0 -8.66,3.879 -8.66,8.66 v 18.043 c 0,6.746 -2.76,12.887 -7.22,17.344 -4.46,4.453 -10.6,7.219 -17.338,7.219 h -53.844 c -6.746,0 -12.887,-2.766 -17.344,-7.219 -4.457,-4.457 -7.218,-10.598 -7.218,-17.344 v -15.176" /><path
         id="path46"
         style="fill:#005399;fill-opacity:1;fill-rule:evenodd;stroke:none"
         d="m 598.699,1427.76 c 4.696,-41.69 11.067,-82.61 18.844,-122.88 6.719,-34.78 14.492,-69.08 23.148,-102.96 7.942,-29.12 16.622,-57.15 25.895,-84.32 14.621,-42.83 30.707,-83.51 47.672,-122.885 47.449,-98.883 93.672,-175.399 148.027,-248.938 32.363,-43.785 67.61,-86.515 107.715,-132.285 40.1,45.77 75.35,88.5 107.71,132.285 54.36,73.539 100.58,150.055 148.03,248.938 16.96,39.375 33.05,80.055 47.67,122.885 9.27,27.17 17.95,55.2 25.89,84.32 8.66,33.88 16.43,68.18 23.15,102.96 7.78,40.27 14.15,81.19 18.85,122.88 L 1306.8,1364.43 970,733.207 633.195,1364.43 l -34.496,63.33" /><path
         id="path48"
         style="fill:#ffffff;fill-opacity:1;fill-rule:evenodd;stroke:none"
         d="m 633.168,1324.24 c 0.965,-5.26 1.953,-10.51 2.969,-15.76 6.59,-34.13 14.011,-68.12 22.867,-101.73 7.383,-28.02 16.148,-55.62 25.504,-83.03 14.004,-41.02 29.847,-81.35 46.988,-121.16 41.762,-86.982 88.652,-167.912 146.02,-245.525 29.211,-39.523 60.367,-77.515 92.484,-114.695 32.11,37.18 63.27,75.172 92.48,114.695 57.37,77.613 104.26,158.543 146.02,245.525 17.14,39.81 32.99,80.14 46.99,121.16 9.35,27.41 18.12,55.01 25.5,83.03 8.86,33.61 16.28,67.6 22.87,101.73 1.02,5.24 2,10.5 2.97,15.76 L 970,692.98 633.168,1324.24" /><path
         id="path50"
         style="fill:#005399;fill-opacity:1;fill-rule:evenodd;stroke:none"
         d="M 1000.13,507.461 V 383.004 c 87.13,46.117 170.09,101.035 238.01,170.027 71.33,72.457 118.22,152.992 140.11,243.344 -0.57,-0.012 -1.14,-0.02 -1.71,-0.02 -38.75,0 -70.16,28.083 -70.16,62.723 0,8.985 2.11,17.531 5.92,25.262 -0.95,2.707 -1.9,5.414 -2.85,8.121 -1.95,5.578 -3.93,12.539 -6.79,17.914 -4.41,8.27 -10.89,12.785 -22.54,2.707 -0.26,-0.227 -0.52,-0.453 -0.78,-0.687 -10.73,-9.629 -18.03,-23.364 -30.74,-35.004 -9.56,-8.758 -20.92,-21.25 -17.86,-35.348 1.31,-6.059 2.71,-10.094 4.95,-12.828 3.27,-4.012 8.34,-5.227 17.53,-5.934 8.53,-0.652 9.92,-0.996 15.51,0.383 -17.13,-73.496 -54.88,-138.195 -113.39,-197.637 -45.24,-45.945 -98.67,-84.812 -155.21,-118.566 z M 939.414,383.004 V 507.461 C 882.883,541.215 829.449,580.082 784.211,626.027 725.328,685.844 687.477,750.98 670.5,825.051 c 0.355,-0.098 0.711,-0.196 1.063,-0.293 9.425,-2.602 9.312,-2.262 19.613,-1.477 9.195,0.707 14.258,1.922 17.535,5.934 2.23,2.734 3.629,6.769 4.945,12.828 3.059,14.098 -8.304,26.59 -17.863,35.348 -13.012,11.918 -20.355,26.031 -31.52,35.691 -1.449,1.254 -2.816,2.281 -4.113,3.102 -9.121,5.796 -14.57,1.437 -18.422,-5.809 -2.859,-5.375 -4.843,-12.336 -6.797,-17.914 -1.168,-3.328 -2.336,-6.656 -3.5,-9.984 -0.441,-1.258 -0.882,-2.52 -1.324,-3.778 2.274,-6.172 3.504,-12.769 3.504,-19.621 0,-34.64 -31.418,-62.723 -70.168,-62.723 -0.719,0 -1.441,0.008 -2.152,0.028 21.883,-90.352 68.773,-170.891 140.109,-243.352 67.922,-68.992 150.883,-123.91 238.004,-170.027 z M 616.039,872.793 c -31.512,-4.676 -56.035,-27.242 -59.363,-55.297 0.211,-1.086 0.429,-2.164 0.644,-3.246 1.457,-0.09 2.926,-0.133 4.41,-0.133 31.317,0 56.708,20.387 56.708,45.535 0,4.567 -0.84,8.981 -2.399,13.141 z m 707.921,0 c 31.51,-4.676 56.03,-27.242 59.36,-55.297 -0.21,-1.086 -0.43,-2.164 -0.64,-3.246 -1.46,-0.09 -2.93,-0.133 -4.41,-0.133 -31.32,0 -56.71,20.387 -56.71,45.535 0,4.567 0.84,8.981 2.4,13.141" /><path
         id="path52"
         style="fill:#ffffff;fill-opacity:1;fill-rule:nonzero;stroke:none"
         d="m 605.453,780.391 5.961,-11.539 c -3.73,-2.321 -6.098,-4.934 -7.109,-7.883 -1.016,-2.949 -0.774,-6.289 0.707,-10.024 1.566,-3.945 3.586,-6.597 6.058,-7.929 2.469,-1.34 4.828,-1.571 7.071,-0.68 1.449,0.574 2.5,1.484 3.191,2.73 0.672,1.235 0.969,3.063 0.871,5.457 -0.055,1.637 -0.473,5.254 -1.223,10.872 -0.964,7.226 -0.777,12.64 0.567,16.246 1.883,5.07 5.246,8.558 10.09,10.476 3.109,1.238 6.383,1.52 9.785,0.848 3.41,-0.684 6.473,-2.395 9.207,-5.137 2.73,-2.746 5.019,-6.437 6.879,-11.125 3.027,-7.621 3.617,-14.043 1.754,-19.234 -1.86,-5.211 -5.574,-9.02 -11.16,-11.469 l -5.329,12.184 c 2.942,1.777 4.754,3.793 5.45,6.058 0.695,2.266 0.367,5.125 -0.996,8.563 -1.414,3.547 -3.254,6.035 -5.528,7.453 -1.461,0.914 -2.984,1.066 -4.574,0.433 -1.449,-0.574 -2.441,-1.675 -2.977,-3.3 -0.707,-2.075 -0.578,-6.375 0.375,-12.914 0.965,-6.536 1.247,-11.539 0.875,-14.989 -0.382,-3.468 -1.55,-6.531 -3.535,-9.191 -1.984,-2.664 -4.898,-4.754 -8.746,-6.281 -3.496,-1.387 -7.156,-1.727 -10.98,-0.993 -3.824,0.735 -7.184,2.575 -10.071,5.536 -2.898,2.957 -5.398,7.093 -7.496,12.39 -3.062,7.707 -3.636,14.332 -1.715,19.879 1.911,5.539 6.118,10.051 12.598,13.563 z m 4.695,-67.664 58.047,30.597 9.907,-18.797 c 3.753,-7.117 5.914,-11.902 6.472,-14.371 0.875,-3.789 0.449,-7.566 -1.285,-11.347 -1.738,-3.782 -4.918,-6.891 -9.535,-9.329 -3.57,-1.878 -6.899,-2.804 -10.004,-2.8 -3.121,0.011 -5.887,0.644 -8.324,1.894 -2.426,1.262 -4.414,2.805 -5.942,4.621 -2.027,2.504 -4.441,6.399 -7.234,11.692 l -4.016,7.625 -21.89,-11.543 z m 54.434,13.671 -16.539,-8.718 3.371,-6.391 c 2.426,-4.605 4.356,-7.512 5.781,-8.746 1.43,-1.23 3.016,-1.949 4.789,-2.137 1.758,-0.195 3.493,0.149 5.223,1.063 2.125,1.117 3.539,2.66 4.266,4.613 0.726,1.973 0.773,3.981 0.117,6.07 -0.477,1.528 -1.817,4.395 -4.035,8.614 z m 0.012,-46.527 c 5.492,3.82 10.683,6.203 15.562,7.16 3.59,0.692 7.231,0.727 10.887,0.125 3.656,-0.601 6.887,-1.797 9.707,-3.578 3.754,-2.375 7.164,-5.75 10.211,-10.14 5.531,-7.95 7.473,-16.012 5.867,-24.219 -1.629,-8.199 -6.828,-15.352 -15.621,-21.469 -8.715,-6.059 -17.184,-8.43 -25.387,-7.121 -8.218,1.301 -15.078,5.922 -20.582,13.836 -5.57,8.012 -7.566,16.098 -5.949,24.234 1.602,8.129 6.703,15.188 15.305,21.172 z m 8.156,-10.957 c -6.105,-4.246 -9.746,-8.883 -10.945,-13.902 -1.184,-5.008 -0.274,-9.696 2.746,-14.035 3.023,-4.352 7.07,-6.821 12.137,-7.446 5.074,-0.605 10.73,1.266 16.988,5.617 6.179,4.297 9.855,8.86 10.996,13.692 1.164,4.828 0.18,9.484 -2.949,13.984 -3.125,4.489 -7.188,7.043 -12.172,7.653 -4.988,0.601 -10.59,-1.247 -16.801,-5.563 z m 8.918,-67.305 48.988,43.657 18.571,-20.836 c 4.66,-5.235 7.613,-9.442 8.847,-12.594 1.246,-3.168 1.371,-6.453 0.395,-9.879 -0.989,-3.437 -2.914,-6.445 -5.813,-9.023 -3.679,-3.282 -7.672,-4.914 -11.988,-4.895 -4.313,0.024 -8.684,1.899 -13.133,5.625 0.66,-3.238 0.856,-6.211 0.59,-8.926 -0.254,-2.722 -1.242,-6.957 -2.961,-12.703 l -4.23,-14.492 -10.539,11.824 4.378,16.629 c 1.532,5.926 2.368,9.805 2.52,11.633 0.148,1.812 -0.055,3.41 -0.625,4.785 -0.578,1.387 -1.879,3.215 -3.91,5.496 l -1.789,2.004 -20.461,-18.226 z m 37.098,15.262 6.527,-7.324 c 4.227,-4.746 7.062,-7.516 8.52,-8.344 1.445,-0.82 2.972,-1.137 4.542,-0.922 1.579,0.199 3.11,0.965 4.579,2.278 1.652,1.472 2.582,3.097 2.824,4.886 0.234,1.785 -0.235,3.598 -1.399,5.426 -0.605,0.914 -2.691,3.371 -6.261,7.375 l -6.875,7.719 z m 18.851,-73.695 36.676,40.355 -14.383,13.067 7.457,8.207 38.524,-35.012 -7.457,-8.203 -14.309,13.004 -36.676,-40.356 z m 30.703,-26.805 41.91,50.492 10.223,-8.488 -41.906,-50.492 z m 33.496,-26.492 19.606,66.875 11.613,-8.441 -15.094,-49.083 41.504,29.872 11.414,-8.297 -57.468,-39.344 z m 51.379,2.891 c 3.641,5.613 7.543,9.785 11.696,12.515 3.062,2.004 6.418,3.414 10.027,4.242 3.613,0.828 7.055,0.946 10.34,0.364 4.371,-0.778 8.808,-2.614 13.293,-5.52 8.129,-5.266 12.976,-11.996 14.597,-20.199 1.598,-8.203 -0.507,-16.797 -6.332,-25.781 -5.773,-8.911 -12.714,-14.313 -20.804,-16.207 -8.098,-1.907 -16.196,-0.223 -24.285,5.019 -8.192,5.305 -13.098,12.035 -14.68,20.18 -1.594,8.129 0.453,16.594 6.148,25.387 z m 11.703,-7.055 c -4.046,-6.242 -5.664,-11.91 -4.871,-17.008 0.801,-5.086 3.418,-9.078 7.852,-11.953 4.449,-2.883 9.129,-3.637 14.055,-2.297 4.925,1.359 9.453,5.231 13.597,11.629 4.094,6.32 5.766,11.934 4.996,16.84 -0.75,4.906 -3.425,8.844 -8.027,11.824 -4.586,2.973 -9.316,3.797 -14.156,2.477 -4.852,-1.336 -9.336,-5.164 -13.446,-11.512" /><path
         id="path54"
         style="fill:#ffffff;fill-opacity:1;fill-rule:nonzero;stroke:none"
         d="m 1079.2,453.281 -12.38,-7.179 -12.39,10.082 -22.77,-13.207 2.78,-15.657 -12.16,-7.05 -10.88,69.546 12.14,7.043 z m -34.06,10.332 -20.07,16.434 4.52,-25.453 z m 39.94,-6.687 -37.16,54.082 16.4,11.273 35.04,-30.226 -15.76,43.468 16.44,11.297 37.16,-54.082 -10.12,-6.957 -29.29,42.551 18.59,-49.902 -10.53,-7.235 -39.87,35.289 29.22,-42.605 z m 62.64,43.984 -41.8,50.582 37.44,30.942 7.07,-8.551 -27.2,-22.473 9.28,-11.23 25.29,20.894 7.06,-8.547 -25.29,-20.898 11.33,-13.707 28.19,23.293 7.06,-8.547 z m 47.01,39.641 -45.21,46.797 9.55,9.234 37.51,-38.82 23.66,22.859 7.71,-7.973 z m 38.92,39.07 -48.15,44.586 9.03,9.75 48.15,-44.586 z m 53.96,65.676 -8.83,-11.266 -15.25,4.75 -16.23,-20.718 8.4,-13.508 -8.67,-11.059 -35.95,60.52 8.66,11.05 z m -35.47,-3.07 -24.74,7.796 13.65,-21.949 z m 38.91,9.371 -56.44,33.484 6.57,11.063 51.6,0.785 -37.82,22.437 6.26,10.563 56.44,-33.485 -6.78,-11.414 -50.66,-0.863 37.1,-22.008 z m 1.97,67.925 c -6.14,2.672 -10.89,5.836 -14.26,9.489 -2.48,2.691 -4.42,5.769 -5.83,9.199 -1.41,3.426 -2.09,6.805 -2.05,10.137 0.05,4.441 1.13,9.117 3.27,14.019 3.86,8.879 9.7,14.766 17.53,17.707 7.84,2.918 16.65,2.246 26.47,-2.023 9.74,-4.238 16.2,-10.199 19.39,-17.871 3.21,-7.672 2.88,-15.942 -0.97,-24.778 -3.89,-8.953 -9.72,-14.894 -17.5,-17.789 -7.76,-2.902 -16.44,-2.269 -26.05,1.91 z m 5.04,12.7 c 6.82,-2.969 12.68,-3.637 17.58,-2.02 4.88,1.621 8.39,4.86 10.5,9.703 2.11,4.864 2.09,9.598 -0.03,14.242 -2.15,4.633 -6.71,8.469 -13.7,11.508 -6.91,3.004 -12.72,3.735 -17.43,2.168 -4.72,-1.539 -8.16,-4.824 -10.35,-9.851 -2.18,-5.016 -2.22,-9.813 -0.13,-14.371 2.11,-4.567 6.63,-8.364 13.56,-11.379" /></g></g></svg>