<?xml version="1.0" encoding="UTF-8" standalone="no"?>
<svg
   width="755.90552"
   height="823.61871"
   viewBox="0 0 44.721369 48.731874"
   version="1.1"
   id="svg14"
   sodipodi:docname="cerro-porteno-logo.svg"
   inkscape:version="1.1 (c68e22c387, 2021-05-23)"
   xmlns:inkscape="http://www.inkscape.org/namespaces/inkscape"
   xmlns:sodipodi="http://sodipodi.sourceforge.net/DTD/sodipodi-0.dtd"
   xmlns:xlink="http://www.w3.org/1999/xlink"
   xmlns="http://www.w3.org/2000/svg"
   xmlns:svg="http://www.w3.org/2000/svg"
   xmlns:rdf="http://www.w3.org/1999/02/22-rdf-syntax-ns#"
   xmlns:cc="http://creativecommons.org/ns#"
   xmlns:dc="http://purl.org/dc/elements/1.1/">
  <metadata
     id="metadata20">
    <rdf:RDF>
      <cc:Work
         rdf:about="">
        <dc:format>image/svg+xml</dc:format>
        <dc:type
           rdf:resource="http://purl.org/dc/dcmitype/StillImage" />
        <dc:title />
      </cc:Work>
    </rdf:RDF>
  </metadata>
  <defs
     id="defs18">
    <linearGradient
       inkscape:collect="always"
       id="linearGradient935">
      <stop
         style="stop-color:#8c1b23;stop-opacity:1;"
         offset="0"
         id="stop931" />
      <stop
         style="stop-color:#ffffff;stop-opacity:1"
         offset="1"
         id="stop933" />
    </linearGradient>
    <linearGradient
       inkscape:collect="always"
       id="linearGradient919">
      <stop
         style="stop-color:#081227;stop-opacity:1"
         offset="0"
         id="stop915" />
      <stop
         style="stop-color:#ffffff;stop-opacity:1"
         offset="1"
         id="stop917" />
    </linearGradient>
    <linearGradient
       inkscape:collect="always"
       xlink:href="#linearGradient919"
       id="linearGradient921"
       x1="62.207104"
       y1="84.984169"
       x2="62.228493"
       y2="83.483566"
       gradientUnits="userSpaceOnUse"
       gradientTransform="matrix(0.9533745,0,0,0.9533745,18.357211,4.0707526)" />
    <linearGradient
       inkscape:collect="always"
       xlink:href="#linearGradient935"
       id="linearGradient937"
       x1="62.245483"
       y1="77.599991"
       x2="62.229248"
       y2="80.175255"
       gradientUnits="userSpaceOnUse"
       gradientTransform="translate(15.456606,11.800204)" />
    <linearGradient
       inkscape:collect="always"
       xlink:href="#linearGradient919"
       id="linearGradient921-2"
       x1="64.796234"
       y1="86.318298"
       x2="64.784203"
       y2="83.559883"
       gradientUnits="userSpaceOnUse"
       gradientTransform="matrix(0.95337446,0,0,0.95337446,18.357267,4.0707594)" />
    <linearGradient
       inkscape:collect="always"
       xlink:href="#linearGradient919"
       id="linearGradient921-5"
       x1="59.666199"
       y1="86.280174"
       x2="59.680725"
       y2="83.389229"
       gradientUnits="userSpaceOnUse"
       gradientTransform="matrix(0.95337446,0,0,0.95337446,18.357213,4.0707536)" />
    <linearGradient
       inkscape:collect="always"
       xlink:href="#linearGradient919"
       id="linearGradient921-5-9"
       x1="59.666199"
       y1="86.280174"
       x2="59.680725"
       y2="83.389229"
       gradientUnits="userSpaceOnUse"
       gradientTransform="matrix(3.6141164,0,0,3.6141164,-204.19389,-294.94847)" />
    <linearGradient
       inkscape:collect="always"
       xlink:href="#linearGradient919"
       id="linearGradient921-2-6"
       x1="64.796234"
       y1="86.318298"
       x2="64.784203"
       y2="83.559883"
       gradientUnits="userSpaceOnUse"
       gradientTransform="matrix(3.6141164,0,0,3.6141164,-204.19367,-294.94843)" />
    <linearGradient
       inkscape:collect="always"
       xlink:href="#linearGradient919"
       id="linearGradient921-7"
       x1="62.207104"
       y1="84.984169"
       x2="62.228493"
       y2="83.483566"
       gradientUnits="userSpaceOnUse"
       gradientTransform="matrix(3.6141166,0,0,3.6141166,-204.19389,-294.94847)" />
    <linearGradient
       inkscape:collect="always"
       xlink:href="#linearGradient935"
       id="linearGradient937-6"
       x1="62.245483"
       y1="77.599991"
       x2="62.229248"
       y2="80.175255"
       gradientUnits="userSpaceOnUse"
       gradientTransform="matrix(3.7908678,0,0,3.7908678,-215.1897,-265.6471)" />
  </defs>
  <sodipodi:namedview
     pagecolor="#ffffff"
     bordercolor="#666666"
     borderopacity="1"
     objecttolerance="10"
     gridtolerance="10"
     guidetolerance="10"
     inkscape:pageopacity="0"
     inkscape:pageshadow="2"
     inkscape:window-width="1366"
     inkscape:window-height="705"
     id="namedview16"
     showgrid="false"
     fit-margin-top="0"
     fit-margin-left="0"
     fit-margin-right="0"
     fit-margin-bottom="0"
     inkscape:zoom="0.35355339"
     inkscape:cx="-32.526912"
     inkscape:cy="343.6539"
     inkscape:window-x="-8"
     inkscape:window-y="-8"
     inkscape:window-maximized="1"
     inkscape:current-layer="svg14"
     inkscape:pagecheckerboard="0" />
  <g
     id="g991"
     transform="matrix(1.6966581,0,0,1.6966581,-12.771055,-10.769816)">
    <path
       d="m 20.707131,6.7708725 c 1.316295,2.6421509 6.141418,4.7536975 11.868869,4.9661805 0.373932,0.01137 0.743568,0.01858 1.108776,0.01516 0.133932,3.598296 -0.700745,7.622587 -2.603325,11.576837 -2.46958,5.133009 -6.270713,9.176652 -10.37432,11.523477 C 16.603319,32.505703 12.802193,28.46206 10.332614,23.329051 8.4300387,19.374987 7.5951109,15.35051 7.7290768,11.752214 c 0.3651737,0.0024 0.7350793,-0.0029 1.1087753,-0.01516 C 14.565508,11.524614 19.390634,9.4130244 20.707131,6.7708735 Z"
       id="path2-8-8"
       style="fill:#081227;fill-opacity:1;stroke:#ffffff;stroke-width:0.377455;stroke-miterlimit:4;stroke-dasharray:none;stroke-opacity:1"
       inkscape:connector-curvature="0"
       inkscape:export-filename="C:\Users\suitedoalex\sites\cerro-porteno-logo-7.png"
       inkscape:export-xdpi="2.2817903"
       inkscape:export-ydpi="2.2817903" />
    <path
       d="M 20.668669,33.766616 C 16.921392,31.417457 13.489504,27.628659 11.212319,22.895423 9.5282943,19.395857 8.6970896,15.840019 8.6474026,12.585498 c 0.3675624,0.0031 0.7401368,-4.01e-4 1.1168659,-0.01478 5.1593585,-0.191286 9.5330575,-2.036496 10.9266455,-4.3835386 1.544107,2.4118446 6.085168,4.2937526 11.426039,4.4917156 0.218089,0.011 0.43452,0.011 0.649493,0.01478 -0.0738,3.211149 -0.905214,6.708304 -2.5618,10.151113 -2.293824,4.766785 -5.800384,8.693961 -9.578636,11.039193 z"
       id="path4-1-0"
       style="fill:url(#linearGradient937-6);fill-opacity:1;stroke:#8c1b23;stroke-width:0.381307;stroke-linecap:square;stroke-linejoin:bevel;stroke-miterlimit:4;stroke-dasharray:none;paint-order:fill markers stroke"
       inkscape:connector-curvature="0"
       inkscape:export-filename="C:\Users\suitedoalex\sites\cerro-porteno-logo-7.png"
       inkscape:export-xdpi="2.2817903"
       inkscape:export-ydpi="2.2817903"
       sodipodi:nodetypes="cccccccccc" />
    <path
       d="m 20.704132,13.713698 c 0.835882,0 1.656249,0.154288 2.375577,0.440549 l -0.02502,-3.30389 C 21.99485,10.243333 21.179234,9.6291944 20.689347,8.8637954 c -0.45929,0.773712 -1.268614,1.3765166 -2.335554,1.9843406 v 3.270806 c 0.739724,-0.29527 1.540571,-0.41057 2.350346,-0.409883 z m 0,12.370255 c -0.835875,0 -1.631218,-0.210432 -2.35055,-0.496908 v 5.594623 c 0.750546,0.627954 1.525213,1.192441 2.315087,1.687755 0.814391,-0.505212 1.612972,-1.084661 2.38582,-1.730944 v -5.525626 c -1.129436,0.393883 -1.719682,0.479644 -2.350357,0.4711 z m 7.051261,-13.153717 c 1.105458,0.221539 2.287928,0.363165 3.516211,0.408648 0.201675,0.011 0.402125,0.011 0.601369,0.0144 -0.0685,2.973842 -0.838313,6.212922 -2.372652,9.40133 -0.508192,1.058107 -1.090939,2.086213 -1.744727,3.078109 V 12.930258 Z M 13.652674,25.874954 C 12.999971,24.884358 12.418106,23.857697 11.910585,22.80111 10.350916,19.559827 9.5811128,16.266461 9.5350993,13.252252 c 0.3405334,0.0031 0.6852817,-4.25e-4 1.0343077,-0.011 1.036333,-0.03753 2.067512,-0.150724 3.083267,-0.338638 z"
       id="path6-2-2"
       style="fill:url(#linearGradient921-7);fill-opacity:1;stroke:#081227;stroke-width:0.42768;stroke-linecap:square;stroke-linejoin:miter;stroke-miterlimit:3.07533;stroke-dasharray:none;paint-order:fill markers stroke"
       inkscape:connector-curvature="0"
       inkscape:export-filename="C:\Users\suitedoalex\sites\cerro-porteno-logo-7.png"
       inkscape:export-xdpi="2.2817903"
       inkscape:export-ydpi="2.2817903"
       sodipodi:nodetypes="cccccccccccccccccccccccccccc" />
    <path
       d="m 20.707032,25.503528 c 3.073143,0 5.564558,-2.491168 5.564558,-5.5645 0,-3.073181 -2.491415,-5.564767 -5.564558,-5.564767 -3.073351,0 -5.564766,2.491586 -5.564766,5.564767 0,3.073332 2.491415,5.5645 5.564766,5.5645 z"
       stroke-miterlimit="2.613"
       id="path8-7-5"
       style="fill:#ffffff;stroke:#12102d;stroke-width:0.267357;stroke-miterlimit:2.613"
       inkscape:connector-curvature="0"
       inkscape:export-filename="C:\Users\suitedoalex\sites\cerro-porteno-logo-7.png"
       inkscape:export-xdpi="2.2817903"
       inkscape:export-ydpi="2.2817903" />
    <path
       d="m 20.691297,15.195628 c 1.480746,0 2.80578,0.687929 3.672281,1.76048 L 23.80242,17.38148 c -0.737646,-0.902984 -1.858909,-1.481357 -3.111123,-1.481357 -2.212101,0 -4.016448,1.80415 -4.016448,4.016197 0,2.211896 1.804347,4.016273 4.016448,4.016273 1.255148,0 2.378723,-0.581329 3.11637,-1.487878 l 0.547935,0.441713 c -0.866709,1.066484 -2.188176,1.750622 -3.664305,1.750622 -2.600127,0 -4.720727,-2.120611 -4.720727,-4.72073 0,-2.600118 2.1206,-4.720692 4.720727,-4.720692 z"
       id="path10-4-1"
       style="fill:#12102d;stroke-width:0.209857"
       inkscape:connector-curvature="0"
       inkscape:export-filename="C:\Users\suitedoalex\sites\cerro-porteno-logo-7.png"
       inkscape:export-xdpi="2.2817903"
       inkscape:export-ydpi="2.2817903" />
    <path
       d="m 20.916261,16.578347 c 1.738242,0.116759 3.120359,1.570785 3.120359,3.337973 0,0.07999 -0.0031,0.158838 -0.0083,0.237688 h -2.470217 v 2.993004 c -0.206716,0.05572 -0.421605,0.09212 -0.641953,0.107281 v -6.675756 z m 0.64195,2.933184 h 1.739712 c -0.150648,-0.970803 -0.833763,-1.769274 -1.739712,-2.08619 z m -1.092092,3.742572 c -1.738451,-0.117137 -3.120358,-1.571011 -3.120358,-3.337783 0,-1.766961 1.381907,-3.22129 3.120358,-3.337973 v 0.709499 c -1.348329,0.114864 -2.412933,1.251214 -2.412933,2.628474 0,1.377109 1.064604,2.51327 2.412933,2.628247 z"
       id="path12-4-7"
       style="fill:#12102d;stroke-width:0.209857"
       inkscape:connector-curvature="0"
       inkscape:export-filename="C:\Users\suitedoalex\sites\cerro-porteno-logo-7.png"
       inkscape:export-xdpi="2.2817903"
       inkscape:export-ydpi="2.2817903" />
    <path
       d="m 20.745388,25.41486 c 3.027649,0 5.482182,-2.454321 5.482182,-5.482163 0,-3.027691 -2.454533,-5.482391 -5.482182,-5.482391 -3.027857,0 -5.482394,2.4547 -5.482394,5.482391 0,3.027842 2.454537,5.482163 5.482394,5.482163 z"
       stroke-miterlimit="2.613"
       id="path8-6-4-3"
       style="fill:#ffffff;stroke:#12102d;stroke-width:0.2634;stroke-miterlimit:2.613"
       inkscape:connector-curvature="0"
       inkscape:export-filename="C:\Users\suitedoalex\sites\cerro-porteno-logo-7.png"
       inkscape:export-xdpi="2.2817903"
       inkscape:export-ydpi="2.2817903" />
    <path
       d="m 20.72988,15.259504 c 1.458828,0 2.764251,0.677732 3.617924,1.734437 l -0.552849,0.41908 c -0.726728,-0.889641 -1.83139,-1.459447 -3.065072,-1.459447 -2.17935,0 -3.956991,1.777425 -3.956991,3.956757 0,2.17918 1.777641,3.956832 3.956991,3.956832 1.23657,0 2.343515,-0.572724 3.070239,-1.465891 l 0.539824,0.435192 c -0.853874,1.050715 -2.15578,1.724731 -3.610063,1.724731 -2.561637,0 -4.650845,-2.089223 -4.650845,-4.650864 0,-2.561641 2.089208,-4.650827 4.650842,-4.650827 z"
       id="path10-48-8-3"
       style="fill:#12102d;stroke-width:0.20675"
       inkscape:connector-curvature="0"
       inkscape:export-filename="C:\Users\suitedoalex\sites\cerro-porteno-logo-7.png"
       inkscape:export-xdpi="2.2817903"
       inkscape:export-ydpi="2.2817903" />
    <path
       d="m 20.951516,16.621791 c 1.71251,0.114863 3.074171,1.547508 3.074171,3.28854 0,0.07847 -0.0031,0.156563 -0.0083,0.234276 h -2.433654 v 2.948688 c -0.203645,0.05497 -0.415361,0.0906 -0.632446,0.105386 v -6.576966 z m 0.632446,2.88974 h 1.713961 c -0.14845,-0.956397 -0.82142,-1.743117 -1.713961,-2.055294 z m -1.075924,3.687188 c -1.712718,-0.115242 -3.07417,-1.547735 -3.07417,-3.288388 0,-1.740805 1.361452,-3.173602 3.07417,-3.28854 v 0.698998 c -1.328369,0.112968 -2.377215,1.232676 -2.377215,2.589542 0,1.356714 1.048846,2.476043 2.377215,2.589352 z"
       id="path12-45-4-2"
       style="fill:#12102d;stroke-width:0.20675"
       inkscape:connector-curvature="0"
       inkscape:export-filename="C:\Users\suitedoalex\sites\cerro-porteno-logo-7.png"
       inkscape:export-xdpi="2.2817903"
       inkscape:export-ydpi="2.2817903" />
    <path
       d="m 23.10962,25.395398 c -0.721304,0.271616 -1.54504,0.498393 -2.38322,0.498393 -0.838169,0 -1.697483,-0.247202 -2.41879,-0.519023 l 0.0525,6.667738 c 0.752605,0.595842 1.529403,1.15838 2.321444,1.62836 0.816629,-0.479381 1.617404,-1.014209 2.392378,-1.627434 v -6.020804 z"
       id="path6-2-4-7"
       style="fill:#081227;fill-opacity:1;stroke:#90181f;stroke-width:0.417194;stroke-linecap:square;stroke-linejoin:miter;stroke-miterlimit:3.07533;stroke-dasharray:none;paint-order:fill markers stroke"
       inkscape:connector-curvature="0"
       inkscape:export-filename="C:\Users\suitedoalex\sites\cerro-porteno-logo-7.png"
       inkscape:export-xdpi="2.2817903"
       inkscape:export-ydpi="2.2817903"
       sodipodi:nodetypes="cccccccc" />
    <path
       d="m 27.755594,12.930259 c 1.105459,0.221539 2.287925,0.363165 3.516207,0.408648 0.201674,0.011 0.402132,0.011 0.601373,0.0144 -0.0685,2.973842 -0.838309,6.212922 -2.372652,9.40133 -0.508192,1.058107 -1.090939,2.086213 -1.744724,3.078109 V 12.930281 Z"
       id="path6-2-3-4"
       style="fill:url(#linearGradient921-2-6);fill-opacity:1;stroke:#081227;stroke-width:0.42768;stroke-linecap:square;stroke-linejoin:miter;stroke-miterlimit:3.07533;stroke-dasharray:none;paint-order:fill markers stroke"
       inkscape:connector-curvature="0"
       inkscape:export-filename="C:\Users\suitedoalex\sites\cerro-porteno-logo-7.png"
       inkscape:export-xdpi="2.2817903"
       inkscape:export-ydpi="2.2817903"
       sodipodi:nodetypes="ccccccc" />
    <path
       d="M 13.652674,25.874954 C 12.999971,24.884358 12.418106,23.857697 11.910585,22.80111 10.350916,19.559827 9.5811128,16.266461 9.5350993,13.252252 c 0.3405334,0.0031 0.6852817,-4.25e-4 1.0343077,-0.011 1.036333,-0.03753 2.067512,-0.150724 3.083267,-0.338638 z"
       id="path6-2-42-8"
       style="fill:url(#linearGradient921-5-9);fill-opacity:1;stroke:#081227;stroke-width:0.42768;stroke-linecap:square;stroke-linejoin:miter;stroke-miterlimit:3.07533;stroke-dasharray:none;paint-order:fill markers stroke"
       inkscape:connector-curvature="0"
       inkscape:export-filename="C:\Users\suitedoalex\sites\cerro-porteno-logo-7.png"
       inkscape:export-xdpi="2.2817903"
       inkscape:export-ydpi="2.2817903"
       sodipodi:nodetypes="cccccc" />
    <path
       style="fill:#081227;fill-opacity:1;stroke:none;stroke-width:0.224298px;stroke-linecap:butt;stroke-linejoin:miter;stroke-opacity:1"
       d="m 13.481202,25.980924 0.360967,0.40035 0.02616,-0.511915 z"
       id="path1054-8"
       inkscape:connector-curvature="0" />
    <path
       style="fill:#081227;fill-opacity:1;stroke:none;stroke-width:0.225854px;stroke-linecap:butt;stroke-linejoin:miter;stroke-opacity:1"
       d="m 27.934689,25.935206 -0.366008,0.40035 -0.02654,-0.511915 z"
       id="path1054-9-9"
       inkscape:connector-curvature="0" />
    <path
       style="fill:#081227;fill-opacity:1;stroke:none;stroke-width:0.228968px;stroke-linecap:butt;stroke-linejoin:miter;stroke-opacity:1"
       d="m 27.541774,12.93864 0.01061,-0.245155 0.281321,0.04807 -0.0525,0.194699 c 0,0 -0.148261,0.0613 -0.152886,0.0613 -0.0045,0 -0.08055,-0.06251 -0.08055,-0.06251 z"
       id="path1071-9"
       inkscape:connector-curvature="0" />
    <path
       style="fill:#8c1b23;fill-opacity:1;stroke:none;stroke-width:0.224298px;stroke-linecap:butt;stroke-linejoin:miter;stroke-opacity:1"
       d="m 27.772482,12.729483 0.229537,0.02881 -0.01934,-0.08412 -0.185753,-0.02464 z"
       id="path1073-5"
       inkscape:connector-curvature="0" />
    <path
       style="fill:#8c1b23;fill-opacity:1;stroke:none;stroke-width:0.224298px;stroke-linecap:butt;stroke-linejoin:miter;stroke-opacity:1"
       d="m 20.523084,8.0893174 0.175252,-0.315439 0.154212,0.322414 z"
       id="path1075-5"
       inkscape:connector-curvature="0" />
  </g>
</svg>
