<?xml version="1.0" encoding="UTF-8" standalone="no"?>
<svg
   xmlns:dc="http://purl.org/dc/elements/1.1/"
   xmlns:cc="http://creativecommons.org/ns#"
   xmlns:rdf="http://www.w3.org/1999/02/22-rdf-syntax-ns#"
   xmlns:svg="http://www.w3.org/2000/svg"
   xmlns="http://www.w3.org/2000/svg"
   viewBox="0 0 257.33334 257.33334"
   height="257.33334"
   width="257.33334"
   xml:space="preserve"
   id="svg2"
   version="1.1"><metadata
     id="metadata8"><rdf:RDF><cc:Work
         rdf:about=""><dc:format>image/svg+xml</dc:format><dc:type
           rdf:resource="http://purl.org/dc/dcmitype/StillImage" /></cc:Work></rdf:RDF></metadata><defs
     id="defs6" /><g
     transform="matrix(1.3333333,0,0,-1.3333333,0,257.33333)"
     id="g10"><g
       transform="scale(0.1)"
       id="g12"><path
         id="path14"
         style="fill:#ffffff;fill-opacity:1;fill-rule:evenodd;stroke:none"
         d="M 9.99609,1930 H 1930 V 9.99609 H 9.99609 V 1930" /><path
         id="path16"
         style="fill:#ed1c24;fill-opacity:1;fill-rule:evenodd;stroke:none"
         d="m 394.891,1648.32 h 0.894 v 42.23 c 0,14.4 11.781,26.19 26.188,26.19 13.59,0 22.562,-4.68 22.562,-15.26 2.582,-16.18 9.238,-29.73 25.059,-29.73 10.664,0 17.215,4.84 20.961,13.67 7.105,16.76 2.16,31.32 27.078,31.32 18.008,0 21.73,-10.8 22.836,-19.57 1.777,-14.13 13.711,-25.42 30.625,-25.42 12.289,0 22.89,6 27.765,14.67 1.84,3.27 2.868,6.91 2.868,10.75 0,18.25 13.769,19.57 26.847,19.57 15.598,0 28.356,-12.76 28.356,-28.36 v -40.06 h 131.73 v 36.98 H 970 1151.34 v -36.98 h 131.73 v 40.06 c 0,15.6 12.75,28.36 28.35,28.36 13.08,0 26.85,-1.32 26.85,-19.57 0,-3.84 1.03,-7.48 2.87,-10.75 4.88,-8.67 15.47,-14.67 27.76,-14.67 16.92,0 28.85,11.29 30.63,25.42 1.1,8.77 4.83,19.57 22.83,19.57 24.92,0 19.98,-14.56 27.08,-31.32 3.75,-8.83 10.3,-13.67 20.96,-13.67 15.82,0 22.48,13.55 25.06,29.73 0,10.58 8.97,15.26 22.56,15.26 14.41,0 26.19,-11.79 26.19,-26.19 v -42.23 h 0.9 l 20.4,-214.41 c -18.95,-27.7 -35.19,-54.48 -47.84,-80.07 -17.34,-35.09 -28.68,-74.08 -27.23,-119.69 2.17,-67.98 23.34,-137.72 47.11,-207.66 22.44,-65.986 47.19,-132.166 60.49,-197.252 l 12.29,-116.89 C 1607.68,554.641 1482.25,448.73 1304.24,365.004 L 970,223.258 635.754,365.004 c -178,83.726 -303.438,189.637 -306.086,347.344 l 12.293,116.89 c 13.293,65.086 38.047,131.266 60.48,197.252 23.774,69.94 44.95,139.68 47.114,207.66 1.453,45.61 -9.891,84.6 -27.231,119.69 -12.644,25.59 -28.89,52.37 -47.84,80.07 l 20.407,214.41" /><path
         id="path18"
         style="fill:#ffffff;fill-opacity:1;fill-rule:evenodd;stroke:none"
         d="M 1142.56,354.5 V 961.301 H 1023.41 V 303.973 l 119.15,50.527" /><path
         id="path20"
         style="fill:#ffffff;fill-opacity:1;fill-rule:evenodd;stroke:none"
         d="M 916.586,303.973 V 961.301 H 797.438 V 354.5 l 119.148,-50.527" /><path
         id="path22"
         style="fill:#ffffff;fill-opacity:1;fill-rule:evenodd;stroke:none"
         d="m 654.016,1570.39 v -232.64 h -35.813 c -23.726,0 -43.14,-19.42 -43.14,-43.14 v -144.57 h -68.157 c -30.023,0 -54.582,-24.56 -54.582,-54.58 V 966.066 c 0,-30.019 24.559,-54.582 54.582,-54.582 h 22.707 V 485.402 c 41.274,-28.472 86.274,-51.945 127.969,-71.593 l 35.863,-15.204 V 911.484 H 1246.55 V 398.605 l 35.86,15.204 c 41.7,19.648 86.7,43.121 127.97,71.593 v 426.082 h 22.71 c 30.02,0 54.58,24.563 54.58,54.582 v 129.394 c 0,30.02 -24.56,54.58 -54.58,54.58 h -68.16 v 144.57 c 0,23.72 -19.41,43.14 -43.14,43.14 h -35.81 v 232.64 h 111.57 154.97 l -2.72,28.64 h -152.25 -111.57 v 20.66 h 261.85 l -2.72,28.63 h -0.9 -261.14 -25.72 v -17.9 -10.73 -20.66 H 970 682.648 v 20.66 10.73 17.9 h -25.718 -261.149 -0.89 l -2.723,-28.63 h 261.848 v -20.66 H 542.441 390.199 l -2.726,-28.64 h 154.968 z m 28.632,-232.64 v 232.64 H 926.59 l 2.57,0.49 c -61.828,-11.12 -109.125,-65.51 -109.125,-130.42 v -102.71 z m 437.312,0 v 103.54 c 0,63.59 -45.68,117.01 -105.84,129.1 h 243.23 V 1337.75 Z M 970,897.098 c 145.22,0 262.95,-117.723 262.95,-262.95 0,-145.218 -117.73,-262.941 -262.95,-262.941 -145.223,0 -262.949,117.723 -262.949,262.941 0,145.227 117.726,262.95 262.949,262.95 z m -40.645,673.812 c 0.922,0.17 1.852,0.32 2.782,0.47 -0.93,-0.15 -1.86,-0.3 -2.782,-0.47 z m 3.184,0.53 c 1.051,0.17 2.109,0.31 3.164,0.45 -1.055,-0.14 -2.113,-0.28 -3.164,-0.45 z m 6.559,0.84 c 1.019,0.11 2.039,0.19 3.062,0.27 -1.023,-0.08 -2.043,-0.16 -3.062,-0.27 z m 10.207,0.64 c 1.07,0.03 2.148,0.04 3.23,0.04 -1.074,0 -2.16,-0.01 -3.23,-0.04" /><g
         transform="scale(10)"
         id="g24"><text
           id="text28"
           style="font-variant:normal;font-weight:normal;font-size:19.77456474px;font-family:Swiss921BT;-inkscape-font-specification:Swiss921BT-RegularA;writing-mode:lr-tb;fill:#231f20;fill-opacity:1;fill-rule:nonzero;stroke:none"
           transform="matrix(1,0,0,-0.95147479,60.4512,115.866)"><tspan
             id="tspan26"
             y="0"
             x="0 11.034207 20.545773 32.588482 42.100048 53.319065 63.938007">GENERAL</tspan></text>
<text
           id="text32"
           style="font-variant:normal;font-weight:normal;font-size:21.55845642px;font-family:Swiss921BT;-inkscape-font-specification:Swiss921BT-RegularA;writing-mode:lr-tb;fill:#231f20;fill-opacity:1;fill-rule:nonzero;stroke:none"
           transform="matrix(1,0,0,-0.87275266,47.2895,96.0332)"><tspan
             id="tspan30"
             y="0"
             x="0 11.921826 23.498716 35.118725 46.695618 55.987312 65.279007 75.648621 87.484215">CABALLERO</tspan></text>
</g><path
         id="path34"
         style="fill:#231f20;fill-opacity:1;fill-rule:evenodd;stroke:none"
         d="m 970,879.637 c 135.57,0 245.48,-109.91 245.48,-245.485 0,-135.574 -109.91,-245.484 -245.48,-245.484 -135.578,0 -245.484,109.91 -245.484,245.484 0,135.575 109.906,245.485 245.484,245.485" /><path
         id="path36"
         style="fill:#ffffff;fill-opacity:1;fill-rule:evenodd;stroke:none"
         d="m 905.676,593.848 16.176,-55.465 9.242,-43.906 52.386,-16.438 48.02,-6.16 79.09,79.348 -22.34,92.437 -107.34,27.992 z m -76.91,-125.317 -29.789,30.813 -21.055,29.273 -10.785,16.434 -9.653,-1.871 c 18.293,-42.672 49.059,-78.727 87.715,-103.575 v 17.114 z m -39.672,251.653 14.89,-95.266 94.754,-25.934 78.063,78.571 -12.321,108.363 -92.187,14.898 z M 768.68,549.16 l 28.758,74.207 -15.407,95.012 -27.07,0.609 c -10.375,-26.265 -16.07,-54.886 -16.07,-84.836 0,-30.058 5.738,-58.777 16.179,-85.117 z m 106.437,257.559 91.668,-15.668 99.635,39.547 1.32,13.039 c -29.69,13.875 -62.81,21.625 -97.74,21.625 -33.652,0 -65.621,-7.192 -94.457,-20.125 z m 196.693,22.597 72.16,-97.328 38.16,-5.972 c -21.75,50.164 -60.78,91.097 -109.58,115.3 z m 74.73,-102.972 -49.82,-81.656 21.06,-94.754 63.35,-9.911 c 12.84,28.754 19.98,60.61 19.98,94.129 0,29.914 -5.69,58.5 -16.04,84.743 z m -155.614,-257.813 -28.5,6.934 -34.926,11.039 -18.23,-10.527 -31.844,-11.555 -24.008,-6.68 0.762,-23.625 c 34.054,-19.762 73.613,-31.074 115.82,-31.074 26.191,0 51.36,4.359 74.84,12.387 l -13.86,50.789 h -5.64 l -34.414,2.312" /><path
         id="path38"
         style="fill:#ed1c24;fill-opacity:1;fill-rule:evenodd;stroke:none"
         d="m 970,1552.93 c 62.11,0 112.47,-50.35 112.47,-112.47 0,-62.11 -50.36,-112.47 -112.47,-112.47 -62.117,0 -112.473,50.36 -112.473,112.47 0,62.12 50.356,112.47 112.473,112.47" /><path
         id="path40"
         style="fill:#ffffff;fill-opacity:1;fill-rule:evenodd;stroke:none"
         d="m 970,1527.25 c 47.93,0 86.79,-38.86 86.79,-86.79 0,-47.93 -38.86,-86.79 -86.79,-86.79 -47.937,0 -86.793,38.86 -86.793,86.79 0,47.93 38.856,86.79 86.793,86.79" /><path
         id="path42"
         style="fill:#ed1c24;fill-opacity:1;fill-rule:evenodd;stroke:none"
         d="m 914.078,1366.01 130.902,129.65 -19.06,19.25 -130.908,-129.65 19.066,-19.25" /><path
         id="path44"
         style="fill:#ed1c24;fill-opacity:1;fill-rule:evenodd;stroke:none"
         d="m 895.547,1496.38 129.653,-130.91 19.25,19.07 -129.653,130.91 -19.25,-19.07" /><path
         id="path46"
         style="fill:#ffffff;fill-opacity:1;fill-rule:nonzero;stroke:none"
         d="m 906.695,1499.55 51.575,-51.57 -4.118,-4.12 -51.574,51.58 z m 55.782,-47.36 -51.571,51.57 4.117,4.12 51.575,-51.57 z m 11.023,4.19 51.5,51.5 4.11,-4.12 -51.493,-51.49 z m 8.324,-8.32 51.496,51.49 4.12,-4.11 -51.499,-51.5 z m 4.016,-11 51.6,-51.6 -4.12,-4.12 -51.597,51.61 z m -8.324,-8.33 51.594,-51.59 -4.11,-4.12 -51.602,51.6 z m -10.821,-4.03 -51.672,-51.68 -4.117,4.12 51.672,51.67 z m -8.324,8.32 -51.672,-51.68 -4.121,4.12 51.676,51.68 4.117,-4.12" /></g></g></svg>