<?xml version="1.0" standalone="no"?>
<!DOCTYPE svg PUBLIC "-//W3C//DTD SVG 20010904//EN"
 "http://www.w3.org/TR/2001/REC-SVG-20010904/DTD/svg10.dtd">
<svg version="1.0" xmlns="http://www.w3.org/2000/svg"
 width="800.000000pt" height="920.000000pt" viewBox="0 0 800.000000 920.000000"
 preserveAspectRatio="xMidYMid meet">

<g transform="translate(0.000000,920.000000) scale(0.100000,-0.100000)"
fill="#000000" stroke="none">
<path d="M0 6328 c1 -2459 3 -2868 15 -2841 31 72 151 398 195 533 64 191 104
353 135 541 104 636 109 980 20 1470 -52 285 -134 629 -194 810 -55 167 -91
290 -91 311 0 4 33 8 73 8 99 -1 139 -21 218 -111 194 -222 353 -363 474 -421
91 -43 89 -44 109 80 111 686 323 1388 589 1953 l55 116 88 33 c578 211 1202
340 1829 379 86 5 -561 9 -1687 10 l-1828 1 0 -2872z"/>
<path d="M4405 9189 c529 -33 1018 -120 1509 -269 243 -74 468 -158 489 -184
27 -34 129 -238 200 -401 202 -469 360 -1015 456 -1574 16 -95 32 -175 35
-178 11 -11 97 29 155 72 90 66 191 165 318 312 63 73 131 142 151 155 27 16
57 24 120 28 l84 5 -7 -45 c-4 -25 -38 -139 -76 -255 -83 -255 -187 -713 -233
-1025 -53 -363 -37 -759 54 -1287 34 -199 62 -316 121 -498 40 -124 205 -574
214 -584 3 -2 5 1288 5 2867 l0 2872 -1862 -1 c-1066 -1 -1807 -5 -1733 -10z"/>
<path d="M3400 8979 c-387 -30 -819 -113 -1202 -230 -391 -119 -481 -151 -515
-183 -27 -25 -55 -85 -154 -331 -260 -647 -416 -1198 -491 -1732 -12 -90 -26
-163 -32 -163 -17 0 -257 129 -330 178 -121 80 -223 186 -295 307 -67 114 -96
149 -111 140 -23 -14 -7 -86 46 -215 91 -221 93 -227 134 -384 167 -645 167
-1349 0 -2137 -35 -165 -74 -306 -125 -444 -99 -271 -98 -266 -64 -309 12 -16
98 -64 226 -126 656 -321 1212 -685 1773 -1159 507 -429 1098 -1045 1574
-1641 124 -155 130 -160 169 -160 33 0 33 0 169 170 420 528 978 1118 1438
1522 567 498 1190 917 1825 1229 246 121 295 149 312 182 18 36 14 55 -54 236
-217 578 -317 1410 -248 2066 34 325 111 661 196 853 89 202 116 300 89 317
-18 11 -40 -15 -103 -125 -108 -185 -261 -316 -522 -446 -63 -31 -117 -55
-119 -53 -2 2 -14 74 -26 159 -61 435 -177 892 -342 1349 -80 221 -257 657
-282 695 -27 42 -52 53 -299 131 -435 138 -682 200 -987 249 -331 54 -408 59
-990 61 -300 2 -597 -1 -660 -6z m830 -19 c693 -46 1172 -147 1862 -396 84
-30 159 -62 165 -71 36 -48 274 -682 356 -948 198 -642 280 -1158 280 -1765 1
-522 -61 -933 -208 -1375 -342 -1034 -1054 -1851 -2425 -2785 -124 -84 -229
-158 -235 -163 -15 -15 151 75 315 171 717 418 1295 901 1729 1444 513 643
820 1368 915 2163 36 296 40 704 10 1021 l-7 71 89 36 c239 96 333 152 448
271 44 44 77 74 74 66 -117 -325 -207 -710 -245 -1055 -19 -181 -22 -592 -4
-775 36 -371 110 -750 237 -1213 19 -71 34 -131 31 -133 -2 -2 -129 -66 -283
-143 -1213 -605 -2155 -1376 -3189 -2611 -76 -91 -141 -166 -144 -168 -4 -1
-34 30 -66 70 -1059 1291 -2073 2125 -3332 2740 -123 60 -223 114 -223 119 0
6 22 92 50 192 96 352 165 691 207 1022 22 178 26 770 5 935 -37 292 -93 550
-181 835 -27 88 -53 168 -57 178 -3 10 33 -22 82 -71 106 -106 191 -158 387
-238 l139 -58 -5 -45 c-4 -25 -12 -150 -18 -277 -34 -628 65 -1251 288 -1814
353 -894 1015 -1667 1978 -2310 176 -117 400 -254 570 -347 200 -110 203 -107
15 17 -854 567 -1483 1122 -1910 1685 -694 914 -952 2015 -774 3305 52 381
143 752 288 1185 87 256 278 751 299 772 25 25 531 198 782 267 421 115 816
173 1430 209 22 1 56 1 75 0 19 -1 109 -7 200 -13z"/>
<path d="M4420 8731 c-16 -31 -12 -51 10 -51 11 0 20 5 20 10 0 15 41 12 70
-5 50 -28 100 -7 100 43 0 26 -16 28 -41 6 -15 -14 -20 -14 -54 0 -52 22 -92
20 -105 -3z"/>
<path d="M3860 8435 l0 -225 170 0 170 0 0 35 0 35 -125 0 -125 0 0 65 0 65
115 0 115 0 0 35 0 35 -115 0 -115 0 0 50 0 50 120 0 120 0 0 40 0 40 -165 0
-165 0 0 -225z"/>
<path d="M4330 8633 c-1 -16 -7 -116 -14 -223 -7 -107 -11 -198 -9 -202 2 -5
21 -8 42 -8 l38 0 7 92 c3 50 6 113 6 140 0 26 3 48 8 48 4 0 41 -64 84 -143
76 -141 76 -142 118 -150 23 -5 44 -6 47 -3 5 5 31 354 33 429 0 25 -3 27 -39
27 -47 0 -51 -8 -52 -98 -1 -37 -4 -96 -8 -132 l-6 -65 -74 139 c-41 77 -83
148 -93 158 -10 10 -32 18 -53 18 -31 0 -35 -3 -35 -27z"/>
<path d="M3391 8643 l-43 -4 6 -72 c3 -40 8 -130 11 -202 8 -180 6 -175 59
-175 l43 0 -5 95 -5 95 38 0 c41 0 69 -24 141 -125 41 -57 44 -58 107 -47 l38
7 -59 81 c-33 44 -67 84 -76 87 -24 9 -19 21 14 34 35 13 70 67 70 106 0 43
-29 96 -61 112 -27 15 -161 18 -278 8z m227 -85 c19 -16 15 -76 -5 -87 -10 -5
-49 -10 -88 -12 l-70 -4 -3 57 -3 57 58 3 c64 4 92 1 111 -14z"/>
<path d="M3165 8623 l-30 -4 19 -224 20 -225 41 0 c23 0 44 2 46 5 3 2 -4 104
-16 227 -22 241 -17 229 -80 221z"/>
<path d="M4852 8399 c-61 -117 -110 -215 -107 -217 2 -2 23 -7 47 -9 43 -5 43
-5 65 41 25 51 23 50 135 40 l67 -7 16 -53 c16 -57 34 -69 87 -62 l25 3 -63
228 c-34 126 -64 230 -66 232 -2 2 -24 6 -49 10 l-45 7 -112 -213z m169 9 c10
-40 19 -74 19 -75 0 -5 -75 -3 -97 3 -22 6 -21 7 15 80 20 40 38 72 40 70 2
-3 12 -37 23 -78z"/>
<path d="M2799 8583 c-26 -4 -29 -11 -83 -228 -31 -124 -56 -229 -56 -235 0
-12 60 -13 78 -1 7 4 19 30 26 57 l12 49 90 12 c49 6 90 9 92 5 1 -4 13 -25
25 -47 22 -38 25 -40 67 -37 24 2 46 5 48 7 3 2 -47 98 -110 212 -123 222
-119 217 -189 206z m77 -184 c19 -39 33 -73 30 -76 -12 -13 -106 -15 -106 -4
0 19 31 151 36 151 2 0 20 -32 40 -71z"/>
<path d="M2462 8530 c-18 -4 -36 -10 -39 -14 -3 -3 7 -78 22 -167 27 -161 27
-161 8 -187 -36 -48 -116 -48 -147 0 -11 18 -66 284 -66 322 0 8 -72 -3 -83
-14 -8 -7 35 -268 54 -327 24 -76 99 -111 196 -93 79 14 129 49 144 100 11 35
9 64 -15 208 -15 92 -31 170 -34 173 -4 3 -22 3 -40 -1z"/>
<path d="M5480 8537 c0 -1 -18 -101 -40 -222 -22 -120 -39 -220 -37 -221 1 -2
21 -6 44 -10 l41 -6 11 53 c6 30 13 71 17 92 7 43 11 44 119 23 39 -8 71 -13
73 -11 2 1 5 18 8 37 l6 35 -63 12 c-134 25 -121 17 -113 69 4 26 8 50 10 53
2 4 50 -2 106 -12 56 -11 105 -16 109 -11 4 4 9 20 11 37 l3 30 -145 27 c-156
29 -160 29 -160 25z"/>
<path d="M1826 8409 c-107 -25 -168 -93 -174 -194 -11 -166 103 -291 247 -270
61 8 139 46 178 87 l32 33 -21 85 c-12 47 -22 86 -23 88 -1 1 -43 -7 -93 -19
-96 -23 -99 -25 -86 -77 4 -15 12 -21 21 -18 8 4 32 9 53 12 34 6 38 4 42 -20
10 -51 -82 -106 -152 -91 -58 13 -110 99 -110 183 0 100 113 160 191 103 l32
-24 39 19 39 19 -22 29 c-26 33 -92 66 -129 65 -14 -1 -42 -5 -64 -10z"/>
<path d="M6038 8390 c-52 -28 -93 -83 -112 -149 -23 -81 -20 -129 10 -189 61
-123 242 -149 320 -47 29 38 26 48 -18 71 -30 16 -31 16 -55 -15 -71 -91 -196
-15 -178 108 16 107 58 161 126 161 44 0 96 -38 101 -73 3 -19 9 -22 48 -22
44 0 45 1 42 30 -13 110 -176 182 -284 125z"/>
<path d="M5725 8107 c-11 -36 -14 -66 -7 -70 4 -3 23 -8 43 -12 36 -7 36 -6
42 31 7 44 4 49 -41 58 -22 4 -34 2 -37 -7z"/>
<path d="M4823 8053 c9 -2 25 -2 35 0 9 3 1 5 -18 5 -19 0 -27 -2 -17 -5z"/>
<path d="M4928 8043 c12 -2 30 -2 40 0 9 3 -1 5 -23 4 -22 0 -30 -2 -17 -4z"/>
<path d="M5018 8033 c12 -2 30 -2 40 0 9 3 -1 5 -23 4 -22 0 -30 -2 -17 -4z"/>
<path d="M5108 8023 c12 -2 30 -2 40 0 9 3 -1 5 -23 4 -22 0 -30 -2 -17 -4z"/>
<path d="M5183 8013 c9 -2 25 -2 35 0 9 3 1 5 -18 5 -19 0 -27 -2 -17 -5z"/>
<path d="M5430 7975 c307 -53 566 -115 826 -199 l141 -46 36 -132 c155 -567
214 -945 224 -1425 10 -478 -35 -820 -159 -1203 -326 -1009 -1136 -1728 -2381
-2115 l-119 -37 -71 17 c-199 48 -546 179 -771 292 -847 424 -1412 1050 -1670
1852 -111 346 -159 672 -159 1086 0 442 57 861 183 1350 60 231 66 257 39 180
-82 -242 -180 -736 -221 -1115 -20 -181 -16 -703 5 -880 45 -362 132 -683 265
-975 335 -737 971 -1314 1837 -1665 185 -75 535 -200 560 -200 27 0 362 113
500 168 1207 483 1935 1313 2139 2442 44 247 51 337 51 690 -1 363 -10 478
-65 807 -50 297 -177 809 -215 869 -9 14 -36 27 -77 38 -35 9 -124 34 -198 56
-234 69 -783 182 -872 179 -12 0 65 -16 172 -34z"/>
<path d="M2638 7993 c7 -3 16 -2 19 1 4 3 -2 6 -13 5 -11 0 -14 -3 -6 -6z"/>
<path d="M2578 7983 c7 -3 16 -2 19 1 4 3 -2 6 -13 5 -11 0 -14 -3 -6 -6z"/>
<path d="M2518 7973 c7 -3 16 -2 19 1 4 3 -2 6 -13 5 -11 0 -14 -3 -6 -6z"/>
<path d="M2458 7963 c6 -2 18 -2 25 0 6 3 1 5 -13 5 -14 0 -19 -2 -12 -5z"/>
<path d="M3053 7963 c9 -2 23 -2 30 0 6 3 -1 5 -18 5 -16 0 -22 -2 -12 -5z"/>
<path d="M4933 7963 c9 -2 23 -2 30 0 6 3 -1 5 -18 5 -16 0 -22 -2 -12 -5z"/>
<path d="M6340 7935 c-14 -43 -7 -53 39 -57 31 -3 35 0 43 31 11 39 5 46 -39
56 -29 6 -32 4 -43 -30z"/>
<path d="M2398 7953 c6 -2 18 -2 25 0 6 3 1 5 -13 5 -14 0 -19 -2 -12 -5z"/>
<path d="M2963 7953 c9 -2 25 -2 35 0 9 3 1 5 -18 5 -19 0 -27 -2 -17 -5z"/>
<path d="M5013 7953 c9 -2 25 -2 35 0 9 3 1 5 -18 5 -19 0 -27 -2 -17 -5z"/>
<path d="M2348 7943 c6 -2 18 -2 25 0 6 3 1 5 -13 5 -14 0 -19 -2 -12 -5z"/>
<path d="M2883 7943 c9 -2 25 -2 35 0 9 3 1 5 -18 5 -19 0 -27 -2 -17 -5z"/>
<path d="M5093 7943 c9 -2 25 -2 35 0 9 3 1 5 -18 5 -19 0 -27 -2 -17 -5z"/>
<path d="M2298 7933 c6 -2 18 -2 25 0 6 3 1 5 -13 5 -14 0 -19 -2 -12 -5z"/>
<path d="M2803 7933 c9 -2 25 -2 35 0 9 3 1 5 -18 5 -19 0 -27 -2 -17 -5z"/>
<path d="M5173 7933 c9 -2 25 -2 35 0 9 3 1 5 -18 5 -19 0 -27 -2 -17 -5z"/>
<path d="M2220 7920 c-20 -6 -21 -8 -5 -8 11 0 31 4 45 8 20 6 21 8 5 8 -11 0
-31 -4 -45 -8z"/>
<path d="M2558 7899 c-172 -29 -450 -88 -547 -115 -106 -29 -268 -85 -284 -97
-26 -19 -124 -380 -186 -677 -76 -370 -106 -644 -106 -965 1 -258 10 -356 56
-595 148 -774 554 -1399 1205 -1856 106 -74 279 -181 362 -223 74 -38 45 -16
-50 39 -292 166 -581 393 -781 615 -177 195 -309 390 -423 620 -150 305 -234
596 -281 975 -22 184 -26 807 -5 995 18 159 63 428 102 600 35 160 109 436
120 448 13 15 271 96 448 141 151 38 328 75 547 115 32 6 39 9 20 9 -16 0
-105 -13 -197 -29z"/>
<path d="M5275 7919 c408 -74 804 -172 960 -239 l42 -18 46 -173 c152 -569
204 -998 186 -1541 -18 -532 -120 -952 -328 -1354 -241 -464 -616 -849 -1115
-1146 -158 -94 -174 -104 -117 -77 76 36 251 144 365 223 737 517 1153 1235
1251 2161 35 330 6 731 -86 1205 -59 303 -168 706 -197 728 -24 18 -237 85
-382 120 -146 36 -338 74 -514 102 -123 20 -210 27 -111 9z"/>
<path d="M2010 7870 c-80 -21 -196 -55 -258 -74 -63 -20 -119 -36 -127 -36 -7
0 -19 -8 -26 -17 -12 -15 -12 -16 6 -8 46 19 311 99 445 135 80 21 136 39 125
39 -11 0 -85 -18 -165 -39z"/>
<path d="M1576 7694 c-4 -14 -5 -28 -3 -31 3 -2 8 8 11 23 4 14 5 28 3 31 -3
2 -8 -8 -11 -23z"/>
<path d="M1896 7607 c-38 -153 1 -368 104 -573 57 -114 41 -111 -63 14 -108
130 -158 182 -173 182 -24 0 -16 -101 16 -219 47 -173 90 -279 151 -368 16
-23 29 -44 29 -47 0 -12 -91 28 -180 79 -113 64 -130 71 -130 55 0 -29 109
-221 164 -289 40 -49 53 -72 40 -68 -49 14 -62 17 -108 22 -53 6 -86 0 -86
-17 0 -5 24 -47 54 -91 51 -78 107 -138 186 -200 l35 -27 -36 0 c-20 0 -56 7
-79 15 -56 20 -70 19 -70 -3 0 -53 122 -181 230 -243 33 -19 60 -37 60 -40 0
-11 -60 -19 -146 -19 -58 0 -84 -4 -84 -12 0 -23 96 -103 170 -143 l75 -40
-55 -5 c-91 -9 -101 -27 -46 -88 70 -77 295 -181 402 -185 30 -1 54 -4 54 -7
0 -4 -15 -11 -32 -18 -18 -7 -44 -21 -58 -31 -21 -17 -22 -21 -10 -36 13 -16
47 -33 80 -40 195 -41 267 -43 375 -11 27 9 51 14 53 12 8 -9 -33 -74 -75
-117 -47 -49 -46 -60 10 -73 31 -7 140 8 200 29 23 8 43 12 45 10 2 -2 -10
-35 -28 -74 -18 -38 -30 -77 -27 -86 13 -32 144 -9 240 43 26 14 49 23 52 20
3 -3 0 -49 -6 -102 -17 -143 -10 -149 92 -87 l64 39 7 -70 c9 -101 49 -132
118 -93 14 8 28 14 31 15 3 0 3 -40 1 -89 -5 -108 7 -149 61 -208 38 -42 71
-62 128 -77 23 -7 24 -7 4 9 -145 115 -183 223 -134 382 24 79 22 75 72 146
30 42 40 68 48 123 10 72 3 148 -11 109 -102 -297 -102 -297 -134 -316 -42
-26 -47 -24 -30 9 7 15 14 43 14 62 l-1 35 -25 -30 c-13 -16 -39 -54 -56 -83
-18 -32 -34 -50 -39 -45 -5 5 -15 37 -21 71 l-11 61 63 67 c64 70 106 142 116
205 6 33 10 37 43 43 22 3 48 17 65 35 16 17 33 28 37 25 5 -3 18 -37 30 -76
16 -52 20 -86 16 -132 -5 -69 -47 -172 -78 -194 -18 -13 -20 -21 -15 -66 7
-59 2 -70 -37 -80 -25 -6 -28 -10 -25 -44 2 -27 9 -40 25 -47 29 -12 40 -70
19 -94 -21 -23 -21 -77 0 -85 9 -3 30 -6 48 -6 21 0 40 -8 55 -24 12 -13 50
-37 84 -52 53 -24 75 -29 147 -29 98 0 152 21 214 82 28 28 39 34 48 25 26
-26 98 -4 98 29 0 18 -22 53 -42 70 -28 22 -16 67 20 71 34 4 62 50 46 75 -6
10 -25 19 -42 21 -39 4 -48 27 -25 69 17 32 17 35 1 61 -94 147 -109 261 -53
395 l15 38 39 -31 c21 -17 51 -32 66 -34 24 -3 30 -10 45 -57 26 -85 56 -135
116 -195 l56 -56 -7 -51 c-3 -29 -12 -63 -19 -75 -12 -23 -14 -22 -54 45 -22
38 -48 75 -56 83 -14 11 -16 9 -16 -14 0 -15 7 -42 14 -61 17 -40 13 -42 -30
-16 -27 16 -38 39 -87 177 -38 109 -56 150 -57 129 -6 -118 12 -182 69 -247
17 -20 31 -42 31 -50 0 -8 9 -41 21 -74 24 -70 22 -180 -5 -231 -22 -44 -73
-100 -120 -135 -45 -32 -40 -35 24 -11 54 20 114 74 142 127 22 43 29 142 15
209 l-8 37 44 -21 c83 -40 117 -8 117 113 l0 59 33 -24 c46 -36 116 -69 128
-62 6 4 7 48 3 122 l-7 116 47 -28 c54 -32 122 -54 189 -61 63 -7 68 8 28 98
-17 39 -29 73 -27 76 3 2 27 -3 53 -13 57 -20 211 -31 233 -16 12 9 7 18 -31
58 -44 46 -85 110 -76 119 2 2 33 -3 68 -12 75 -20 202 -22 279 -5 30 6 64 13
76 15 11 2 37 11 58 20 51 21 44 44 -23 78 -30 15 -56 29 -57 31 -2 2 21 4 52
5 108 3 324 98 408 179 58 57 47 86 -38 98 l-49 8 75 38 c86 46 164 118 154
145 -5 14 -17 16 -78 12 -74 -6 -148 0 -148 11 0 3 27 21 59 38 109 60 231
191 231 247 l0 25 -47 -15 c-64 -20 -123 -29 -123 -18 0 5 15 19 33 31 79 54
232 246 225 283 -4 17 -83 20 -157 6 l-44 -8 54 68 c59 76 65 85 121 192 39
75 46 102 27 102 -12 0 -91 -42 -158 -84 -46 -29 -121 -59 -129 -52 -2 3 5 17
16 33 83 118 182 409 182 537 0 88 -19 79 -138 -64 -38 -47 -89 -103 -112
-125 l-42 -40 40 80 c89 180 129 343 119 488 -12 169 -36 160 -152 -53 -78
-143 -149 -236 -270 -356 -155 -154 -292 -239 -570 -355 -170 -70 -250 -124
-376 -250 -57 -58 -88 -100 -116 -156 -37 -75 -38 -79 -38 -187 1 -61 3 -172
5 -246 5 -123 3 -141 -19 -204 -41 -119 -136 -185 -253 -174 -61 6 -96 31
-125 88 -13 24 -23 38 -23 30 1 -32 47 -96 85 -117 86 -48 197 -39 264 23 83
74 116 218 106 454 -9 200 -10 185 21 260 65 160 189 287 371 379 35 17 124
56 199 86 75 30 164 71 197 91 204 118 385 303 542 549 31 50 54 79 50 65 -9
-31 -125 -290 -165 -370 -17 -33 -30 -63 -30 -67 0 -4 31 35 70 87 83 113 133
210 160 311 l20 74 -4 -120 c-4 -135 -18 -186 -93 -348 -41 -87 -53 -103 -112
-151 -112 -90 -219 -166 -380 -268 -85 -54 -157 -101 -161 -105 -9 -9 160 77
245 125 193 110 320 207 489 371 54 53 93 86 87 73 -7 -12 -57 -98 -112 -190
l-101 -167 57 55 c31 30 76 81 101 113 51 68 54 63 19 -28 -109 -291 -277
-444 -645 -592 -105 -42 -50 -33 84 14 183 63 298 133 413 249 68 68 76 74
133 84 33 6 82 20 108 31 l47 20 -50 -52 c-27 -28 -84 -76 -125 -107 -41 -30
-79 -59 -84 -63 -9 -8 56 10 107 30 42 16 33 -2 -30 -59 -146 -133 -287 -201
-578 -276 -140 -36 -158 -43 -105 -38 100 9 300 51 382 80 122 44 227 103 328
184 19 15 47 22 108 27 93 7 108 -5 38 -32 -44 -17 -199 -115 -181 -115 6 0
35 7 65 15 30 8 57 15 60 15 11 0 -81 -86 -135 -127 -129 -98 -287 -155 -478
-174 -198 -19 -217 -27 -71 -28 194 -2 350 31 493 103 46 24 60 27 99 19 l45
-8 -72 -49 c-39 -27 -70 -51 -68 -52 2 -2 20 1 41 7 21 6 40 8 43 5 8 -8 -88
-74 -162 -111 -38 -19 -97 -42 -130 -50 -80 -21 -263 -21 -393 0 -57 9 -106
15 -108 12 -8 -8 159 -46 256 -57 107 -14 189 -8 309 21 77 19 86 20 120 6 20
-9 47 -19 60 -23 20 -5 11 -11 -55 -30 -43 -12 -97 -30 -119 -38 l-40 -16 78
3 c42 1 77 -1 77 -5 0 -10 -151 -66 -228 -84 -90 -21 -310 -14 -436 15 -49 12
-91 19 -94 17 -10 -10 173 -59 277 -74 99 -14 126 -14 220 -2 139 18 271 24
271 12 0 -4 -60 -24 -132 -42 -130 -33 -132 -34 -93 -43 22 -5 68 -6 103 -4
34 3 62 3 62 2 0 -8 -110 -65 -153 -79 -145 -49 -282 -43 -540 23 -83 22 -153
38 -155 36 -2 -2 45 -22 103 -45 117 -45 220 -74 305 -85 40 -5 65 -15 90 -37
l35 -30 -70 8 c-38 4 -93 12 -121 19 -42 10 -51 10 -47 -1 7 -18 49 -44 97
-59 40 -13 37 -13 -64 -14 -117 -1 -197 15 -369 73 -58 20 -106 34 -108 32 -2
-1 53 -30 122 -62 97 -46 125 -63 125 -79 1 -11 7 -36 14 -56 l13 -37 -64 29
c-36 16 -68 29 -71 29 -3 0 10 -16 29 -36 l34 -36 -50 7 c-107 15 -192 58
-315 159 -54 44 -69 53 -53 31 52 -72 220 -205 260 -205 7 0 13 -8 13 -17 0
-10 3 -36 7 -58 l6 -40 -49 44 c-53 47 -69 39 -39 -18 10 -21 12 -31 4 -31
-31 0 -138 71 -214 143 l-86 79 33 -52 c18 -28 50 -72 72 -97 l39 -45 -16 -46
c-10 -26 -17 -56 -17 -66 0 -14 -10 -5 -30 27 -16 26 -32 47 -35 47 -2 0 -2
-20 2 -45 3 -29 2 -45 -5 -45 -13 0 -98 68 -134 106 -29 32 -82 119 -92 152
-5 16 2 31 32 61 l39 40 39 -14 c21 -8 46 -14 55 -15 27 0 58 43 64 90 l6 45
-23 -44 c-33 -64 -48 -70 -103 -43 -55 27 -62 27 -69 4 -4 -10 -24 -28 -46
-41 -53 -30 -59 -26 -136 77 -1 2 -12 1 -24 -3 -30 -9 -67 -94 -75 -170 -9
-78 8 -161 46 -239 22 -46 26 -62 17 -68 -19 -11 -21 -11 -81 26 -66 39 -159
61 -224 52 -27 -3 -81 -22 -121 -42 -40 -20 -75 -34 -79 -31 -3 4 6 33 21 66
63 140 57 307 -15 384 l-29 32 -48 -54 c-42 -46 -51 -53 -73 -46 -36 11 -79
44 -79 61 0 18 1 18 -60 -10 -29 -14 -58 -22 -65 -20 -7 3 -24 26 -39 52 l-27
47 7 -40 c12 -75 57 -101 128 -71 32 13 34 13 70 -25 20 -21 36 -44 36 -51 0
-21 -80 -147 -115 -182 -19 -19 -55 -49 -81 -67 l-47 -32 7 51 c4 29 4 52 1
52 -3 0 -18 -21 -35 -47 -17 -27 -30 -40 -30 -31 0 10 -7 38 -15 63 l-16 45
46 57 c25 32 58 78 72 103 26 43 24 42 -59 -36 -89 -83 -152 -127 -204 -140
-24 -6 -27 -5 -18 7 14 18 35 79 27 79 -4 0 -29 -19 -57 -42 l-49 -42 6 33 c4
19 7 41 7 51 0 11 19 28 53 45 70 37 152 100 191 149 57 71 52 72 -30 3 -43
-37 -110 -83 -149 -101 -66 -32 -205 -71 -205 -58 0 3 15 21 33 40 l32 33 -27
-10 c-15 -6 -46 -20 -69 -32 l-42 -21 7 24 c4 12 9 38 13 56 5 30 14 36 134
94 71 34 128 63 126 65 -2 1 -50 -13 -108 -33 -198 -67 -371 -96 -454 -76 -34
8 -36 10 -12 11 39 1 88 24 112 51 l20 23 -35 -7 c-75 -15 -146 -26 -174 -26
l-30 0 29 30 c22 23 38 30 66 30 54 0 210 42 333 90 59 23 106 44 104 45 -2 2
-62 -12 -133 -31 -310 -82 -462 -83 -636 -3 -71 33 -133 81 -75 60 30 -12 141
-14 169 -3 11 5 -31 19 -118 41 -84 21 -131 37 -123 43 20 12 115 9 203 -7
155 -28 322 -14 495 41 45 14 80 27 78 29 -2 2 -58 -7 -123 -21 -228 -48 -432
-32 -590 46 l-60 30 82 -3 c45 -1 80 0 78 1 -2 2 -57 21 -122 42 -65 22 -110
39 -100 39 10 1 40 10 66 22 l48 20 74 -21 c108 -30 244 -36 365 -16 98 16
256 60 184 51 -19 -2 -95 -12 -168 -21 -114 -15 -148 -16 -229 -6 -134 17
-265 73 -366 158 -31 26 -22 30 33 14 l35 -9 -35 29 c-19 16 -50 37 -67 47
-18 10 -33 20 -33 24 0 3 20 9 44 12 38 6 57 1 128 -33 143 -67 217 -81 428
-85 l185 -4 -140 14 c-303 30 -454 89 -634 245 -33 29 -61 56 -61 61 0 4 25 1
56 -8 31 -8 58 -12 60 -10 6 6 -70 55 -150 98 -59 32 -66 38 -47 44 12 3 51 3
87 -1 51 -5 73 -13 98 -34 155 -133 415 -229 686 -254 56 -5 43 0 -85 33 -250
65 -377 117 -500 206 -68 49 -171 152 -140 140 71 -26 129 -45 132 -42 1 2
-28 25 -66 51 -71 48 -201 162 -201 175 0 5 21 -2 48 -15 26 -12 76 -28 111
-35 60 -11 68 -17 135 -84 114 -115 253 -197 440 -260 85 -29 116 -29 39 0
-105 39 -253 116 -328 172 -130 96 -208 196 -276 353 -37 85 -65 171 -51 154
5 -5 27 -34 49 -64 38 -49 154 -170 140 -145 -2 6 -50 86 -106 178 -56 93
-101 171 -101 174 0 3 48 -41 108 -98 129 -127 215 -196 347 -282 93 -60 373
-212 350 -190 -5 5 -66 45 -135 88 -151 94 -270 178 -368 258 -63 51 -79 70
-117 148 -76 150 -97 226 -102 364 l-3 120 19 -70 c24 -87 43 -131 83 -198 46
-74 130 -189 135 -184 2 3 -11 36 -31 74 -67 134 -171 373 -162 373 3 0 21
-28 42 -62 147 -246 344 -453 544 -572 45 -27 143 -73 218 -103 75 -30 159
-66 186 -80 198 -100 332 -239 390 -407 19 -53 21 -74 15 -137 -25 -244 6
-439 83 -533 92 -111 290 -98 353 25 24 45 17 58 -8 14 -32 -57 -79 -85 -140
-85 -121 0 -200 58 -238 175 -20 61 -22 85 -18 190 2 66 4 176 4 245 0 123 -1
127 -34 194 -22 45 -60 97 -110 148 -134 141 -227 203 -416 278 -387 154 -633
373 -835 741 -71 130 -101 158 -114 106z m2164 -2793 c49 -10 100 -35 100 -51
0 -15 -32 -33 -57 -32 -10 0 -38 10 -63 22 -35 17 -46 28 -48 50 -3 24 0 28
15 24 10 -3 34 -9 53 -13z m-83 -39 c24 -37 69 -55 135 -55 27 0 41 6 50 19 9
15 15 17 25 9 17 -14 16 -32 -2 -68 -14 -26 -14 -30 -1 -30 8 0 19 -6 23 -12
4 -7 19 -13 33 -13 20 0 26 -6 28 -27 2 -17 -2 -28 -8 -28 -7 0 -10 -7 -6 -15
3 -8 2 -15 -2 -15 -4 0 -18 -3 -31 -7 -16 -4 -22 -3 -18 5 4 5 -4 19 -18 29
-14 10 -28 31 -31 47 -9 52 -23 66 -24 23 0 -39 -6 -46 -69 -95 -22 -17 -23
-22 -16 -86 5 -44 12 -69 22 -73 24 -9 26 5 10 64 l-17 58 35 34 c31 31 37 34
62 25 17 -6 27 -17 27 -27 -1 -9 5 -17 13 -17 15 0 14 -14 -3 -72 -4 -14 0
-18 18 -18 16 0 19 3 10 9 -9 6 -11 19 -7 44 8 40 25 52 51 33 22 -16 12 -66
-13 -66 -13 0 -14 -3 -6 -11 9 -9 6 -16 -10 -30 -13 -11 -17 -18 -9 -19 10 0
10 -5 2 -20 -6 -11 -15 -18 -20 -15 -5 3 -11 -4 -15 -15 -9 -29 -66 -69 -122
-86 -46 -14 -49 -14 -66 7 -17 21 -17 23 1 43 34 37 33 44 -4 25 -25 -12 -43
-15 -58 -9 -13 4 -28 5 -35 0 -9 -5 -4 -10 14 -14 31 -8 55 -28 55 -47 0 -15
-61 -7 -114 15 -31 13 -37 20 -33 36 4 17 2 20 -15 14 -13 -4 -28 2 -44 17
-22 20 -23 25 -10 44 13 20 13 24 -2 40 -16 16 -15 17 26 13 37 -3 42 -1 42
17 0 12 16 36 34 54 33 32 38 33 83 27 l48 -6 -40 24 c-32 20 -42 33 -51 70
-11 43 -10 49 12 82 25 36 21 36 -28 2 -37 -25 -66 -23 -80 7 -14 31 0 44 77
74 66 26 66 26 92 -14z m-186 -67 c9 -16 9 -23 0 -26 -6 -2 -11 -10 -11 -17 0
-11 -6 -12 -31 -3 -36 12 -46 32 -29 53 19 22 57 18 71 -7z m480 12 c32 -18
24 -53 -14 -66 -30 -9 -35 -8 -44 12 -8 18 -7 27 9 43 22 24 23 24 49 11z
m-390 -72 c23 -42 16 -94 -16 -128 -16 -16 -39 -30 -51 -30 -17 0 -21 -4 -17
-21 5 -19 2 -20 -43 -17 -42 3 -49 6 -52 25 -2 14 5 27 21 37 16 11 28 33 37
71 11 44 18 57 44 69 43 21 63 20 77 -6z m-139 -24 c-4 -23 -19 -40 -28 -31
-4 3 -3 18 0 32 8 30 33 28 28 -1z m-19 -64 c-6 -21 -36 -35 -53 -25 -5 3 -10
15 -10 26 0 15 7 19 34 19 29 0 33 -3 29 -20z m625 -12 c3 -14 -4 -18 -30 -18
-27 0 -34 4 -34 20 0 17 6 20 31 18 19 -2 31 -9 33 -20z m-614 -145 c5 -18 2
-31 -8 -42 -15 -14 -18 -14 -33 1 -15 16 -15 19 1 42 21 33 32 33 40 -1z m578
-8 c9 -21 9 -29 -3 -40 -13 -13 -18 -13 -34 -1 -18 13 -18 17 -6 40 18 33 28
33 43 1z"/>
<path d="M3810 4409 c0 -5 5 -7 10 -4 6 3 10 8 10 11 0 2 -4 4 -10 4 -5 0 -10
-5 -10 -11z"/>
<path d="M4165 4400 c-13 -6 -15 -9 -5 -9 8 0 22 4 30 9 18 12 2 12 -25 0z"/>
<path d="M3023 7529 c-10 -12 -48 -55 -84 -95 -216 -237 -369 -433 -369 -474
0 -35 124 -106 300 -172 114 -43 241 -108 335 -171 l60 -41 575 -10 c316 -6
618 -10 670 -10 217 0 210 18 -100 285 -154 132 -257 231 -386 372 -108 117
-121 121 -184 50 -23 -27 -56 -67 -73 -91 l-31 -42 -24 22 c-13 13 -35 39 -47
58 -13 19 -55 70 -95 113 -101 109 -116 107 -219 -36 l-43 -58 -64 93 c-72
104 -155 203 -184 218 -16 8 -23 6 -37 -11z m113 -151 c71 -93 305 -390 325
-412 6 -6 9 -6 9 0 0 6 -34 64 -75 129 -42 65 -75 120 -73 124 2 3 34 35 71
70 67 64 68 64 86 45 10 -10 69 -75 131 -144 106 -117 392 -400 405 -400 11 0
-6 22 -138 178 -71 84 -127 156 -125 161 2 4 32 40 68 78 l65 70 335 -328 335
-327 -245 -1 c-135 -1 -353 -6 -485 -11 -131 -6 -316 -8 -409 -5 -160 6 -172
7 -196 29 -59 54 -116 87 -343 201 -133 66 -242 125 -244 130 -2 6 50 73 114
151 65 77 158 190 208 252 49 62 93 112 97 112 4 0 42 -46 84 -102z m222 -785
c-16 -2 -40 -2 -55 0 -16 2 -3 4 27 4 30 0 43 -2 28 -4z"/>
<path d="M3931 6073 c-48 -20 -77 -52 -86 -98 -5 -26 -3 -24 13 11 26 54 55
64 168 61 100 -3 118 -11 140 -62 7 -16 13 -23 14 -15 0 28 -38 77 -74 94 -54
26 -123 29 -175 9z"/>
<path d="M4145 5890 c-22 -23 -25 -30 -12 -30 9 0 20 7 25 16 29 52 46 -84 19
-149 -16 -36 -64 -97 -78 -97 -5 0 -9 17 -9 38 0 47 -34 122 -55 122 -29 0
-28 -29 4 -65 39 -45 41 -92 6 -152 -30 -54 -24 -55 13 -4 28 39 122 118 122
103 0 -4 12 17 26 47 28 59 29 112 3 166 -19 39 -30 40 -64 5z"/>
<path d="M3811 5884 c-6 -15 -14 -46 -18 -70 -7 -57 24 -123 80 -166 l42 -32
-26 30 c-15 16 -34 43 -43 60 -17 35 -23 125 -12 162 l8 24 19 -21 c11 -12 25
-21 31 -21 7 0 -1 14 -17 30 -35 37 -48 38 -64 4z"/>
<path d="M3940 5750 c-28 -55 -26 -120 5 -170 34 -54 38 -50 9 7 -34 66 -30
96 19 150 19 21 18 53 -2 53 -6 0 -20 -18 -31 -40z"/>
<path d="M3965 5641 c-7 -12 12 -24 25 -16 11 7 4 25 -10 25 -5 0 -11 -4 -15
-9z"/>
<path d="M3730 5445 c0 -4 13 -26 30 -50 28 -40 60 -71 108 -104 11 -8 23 -27
26 -43 4 -23 11 -28 35 -28 15 0 34 -7 41 -15 7 -8 23 -15 35 -15 12 0 28 7
35 15 7 8 25 15 40 15 23 0 30 5 35 30 4 17 11 30 16 30 5 0 9 7 9 15 0 8 8
15 19 15 21 0 82 63 106 110 l16 31 -33 -17 c-18 -9 -43 -25 -55 -37 -19 -17
-25 -18 -38 -7 -23 19 -37 -4 -31 -49 5 -31 4 -32 -13 -17 -21 19 -31 12 -31
-21 0 -22 -3 -24 -30 -18 -28 6 -30 5 -30 -22 0 -15 -4 -35 -10 -43 -7 -11
-11 -8 -20 15 -6 15 -8 35 -5 43 4 10 -2 12 -25 7 -26 -6 -30 -4 -30 14 0 27
-17 36 -37 19 -15 -12 -16 -10 -9 15 3 15 2 36 -4 47 -9 17 -14 18 -32 9 -17
-9 -23 -8 -30 5 -9 16 -88 62 -88 51z"/>
<path d="M3408 4264 c-241 -35 -481 -122 -579 -211 -47 -42 -79 -102 -78 -148
0 -29 0 -28 14 10 51 145 404 305 781 354 l69 8 -55 1 c-30 0 -99 -6 -152 -14z"/>
<path d="M4450 4269 c190 -24 442 -97 567 -164 157 -82 218 -151 218 -241 0
-59 -20 -94 -76 -133 -28 -19 -30 -22 -9 -16 83 25 120 118 90 225 -42 152
-319 282 -700 329 -46 6 -100 10 -120 10 -22 -1 -12 -5 30 -10z"/>
<path d="M3543 4156 c-57 -30 -154 -88 -215 -128 -110 -72 -298 -221 -298
-236 0 -4 -15 -23 -33 -42 -33 -36 -67 -116 -67 -158 0 -42 28 -90 61 -107 32
-17 101 -17 142 0 14 6 17 2 17 -21 0 -67 85 -155 164 -169 38 -8 87 6 118 33
16 13 22 11 63 -27 44 -41 64 -47 129 -42 30 3 96 46 96 62 0 5 -13 0 -28 -11
-43 -32 -103 -37 -144 -12 -18 11 -44 32 -58 47 -24 25 -24 26 -7 73 21 57 21
78 1 37 -8 -16 -12 -21 -8 -10 24 84 50 143 100 225 56 92 194 368 194 386 0
5 -25 -37 -54 -93 -30 -56 -101 -174 -160 -263 -112 -172 -129 -212 -124 -293
3 -48 1 -52 -31 -74 -60 -40 -131 -26 -185 37 -40 48 -35 91 22 202 66 129
180 278 361 473 64 69 61 67 -20 -15 -141 -141 -363 -405 -395 -467 -16 -33
-37 -58 -51 -64 -36 -14 -125 -10 -146 5 -25 20 -35 64 -25 111 28 125 243
323 550 507 138 83 144 87 138 87 -3 0 -51 -24 -107 -53z"/>
<path d="M4430 4158 c398 -244 590 -423 607 -566 5 -45 3 -53 -20 -76 -22 -22
-35 -26 -81 -26 -75 0 -97 12 -130 75 -24 46 -278 355 -291 355 -3 0 27 -39
65 -86 39 -48 88 -112 109 -143 35 -53 46 -72 92 -163 11 -21 19 -58 19 -86 0
-41 -5 -53 -32 -81 -56 -57 -121 -67 -179 -28 -34 23 -34 24 -31 88 5 84 -2
100 -127 288 -57 85 -116 182 -133 214 -16 32 -32 57 -34 54 -8 -7 88 -194
162 -317 52 -87 64 -115 65 -151 0 -31 3 -38 8 -25 7 18 8 18 14 -5 10 -34 8
-46 -3 -29 -16 25 -12 -10 4 -40 20 -35 -1 -72 -59 -106 -38 -22 -53 -25 -88
-20 -23 4 -53 14 -67 22 -20 12 -19 10 5 -11 65 -55 142 -50 207 15 35 35 39
36 53 20 8 -9 33 -23 55 -30 53 -17 107 -1 161 47 49 44 68 79 63 117 -2 25 0
27 19 21 50 -15 108 -17 137 -5 59 24 81 120 45 190 -9 17 -15 34 -12 36 7 8
-118 136 -188 193 -91 72 -248 177 -354 235 -86 48 -122 62 -61 24z"/>
<path d="M4071 3983 c-3 -118 38 -282 115 -458 49 -111 54 -157 25 -220 -18
-40 -72 -95 -93 -95 -6 0 -9 -3 -6 -6 11 -11 87 36 110 68 20 29 23 44 22 118
-1 72 -6 100 -38 185 -95 255 -117 321 -125 383 -7 54 -9 59 -10 25z"/>
<path d="M4460 3975 c13 -14 26 -25 28 -25 3 0 -5 11 -18 25 -13 14 -26 25
-28 25 -3 0 5 -11 18 -25z"/>
<path d="M2910 3934 c-36 -25 -90 -104 -72 -104 11 0 88 84 103 113 12 21 11
21 -31 -9z"/>
<path d="M2964 3888 c-33 -35 -69 -74 -79 -88 -19 -23 -19 -23 13 3 30 25 139
147 130 147 -2 0 -31 -28 -64 -62z"/>
<path d="M5068 3923 c11 -16 37 -44 57 -63 l37 -35 -21 42 c-18 36 -66 83 -86
83 -3 0 3 -12 13 -27z"/>
<path d="M3907 3901 c-4 -24 -26 -92 -48 -150 -103 -267 -126 -360 -107 -428
11 -40 51 -89 89 -108 42 -22 46 -18 8 8 -45 31 -75 77 -83 131 -6 40 0 63 58
208 64 161 101 299 94 355 -3 24 -4 21 -11 -16z"/>
<path d="M5039 3862 c57 -66 80 -87 63 -56 -6 11 -34 42 -63 69 l-53 50 53
-63z"/>
<path d="M2995 3843 c-22 -26 -49 -59 -60 -73 l-20 -25 35 22 c20 12 47 43 63
72 16 28 27 51 25 51 -2 0 -22 -21 -43 -47z"/>
<path d="M4980 3841 c19 -38 68 -86 78 -77 4 5 -86 116 -94 116 -3 0 5 -18 16
-39z"/>
<path d="M2750 3838 c-1 -40 53 -118 82 -118 4 0 -5 12 -22 28 -17 15 -37 45
-45 67 -8 22 -14 32 -15 23z"/>
<path d="M3172 3655 c-56 -78 -59 -102 -6 -43 20 21 79 128 71 128 -1 0 -31
-38 -65 -85z"/>
<path d="M4790 3673 c16 -32 44 -69 62 -83 17 -13 27 -18 22 -9 -18 31 -106
149 -110 149 -2 0 9 -26 26 -57z"/>
<path d="M4835 3720 c42 -71 85 -130 80 -110 -8 29 -50 94 -73 112 -13 11 -14
11 -7 -2z"/>
<path d="M3123 3688 c-17 -18 -35 -48 -41 -65 -17 -52 -13 -47 62 70 24 36 17
34 -21 -5z"/>
<path d="M2903 3703 c9 -2 25 -2 35 0 9 3 1 5 -18 5 -19 0 -27 -2 -17 -5z"/>
<path d="M5068 3703 c12 -2 30 -2 40 0 9 3 -1 5 -23 4 -22 0 -30 -2 -17 -4z"/>
<path d="M3391 3540 c-22 -31 -51 -102 -51 -124 1 -6 19 24 41 68 43 83 47
105 10 56z"/>
<path d="M3677 3553 c-3 -10 -14 -43 -25 -73 -11 -30 -23 -71 -26 -90 -6 -32
-4 -30 22 20 16 30 32 79 36 108 7 51 3 68 -7 35z"/>
<path d="M3322 3537 c-24 -26 -42 -69 -42 -100 0 -22 1 -22 20 3 19 24 53 110
47 117 -2 1 -13 -7 -25 -20z"/>
<path d="M4580 3553 c1 -5 17 -37 36 -73 29 -56 34 -60 28 -30 -7 44 -66 138
-64 103z"/>
<path d="M4655 3520 c8 -25 26 -58 39 -75 l24 -30 -8 44 c-5 28 -19 54 -39 75
l-31 31 15 -45z"/>
<path d="M3592 3498 c-29 -51 -56 -128 -48 -136 8 -8 58 90 71 138 7 27 12 50
10 50 -2 0 -17 -24 -33 -52z"/>
<path d="M4315 3508 c4 -41 47 -148 59 -148 7 0 -30 121 -48 160 l-16 35 5
-47z"/>
<path d="M4376 3513 c9 -39 38 -104 58 -128 16 -19 16 -19 10 10 -7 34 -54
134 -66 141 -5 3 -6 -7 -2 -23z"/>
<path d="M3922 3345 c0 -104 2 -132 9 -110 13 40 13 182 1 220 -8 23 -10 -3
-10 -110z"/>
<path d="M4055 3415 c-4 -31 -3 -90 2 -133 l10 -77 2 133 c0 72 -1 132 -3 132
-3 0 -8 -25 -11 -55z"/>
<path d="M4068 3193 c6 -2 18 -2 25 0 6 3 1 5 -13 5 -14 0 -19 -2 -12 -5z"/>
<path d="M3353 2583 c-30 -6 -79 -56 -87 -89 -8 -30 -8 -29 21 -38 19 -6 25
-2 34 21 18 47 39 63 84 63 76 0 108 -66 65 -135 -11 -18 -51 -59 -88 -91 -93
-81 -131 -129 -132 -166 0 -16 14 -18 151 -18 l150 0 -3 28 -3 27 -108 5 -108
5 97 89 c125 116 149 171 104 244 -31 51 -95 71 -177 55z"/>
<path d="M3710 2583 c-61 -24 -100 -111 -100 -222 1 -172 71 -261 181 -231 78
22 113 96 112 236 0 103 -23 171 -67 199 -28 18 -100 29 -126 18z m89 -53 c33
-17 46 -69 46 -180 0 -85 -4 -111 -18 -133 -40 -61 -108 -60 -139 3 -21 41
-25 210 -7 257 22 58 69 80 118 53z"/>
<path d="M4095 2542 c-27 -27 -58 -53 -68 -59 -13 -6 -18 -18 -15 -37 l3 -27
48 31 c26 16 50 30 52 30 3 0 5 -79 5 -175 l0 -175 25 0 25 0 0 230 c0 177 -3
230 -12 230 -7 0 -35 -22 -63 -48z"/>
<path d="M4415 2576 c-58 -26 -88 -81 -100 -182 -18 -159 43 -265 153 -267 89
-1 142 56 142 153 0 90 -49 144 -130 144 -32 0 -56 -7 -78 -23 l-32 -22 0 28
c1 39 34 109 60 123 38 20 83 9 105 -27 13 -22 27 -32 40 -30 47 5 19 78 -40
103 -42 17 -81 17 -120 0z m90 -206 c16 -6 32 -24 41 -47 45 -106 -60 -201
-137 -124 -24 24 -29 38 -29 76 0 38 5 52 29 76 31 31 53 35 96 19z"/>
<path d="M0 1725 l0 -1725 1991 0 c1897 0 1990 1 1971 18 -11 9 -75 96 -143
192 -870 1245 -1599 1939 -2797 2664 -281 169 -778 451 -989 560 l-33 17 0
-1726z"/>
<path d="M7820 3344 c-1207 -657 -1868 -1121 -2495 -1749 -405 -405 -719 -793
-1228 -1517 -26 -36 -52 -69 -59 -71 -7 -3 881 -6 1975 -6 l1987 -1 0 1720 c0
946 -1 1720 -2 1720 -2 -1 -82 -44 -178 -96z"/>
</g>
</svg>
