<?xml version="1.0" encoding="UTF-8" standalone="no"?>
<svg
   xmlns:dc="http://purl.org/dc/elements/1.1/"
   xmlns:cc="http://creativecommons.org/ns#"
   xmlns:rdf="http://www.w3.org/1999/02/22-rdf-syntax-ns#"
   xmlns:svg="http://www.w3.org/2000/svg"
   xmlns="http://www.w3.org/2000/svg"
   viewBox="0 0 256 256"
   height="256"
   width="256"
   xml:space="preserve"
   id="svg2"
   version="1.1"><metadata
     id="metadata8"><rdf:RDF><cc:Work
         rdf:about=""><dc:format>image/svg+xml</dc:format><dc:type
           rdf:resource="http://purl.org/dc/dcmitype/StillImage" /></cc:Work></rdf:RDF></metadata><defs
     id="defs6"><clipPath
       id="clipPath18"
       clipPathUnits="userSpaceOnUse"><path
         id="path16"
         d="M 0,192 H 192 V 0 H 0 Z" /></clipPath></defs><g
     transform="matrix(1.3333333,0,0,-1.3333333,0,256)"
     id="g10"><g
       id="g12"><g
         clip-path="url(#clipPath18)"
         id="g14"><g
           transform="translate(29.6572,157.7397)"
           id="g20"><path
             id="path22"
             style="fill:#f1e705;fill-opacity:1;fill-rule:evenodd;stroke:none"
             d="m 0,0 c 14.85,-14.45 8.568,-40.92 3.039,-59.6 -2.93,-7.754 -5.295,-16.745 -5.166,-26.443 0.427,-32.137 29.413,-51.184 68.47,-65.846 39.056,14.662 68.042,33.709 68.469,65.846 0.129,9.698 -2.236,18.689 -5.166,26.443 -5.529,18.68 -11.811,45.15 3.04,59.6 -1.964,4.841 -5.804,13.305 -8.131,18.336 C 105.86,17.214 82.598,20.563 66.343,28.41 50.087,20.563 26.825,17.214 8.13,18.336 5.803,13.305 1.963,4.841 0,0" /></g><g
           transform="translate(41.4219,138.1631)"
           id="g24"><path
             id="path26"
             style="fill:#000000;fill-opacity:1;fill-rule:evenodd;stroke:none"
             d="m 0,0 c 1.478,-13.579 -2.408,-28.825 -5.965,-40.841 l -0.03,-0.101 -0.037,-0.099 c -3.07,-8.125 -5.096,-16.658 -4.981,-25.387 0.086,-6.415 1.387,-12.579 4.053,-18.421 4.949,-10.848 14.246,-19.586 25.021,-26.665 V 0 Z m 37.095,-121.949 c 5.997,-2.787 11.96,-5.195 17.483,-7.286 5.626,2.13 11.708,4.589 17.818,7.444 V 0 H 37.095 Z m 54,10.435 c 10.775,7.079 20.072,15.817 25.021,26.665 2.666,5.842 3.967,12.006 4.053,18.421 0.115,8.729 -1.911,17.262 -4.981,25.387 l -0.038,0.099 -0.029,0.101 c -2.066,6.98 -3.935,14.046 -5.106,21.237 -1.033,6.338 -1.566,13.103 -0.859,19.604 H 91.095 Z" /></g><g
           transform="translate(96,114.4839)"
           id="g28"><path
             id="path30"
             style="fill:#f1e705;fill-opacity:1;fill-rule:evenodd;stroke:none"
             d="M 0,0 C 15.091,0 27.324,-12.233 27.324,-27.325 27.324,-42.417 15.091,-54.65 0,-54.65 c -15.092,0 -27.325,12.233 -27.325,27.325 C -27.325,-12.233 -15.092,0 0,0" /></g><g
           transform="translate(29.6572,157.7397)"
           id="g32"><path
             id="path34"
             style="fill:#000000;fill-opacity:1;fill-rule:evenodd;stroke:none"
             d="m 0,0 c 14.85,-14.45 8.568,-40.92 3.039,-59.6 -2.93,-7.754 -5.295,-16.745 -5.166,-26.443 0.427,-32.137 29.413,-51.184 68.47,-65.846 39.056,14.662 68.042,33.709 68.469,65.846 0.129,9.698 -2.236,18.689 -5.166,26.443 -5.529,18.68 -11.811,45.15 3.04,59.6 -1.964,4.841 -5.804,13.305 -8.131,18.336 C 105.86,17.214 82.598,20.563 66.343,28.41 50.087,20.563 26.825,17.214 8.13,18.336 5.803,13.305 1.963,4.841 0,0 m 128.785,-59.892 0.011,-0.028 c 3.151,-8.333 5.226,-17.161 5.107,-26.111 -0.089,-6.68 -1.453,-13.128 -4.229,-19.213 -10.583,-23.194 -40.02,-36.848 -62.634,-45.411 l -0.697,-0.264 -0.698,0.264 c -22.615,8.563 -52.051,22.217 -62.633,45.411 -2.777,6.085 -4.141,12.533 -4.23,19.213 -0.119,8.95 1.956,17.778 5.107,26.111 l 0.011,0.028 0.009,0.03 c 4.604,15.675 10.069,37.536 2.288,52.916 -1.149,2.271 -2.58,4.379 -4.284,6.269 l -0.834,0.925 0.479,1.15 c 2.071,4.983 4.317,9.892 6.58,14.789 l 0.554,1.199 1.32,-0.057 c 17.698,-0.763 39.351,2.257 55.507,9.688 l 0.824,0.378 0.823,-0.378 c 16.156,-7.431 37.809,-10.451 55.507,-9.688 l 1.32,0.057 0.554,-1.199 c 2.263,-4.897 4.509,-9.806 6.581,-14.788 l 0.478,-1.151 -0.835,-0.925 c -9.247,-10.25 -9.136,-25.357 -7.047,-38.188 1.158,-7.111 3.023,-14.091 5.052,-20.997 z" /></g><g
           transform="translate(152.415,173.1001)"
           id="g36"><path
             id="path38"
             style="fill:#000000;fill-opacity:1;fill-rule:evenodd;stroke:none"
             d="M 0,0 C -18.032,-0.777 -40.075,2.351 -56.415,9.866 -72.755,2.351 -94.799,-0.777 -112.831,0 c -2.244,-4.857 -4.497,-9.782 -6.55,-14.718 1.818,-2.017 3.345,-4.262 4.578,-6.699 1.831,-3.619 2.967,-7.559 3.574,-11.675 H -1.601 c 0.995,6.749 3.427,13.138 8.151,18.374 C 4.498,-9.781 2.244,-4.857 0,0 m -56.415,8.882 c -16.35,-7.416 -37.945,-10.485 -55.854,-9.8 -2.084,-4.515 -4.149,-9.041 -6.07,-13.627 1.709,-1.968 3.157,-4.14 4.335,-6.468 1.779,-3.516 2.904,-7.304 3.542,-11.184 H -2.367 c 1.072,6.535 3.493,12.613 7.875,17.653 -1.92,4.586 -3.986,9.111 -6.07,13.626 -17.909,-0.685 -39.503,2.384 -55.853,9.8" /></g><g
           transform="translate(96,114.4839)"
           id="g40"><path
             id="path42"
             style="fill:#000000;fill-opacity:1;fill-rule:evenodd;stroke:none"
             d="M 0,0 C 15.091,0 27.324,-12.233 27.324,-27.325 27.324,-42.417 15.091,-54.65 0,-54.65 c -15.092,0 -27.325,12.233 -27.325,27.325 C -27.325,-12.233 -15.092,0 0,0 m 0,-1.069 c 14.5,0 26.256,-11.755 26.256,-26.256 0,-14.501 -11.756,-26.256 -26.256,-26.256 -14.501,0 -26.256,11.755 -26.256,26.256 0,14.501 11.755,26.256 26.256,26.256" /></g><g
           transform="translate(96,112.7437)"
           id="g44"><path
             id="path46"
             style="fill:#000000;fill-opacity:1;fill-rule:evenodd;stroke:none"
             d="M 0,0 C 14.13,0 25.585,-11.454 25.585,-25.584 25.585,-39.715 14.13,-51.169 0,-51.169 c -14.13,0 -25.585,11.454 -25.585,25.585 C -25.585,-11.454 -14.13,0 0,0 m 0,-0.586 c 13.806,0 24.998,-11.193 24.998,-24.998 0,-13.806 -11.192,-24.999 -24.998,-24.999 -13.806,0 -24.998,11.193 -24.998,24.999 0,13.805 11.192,24.998 24.998,24.998" /></g><g
           transform="translate(111.8633,67.8301)"
           id="g48"><path
             id="path50"
             style="fill:#000000;fill-opacity:1;fill-rule:evenodd;stroke:none"
             d="m 0,0 c -4.316,-3.547 -9.841,-5.677 -15.863,-5.677 -3.659,0 -7.135,0.786 -10.266,2.198 0.998,0.892 2.759,2.418 3.589,2.84 2.177,1.107 0.213,4.507 -1.781,4.277 -1.09,-0.125 -3.186,-1.279 -4.151,-0.754 -0.964,0.523 -1.551,0.901 -1.614,2.62 -0.063,1.719 0.409,3.868 0.493,4.025 0.083,0.158 0.87,0.451 0.618,0.682 -0.252,0.23 -0.754,-0.199 -0.754,0.062 0,0.262 0.43,1.185 -0.147,1.112 -0.577,-0.074 -1.607,0.171 -1.918,0.974 -0.697,1.797 4.163,7.109 5.651,13.018 0.03,0.137 0.106,0.184 0.235,0.112 3.324,-1.867 8.029,-3.418 13.349,-4.218 2.399,-0.36 4.719,-0.538 6.883,-0.55 0.082,0 0.165,0.005 0.254,-0.173 0.593,-1.174 1.627,-3.455 2.714,-6.932 C -1.032,8.25 -2.289,7.307 -3.232,7.349 -4.176,7.391 -6.984,7.391 -8.075,6.531 -9.165,5.672 -7.761,3.952 -6.062,3.072 -4.628,2.328 -1.07,0.538 0,0 m -15.397,31.283 c 5.746,-1.313 10.404,-4.979 10.403,-8.188 0,-0.33 -0.068,-0.639 -0.146,-0.937 -0.027,-0.106 -0.164,-0.11 -0.359,-0.109 -7.361,0.041 -14.359,1.723 -19.966,4.85 -0.164,0.091 -0.321,0.197 -0.357,0.401 -0.205,1.138 1.22,3.018 2.818,5.178 1.693,2.29 3.595,4.861 4.427,5.883 0.922,1.132 2.725,2.097 2.935,1.908 0.21,-0.189 -0.838,-2.285 -1.467,-2.998 -0.487,-0.551 -2.705,-3.927 -3.684,-5.426 -0.062,-0.107 0.004,-0.167 0.094,-0.161 1.553,0.159 3.366,0.041 5.302,-0.401" /></g><g
           transform="translate(57.0601,164.3555)"
           id="g52"><path
             id="path54"
             style="fill:#000000;fill-opacity:1;fill-rule:nonzero;stroke:none"
             d="M 0,0 H -0.405 C -0.43,-0.759 -0.607,-1.114 -1.038,-1.114 -1.543,-1.114 -2.708,0 -5.086,0 c -4.758,0 -7.567,-4.834 -7.567,-9.364 0,-5.087 3.264,-8.655 7.87,-8.655 1.949,0 3.72,0.633 5.466,1.924 v 5.036 c 0,1.67 0.329,2.303 1.747,2.303 v 0.43 h -5.871 v -0.43 c 1.391,-0.026 1.746,-0.608 1.746,-2 v -5.111 c -0.987,-0.861 -2.05,-1.266 -3.24,-1.266 -3.543,0 -4.884,4.151 -4.884,8.098 0,4.935 1.974,8.149 5.062,8.149 2.201,0 4.377,-1.62 4.631,-4.555 h 0.43 z" /></g><g
           transform="translate(59.563,163.9756)"
           id="g56"><path
             id="path58"
             style="fill:#000000;fill-opacity:1;fill-rule:nonzero;stroke:none"
             d="m 0,0 v -0.43 c 1.569,0 1.974,-0.38 1.974,-2.278 v -9.135 c 0,-4.733 3.315,-5.796 5.82,-5.796 3.417,0 5.669,1.898 5.669,5.618 v 9.313 c 0,1.873 0.43,2.278 1.898,2.278 V 0 h -4.859 v -0.43 c 1.645,0 1.999,-0.405 1.999,-2.278 v -9.211 c 0,-3.037 -1.746,-4.834 -4.276,-4.834 -1.975,0 -3.872,1.088 -3.872,4.353 v 9.692 c 0,1.848 0.379,2.278 1.948,2.278 l 0,0.43 z" /></g><g
           transform="translate(79.3862,152.2334)"
           id="g60"><path
             id="path62"
             style="fill:#000000;fill-opacity:1;fill-rule:nonzero;stroke:none"
             d="M 0,0 H 5.805 L 6.767,-2.961 C 6.979,-3.615 7.02,-3.822 7.02,-4.1 7.02,-4.808 6.615,-5.087 5.552,-5.087 v -0.43 h 5.739 v 0.43 c -1.215,0 -1.476,0.099 -2.277,2.379 L 3.8,12.122 H 3.395 l -5.268,-14.83 c -0.661,-1.863 -1.012,-2.379 -2.252,-2.379 v -0.43 h 4.682 v 0.43 c -1.265,-0.025 -1.67,0.329 -1.67,0.987 0,0.178 0.03,0.435 0.126,0.759 z M 5.501,0.961 H 0.279 l 2.767,6.852 h 0.051 z" /></g><g
           transform="translate(95.4448,154.9155)"
           id="g64"><path
             id="path66"
             style="fill:#000000;fill-opacity:1;fill-rule:nonzero;stroke:none"
             d="m 0,0 h 1.165 l 5.429,-8.199 h 3.315 v 0.43 C 9.048,-7.819 8.692,-7.459 7.96,-6.377 L 3.442,0.304 C 6.074,0.81 7.617,2.582 7.617,4.733 7.617,7.036 5.745,9.06 2.455,9.06 H -4.631 V 8.63 c 1.822,0.025 2.252,-0.304 2.252,-2.303 V -5.466 c 0,-1.949 -0.329,-2.328 -2.252,-2.303 v -0.43 h 6.858 v 0.43 C 0.354,-7.794 0,-7.44 0,-5.466 Z m 0,0.81 v 7.01 c 0.48,0.228 1.038,0.354 1.62,0.354 1.873,0 3.163,-1.493 3.163,-3.695 0,-2.15 -1.468,-3.669 -3.847,-3.669 z" /></g><g
           transform="translate(121.1455,163.9756)"
           id="g68"><path
             id="path70"
             style="fill:#000000;fill-opacity:1;fill-rule:nonzero;stroke:none"
             d="m 0,0 v -0.43 c 0.76,0 1.164,-0.127 1.62,-0.759 l 0.708,-0.962 v -12.755 c 0,-1.417 -0.379,-1.898 -1.948,-1.923 v -0.43 h 5.34 v 0.43 c -1.924,-0.05 -2.43,0.253 -2.43,2.303 v 10.983 h 0.051 l 9.819,-13.995 h 0.354 v 15.311 c 0,1.316 0.456,1.797 1.772,1.797 V 0 H 10.3 v -0.43 c 1.822,0.025 2.253,-0.355 2.253,-2.278 v -9.743 H 12.502 L 3.746,0 Z" /></g><g
           transform="translate(136.9658,163.9756)"
           id="g72"><path
             id="path74"
             style="fill:#000000;fill-opacity:1;fill-rule:nonzero;stroke:none"
             d="m 0,0 v -0.43 c 1.696,0 2.126,-0.329 2.126,-2.278 v -11.818 c 0,-1.873 -0.38,-2.328 -2.126,-2.303 v -0.43 h 6.631 v 0.43 c -1.595,0 -2.126,0.203 -2.126,2.303 v 11.818 c 0,1.949 0.431,2.303 2.126,2.278 V 0 Z" /></g><g
           transform="translate(109.6367,152.2334)"
           id="g76"><path
             id="path78"
             style="fill:#000000;fill-opacity:1;fill-rule:nonzero;stroke:none"
             d="M 0,0 H 5.806 L 6.768,-2.961 C 6.979,-3.615 7.02,-3.822 7.02,-4.1 7.02,-4.808 6.615,-5.087 5.553,-5.087 v -0.43 h 5.738 v 0.43 c -1.215,0 -1.476,0.099 -2.277,2.379 L 3.8,12.122 H 3.396 l -5.268,-14.83 c -0.662,-1.863 -1.013,-2.379 -2.253,-2.379 v -0.43 h 4.683 v 0.43 c -1.266,-0.025 -1.671,0.329 -1.671,0.987 0,0.178 0.031,0.435 0.127,0.759 z M 5.502,0.961 H 0.279 l 2.767,6.852 h 0.051 z" /></g></g></g></g></svg>