<?xml version="1.0" encoding="UTF-8" standalone="no"?>
<!-- Created with Inkscape (http://www.inkscape.org/) -->

<svg
   version="1.1"
   id="svg2"
   xml:space="preserve"
   width="2560"
   height="1440"
   viewBox="0 0 2560 1440"
   sodipodi:docname="libertad.ai"
   xmlns:inkscape="http://www.inkscape.org/namespaces/inkscape"
   xmlns:sodipodi="http://sodipodi.sourceforge.net/DTD/sodipodi-0.dtd"
   xmlns="http://www.w3.org/2000/svg"
   xmlns:svg="http://www.w3.org/2000/svg"><defs
     id="defs6"><clipPath
       clipPathUnits="userSpaceOnUse"
       id="clipPath16"><path
         d="M 0,1080 H 1920 V 0 H 0 Z"
         id="path14" /></clipPath></defs><sodipodi:namedview
     id="namedview4"
     pagecolor="#ffffff"
     bordercolor="#666666"
     borderopacity="1.0"
     inkscape:pageshadow="2"
     inkscape:pageopacity="0.0"
     inkscape:pagecheckerboard="0" /><g
     id="g8"
     inkscape:groupmode="layer"
     inkscape:label="libertad"
     transform="matrix(1.3333333,0,0,-1.3333333,0,1440)"><g
       id="g10"><g
         id="g12"
         clip-path="url(#clipPath16)"><g
           id="g18"
           transform="translate(960.2905,156.3477)"><path
             d="m 0,0 c -79.588,0 -155.955,24.158 -220.848,69.858 -51.354,36.168 -93.048,84.256 -121.357,139.782 h -104.054 c -29.33,0 -55.676,11.023 -78.306,32.762 l -0.766,0.752 -23.775,23.843 c -4.452,4.407 -8.388,9.297 -11.714,14.552 -5.688,3.939 -11.219,8.514 -16.508,13.657 l -0.436,0.428 -23.739,23.774 c -4.503,4.435 -8.495,9.377 -11.866,14.695 -5.604,3.877 -11.078,8.38 -16.337,13.438 l -0.796,0.785 -23.382,23.509 c -4.627,4.54 -8.658,9.514 -12.038,14.839 -5.588,3.863 -11.04,8.336 -16.272,13.355 l -0.763,0.749 -23.657,23.716 c -23.089,22.729 -30.256,54.82 -18.535,83.59 11.49,28.219 39.613,47.182 69.979,47.182 h 311.417 C -279,685.047 -145.851,768.007 0,768.007 c 145.868,0 279.021,-82.972 343.76,-212.741 h 311.497 c 30.371,0 58.483,-18.991 69.951,-47.256 11.675,-28.77 4.472,-60.843 -18.798,-83.696 l -24.168,-24.285 c -5.237,-5.026 -10.689,-9.504 -16.272,-13.364 -3.389,-5.332 -7.431,-10.311 -12.074,-14.864 l -23.867,-23.936 c -5.321,-5.199 -10.894,-9.816 -16.634,-13.791 -3.365,-5.301 -7.367,-10.253 -11.957,-14.78 l -24.27,-24.335 c -5.236,-5.032 -10.695,-9.517 -16.287,-13.386 -3.339,-5.245 -7.326,-10.176 -11.904,-14.716 L 524.705,242.479 C 502.105,220.687 475.714,209.64 446.261,209.64 H 342.27 C 313.946,154.107 272.248,106.014 220.907,69.858 156.015,24.158 79.625,0 0,0"
             style="fill:#1c1c1b;fill-opacity:1;fill-rule:nonzero;stroke:none"
             id="path20" /></g><g
           id="g22"
           transform="translate(960.2905,181.6846)"><path
             d="m 0,0 c -74.338,0 -145.661,22.56 -206.259,65.237 -52.509,36.982 -93.653,86.57 -120.052,144.403 h -119.948 c -22.881,0 -42.754,8.406 -60.755,25.698 l -0.533,0.525 -23.617,23.686 c -4.446,4.404 -8.054,9.334 -10.743,14.58 -6.146,3.724 -12.036,8.341 -17.758,13.905 l -0.373,0.364 -23.536,23.575 c -4.514,4.447 -8.17,9.421 -10.89,14.713 -6.087,3.692 -11.951,8.269 -17.677,13.778 l -0.547,0.541 -23.342,23.472 c -4.572,4.466 -8.261,9.464 -10.994,14.79 -6.074,3.68 -11.923,8.233 -17.627,13.707 l -0.545,0.535 -23.479,23.54 c -15.803,15.557 -20.789,37.046 -13.01,56.141 7.648,18.783 26.342,31.402 46.515,31.402 h 327.464 C -270.499,632.803 -141.782,717.333 0,717.333 c 141.81,0 270.525,-84.53 327.712,-212.741 h 327.545 c 20.165,0 38.843,-12.637 46.473,-31.445 7.751,-19.102 2.74,-40.563 -13.073,-56.095 l -23.954,-24.078 c -5.713,-5.48 -11.559,-10.036 -17.626,-13.717 -2.741,-5.332 -6.44,-10.33 -11.021,-14.802 l -23.731,-23.803 c -5.728,-5.594 -11.641,-10.24 -17.83,-13.985 -2.709,-5.273 -6.353,-10.234 -10.853,-14.676 l -24.028,-24.099 c -5.703,-5.481 -11.546,-10.037 -17.611,-13.72 -2.703,-5.236 -6.343,-10.173 -10.875,-14.67 L 507.119,235.381 C 489.153,218.059 469.244,209.64 446.261,209.64 H 326.379 C 299.963,151.797 258.819,102.209 206.318,65.237 145.719,22.56 74.376,0 0,0"
             style="fill:#ffffff;fill-opacity:1;fill-rule:nonzero;stroke:none"
             id="path24" /></g><g
           id="g26"
           transform="translate(958.4956,671.2031)"><path
             d="M 0,0 C -40.017,0 -75.87,-17.98 -99.916,-46.334 H 99.917 C 75.918,-17.98 40.064,0 0,0 m -110.659,-61.084 c -12.764,-20.206 -20.157,-44.132 -20.157,-69.78 0,-72.282 58.535,-130.853 130.816,-130.853 72.305,0 130.901,58.571 130.901,130.853 0,25.648 -7.358,49.574 -20.17,69.78 V -190.417 L 0,-251.465 -110.659,-190.417 Z M 0,15.529 c 80.918,0 146.464,-65.535 146.464,-146.393 0,-80.848 -65.546,-146.381 -146.464,-146.381 -80.799,0 -146.308,65.533 -146.308,146.381 0,80.858 65.509,146.393 146.308,146.393 m -67.459,-72.677 v -144.753 l 44.658,-24.657 v 169.41 z m 90.309,0 v -169.41 l 44.671,24.657 v 144.753 z m 160.282,-162.854 6.579,16.461 c 3.302,8.112 7.49,12.717 12.465,13.829 4.953,1.222 11.007,0.336 18.233,-2.596 5.336,-2.129 9.427,-4.857 12.501,-8.181 5.551,-6.125 6.664,-13.4 3.255,-21.822 l -6.688,-16.472 z m -13.16,-75.822 -14.044,29.262 29.931,-12.19 z m -162.053,-35.112 22.277,2.333 c 4.114,0.418 7.285,0.311 9.414,-0.358 3.912,-1.209 6.077,-4.129 6.544,-8.77 0.431,-4.258 -1.196,-7.333 -4.845,-9.188 -2.106,-1.052 -5.216,-1.806 -9.534,-2.26 l -21.654,-2.273 z m -166.238,32.612 17.8,-14.428 c 3.075,-2.535 5.276,-4.832 6.484,-6.854 2.071,-3.662 1.878,-7.035 -0.573,-10.121 -3.027,-3.672 -6.569,-4.87 -10.851,-3.614 -2.297,0.731 -5.036,2.358 -8.159,4.895 l -17.502,14.223 z m 18.613,23.016 15.745,-12.715 c 3.444,-2.8 6.1,-5.432 7.824,-7.849 1.805,-3.003 1.627,-5.885 -0.575,-8.661 -2.021,-2.525 -4.426,-3.445 -7.249,-2.847 -2.681,0.586 -5.623,2.165 -8.793,4.725 l -17.598,14.213 z M 156.31,65.857 175.798,47.015 c 4.272,-4.151 7.525,-7.871 9.727,-11.173 2.345,-3.948 2.164,-7.334 -0.527,-10.086 -2.392,-2.464 -5.277,-3.05 -8.686,-1.662 -3.361,1.339 -6.902,3.911 -10.778,7.679 L 143.689,52.817 Z M 134.214,43.007 156.31,21.712 c 3.889,-3.78 6.484,-7.009 8.003,-9.677 2.668,-4.833 2.585,-8.781 -0.419,-11.856 -3.479,-3.648 -7.775,-4.21 -13.003,-1.698 -2.787,1.387 -6.209,3.972 -10.097,7.727 L 119.057,27.252 Z M -5,153.941 c 157.327,2.727 287.054,-122.549 289.77,-279.816 2.788,-157.292 -122.525,-287.02 -279.793,-289.771 -157.303,-2.716 -286.971,122.525 -289.71,279.805 C -287.449,21.461 -162.255,151.178 -5,153.941 m 7.979,-451.093 c 91.733,1.616 164.995,77.366 163.368,169.206 -1.627,91.841 -77.378,165.008 -169.265,163.392 -91.77,-1.602 -164.96,-77.365 -163.321,-169.217 1.531,-91.818 77.317,-164.996 169.218,-163.381 M 8.495,137.133 -1.16,87.546 C -2.787,78.98 -2.117,71.898 0.958,66.323 6.82,56.107 20.147,48.977 41.178,44.897 c 20.971,-4.067 35.925,-2.476 45.113,4.857 4.953,4.008 8.206,10.288 9.88,18.891 l 9.655,49.586 -25.673,4.989 -9.594,-49.599 C 69.399,68.082 67.675,64.218 65.211,62.029 61.228,58.093 54.146,57.147 43.917,59.121 33.581,61.119 27.348,64.696 25.195,69.817 c -1.544,2.954 -1.723,7.189 -0.622,12.74 l 9.689,49.588 z m -123.951,-26.773 24.034,-78.622 83.12,25.374 -4.366,14.14 -58.452,-17.86 -19.68,64.504 z M -209.57,20.218 c -2.44,-13.698 1.436,-25.565 11.748,-35.518 9.559,-9.225 20.577,-12.837 33.21,-10.827 12.442,2.034 24.859,9.439 37.194,22.191 9.976,10.312 16.138,20.708 18.386,31.188 2.442,10.528 1.149,19.691 -3.756,27.539 l -17.741,-18.363 c 1.83,-4.2 2.632,-7.968 2.285,-11.317 -0.455,-6.15 -3.816,-12.49 -10.049,-18.986 -6.162,-6.328 -12.873,-9.978 -20.074,-10.946 -7.345,-0.885 -14.296,1.878 -20.924,8.291 -6.627,6.411 -9.893,13.279 -9.75,20.684 0.144,7.381 3.47,14.463 9.989,21.198 6.389,6.627 12.466,10.372 18.304,11.281 3.242,0.479 6.879,-0.048 10.934,-1.579 l 17.85,18.555 c -3.889,3.277 -9.607,4.773 -16.881,4.498 -13.231,-0.598 -27.096,-8.362 -41.488,-23.28 C -201.075,43.689 -207.5,32.133 -209.57,20.218 m 395.095,-203.182 c -2.393,-3.146 -4.69,-7.321 -6.903,-12.585 l -14.883,-36.763 71.121,-28.758 14.883,36.761 c 5.191,12.909 4.665,24.249 -1.676,33.988 -4.713,7.225 -11.866,12.728 -21.33,16.556 -3.673,1.52 -7.896,2.549 -12.406,3.135 -4.57,0.586 -9.236,0.096 -13.96,-1.46 -5.814,-1.926 -10.863,-5.551 -14.846,-10.874 m -49.671,-79.434 33.651,-76.385 13.723,14.702 -7.119,15.434 23.149,24.811 15.552,-6.413 14.189,15.265 -78.36,28.471 z m -9.846,-12.91 -65.164,-36.175 6.532,-11.879 24.239,13.397 30.552,-55.197 16.964,9.355 -30.577,55.245 24.046,13.34 z m -78.251,-40.027 c -3.601,0.837 -8.554,0.956 -15.026,0.418 l -44.921,-4.75 8.003,-76.336 18.782,1.985 -3.219,29.944 19.812,2.046 c 5.562,0.622 9.499,0.216 11.712,-1.196 2.262,-1.423 3.685,-4.546 4.27,-9.416 l 0.814,-7.081 c 0.299,-2.224 0.813,-4.379 1.556,-6.46 0.322,-1.016 0.933,-2.334 1.722,-3.972 l 21.019,2.214 -0.251,1.914 c -1.913,0.754 -3.206,2.069 -3.876,3.971 -0.479,1.221 -0.921,3.577 -1.316,7.07 l -0.514,5.108 c -0.563,5.348 -1.866,9.235 -3.936,11.641 -2.011,2.392 -5.169,4.139 -9.499,5.095 4.882,1.987 8.206,4.834 10.073,8.531 1.843,3.756 2.5,7.453 2.118,11.089 -0.275,2.991 -1.088,5.611 -2.537,7.835 -1.448,2.227 -3.23,4.188 -5.442,5.935 -2.585,2.081 -5.804,3.554 -9.344,4.415 m -71.754,-18.4 4.235,12.932 -64.266,20.876 -23.772,-73.011 66.384,-21.534 4.258,13.1 -48.449,15.767 6.088,18.771 42.565,-13.842 4.091,12.669 -42.54,13.829 5.049,15.504 z m -73.323,30.746 c -0.251,7.117 -4.749,14.235 -13.434,21.461 l -34.741,28.149 -48.355,-59.611 32.408,-26.308 c 3.649,-2.942 7.297,-5.407 10.839,-7.381 3.577,-2.009 7.106,-3.217 10.563,-3.625 3.063,-0.383 6.005,-0.179 8.889,0.586 4.451,1.054 8.087,3.374 10.887,6.904 2.822,3.433 4.27,7.093 4.27,11.017 0.131,3.888 -1.244,7.86 -3.996,11.951 3.219,-0.933 6.005,-1.256 8.266,-1.016 3.924,0.442 7.393,2.475 10.313,6.112 2.932,3.542 4.235,7.453 4.091,11.761 m -114.414,14.068 62.1,45.102 -11.234,15.479 -62.1,-45.125 z m 25.625,114.905 -71.157,-28.735 24.225,-60.139 12.825,5.157 -17.048,42.313 58.368,23.567 z m 394.77,196.985 c -0.586,8.47 -6.292,18.017 -17.083,28.64 L 148.546,93.205 91.434,34.07 131.594,-4.761 c 4.511,-4.366 8.961,-8.159 13.339,-11.342 4.414,-3.218 8.734,-5.478 13.039,-6.818 3.697,-1.172 7.358,-1.639 10.756,-1.412 5.383,0.203 9.702,2.058 13.064,5.587 3.337,3.397 5,7.393 4.88,12.035 0,4.57 -1.674,9.618 -5.179,15.086 3.936,-1.843 7.308,-2.908 10.037,-3.135 4.857,-0.443 9.019,1.136 12.537,4.749 3.35,3.494 4.881,7.847 4.594,12.98 M 0,177.437 c -170.271,0 -308.301,-138.03 -308.301,-308.301 0,-170.272 138.03,-308.29 308.301,-308.29 170.259,0 308.291,138.018 308.291,308.29 C 308.291,39.407 170.259,177.437 0,177.437 m -309.294,-212.274 -337.24,0.12 c -6.005,0 -4.785,-4.869 -2.44,-6.938 l 18.998,-19.011 c 7.393,-7.105 15.168,-11.65 26.079,-11.65 h 285.391 c 2.286,12.788 5.348,25.289 9.212,37.479 m -8.59,-157.674 h -167.913 c -5.097,0 -7.011,-5.395 -3.314,-8.925 l 16.832,-16.867 c 7.357,-7.131 15.157,-11.664 26.019,-11.664 l 137.959,-0.108 c -3.924,12.227 -7.13,24.8 -9.583,37.564 m -5.766,52.578 h -215.527 c -4.989,0 -7.238,-4.473 -2.68,-8.997 l 17,-16.819 c 7.43,-7.13 15.145,-11.663 26.056,-11.663 h 178.309 c -1.71,12.273 -2.87,24.787 -3.158,37.479 m 2.788,52.542 h -271.826 c -3.05,0 -6.424,-3.109 -3.253,-7.07 l 18.506,-18.734 c 7.405,-7.13 15.252,-11.676 26.127,-11.676 h 227.515 c 0.239,12.704 1.22,25.206 2.931,37.48 m 639.415,15.075 H 603.91 c 10.934,0 18.674,4.545 26.055,11.65 l 19.058,19.011 c 2.309,2.069 3.553,6.938 -2.44,6.938 l -337.241,-0.12 c 3.852,-12.19 6.914,-24.691 9.211,-37.479 m 5.289,-52.555 h 227.55 c 10.85,0 18.65,4.546 26.032,11.676 l 18.626,18.734 c 3.158,3.961 -0.251,7.07 -3.374,7.07 H 320.958 c 1.639,-12.274 2.621,-24.776 2.884,-37.48 m -3.326,-52.541 h 178.311 c 10.933,0 18.71,4.533 26.054,11.663 l 17.025,16.819 c 4.509,4.524 2.249,8.997 -2.693,8.997 H 323.747 c -0.336,-12.692 -1.436,-25.206 -3.231,-37.479 m -12.119,-52.663 137.862,0.108 c 10.852,0 18.676,4.533 26.057,11.664 l 16.88,16.867 c 3.767,3.53 1.734,8.925 -3.338,8.925 h -167.83 c -2.537,-12.764 -5.719,-25.337 -9.631,-37.564 m -4.14,210.312 h 350.998 c 11.425,0 22.611,-14.619 8.877,-27.958 l -23.554,-23.687 c -6.915,-6.639 -14.201,-11.532 -22.755,-14.045 0.587,-4.546 -1.005,-9.774 -6.234,-14.81 l -23.614,-23.687 c -6.808,-6.652 -14.141,-11.532 -22.741,-14.056 0.598,-4.546 -1.017,-9.787 -6.15,-14.81 l -23.604,-23.687 c -6.914,-6.64 -14.259,-11.545 -22.753,-14.058 0.526,-4.569 -1.112,-9.773 -6.221,-14.81 l -23.567,-23.687 c -10.324,-9.954 -21.558,-15.983 -36.68,-15.983 H 303.169 C 256.932,-367.543 138.701,-454.682 0,-454.682 c -138.604,0 -256.896,87.139 -303.098,209.641 H -446.26 c -15.025,0 -26.258,6.029 -36.618,15.983 l -23.616,23.687 c -5.084,5.037 -6.771,10.241 -6.149,14.81 -8.577,2.513 -15.91,7.418 -22.742,14.058 l -23.65,23.687 c -5.145,5.023 -6.772,10.264 -6.221,14.81 -8.577,2.524 -15.816,7.404 -22.73,14.056 l -23.556,23.687 c -5.228,5.036 -6.783,10.264 -6.173,14.81 -8.565,2.513 -15.898,7.406 -22.814,14.045 l -23.627,23.687 c -13.661,13.339 -2.523,27.958 8.985,27.958 h 350.913 c 45.364,124.129 164.505,212.74 304.258,212.74 139.85,0 258.918,-88.611 304.257,-212.74"
             style="fill:#1c1c1b;fill-opacity:1;fill-rule:nonzero;stroke:none"
             id="path28" /></g><g
           id="g30"
           transform="translate(761.5371,561.3101)"><path
             d="M 0,0 -14.786,10.779 -29.668,0 -23.997,17.442 -38.82,28.221 h 18.328 l 5.706,17.419 5.61,-17.419 H 9.212 L -5.611,17.442 Z"
             style="fill:#ffffff;fill-opacity:1;fill-rule:nonzero;stroke:none"
             id="path32" /></g><g
           id="g34"
           transform="translate(1204.9863,561.3101)"><path
             d="M 0,0 -14.751,10.779 -29.621,0 l 5.694,17.442 -14.882,10.779 h 18.388 l 5.67,17.419 5.622,-17.419 H 9.235 L -5.647,17.442 Z"
             style="fill:#ffffff;fill-opacity:1;fill-rule:nonzero;stroke:none"
             id="path36" /></g></g></g></g></svg>
