<?xml version="1.0" encoding="UTF-8" standalone="no"?>
<svg
   xmlns:dc="http://purl.org/dc/elements/1.1/"
   xmlns:cc="http://creativecommons.org/ns#"
   xmlns:rdf="http://www.w3.org/1999/02/22-rdf-syntax-ns#"
   xmlns:svg="http://www.w3.org/2000/svg"
   xmlns="http://www.w3.org/2000/svg"
   viewBox="0 0 257.33334 257.33334"
   height="257.33334"
   width="257.33334"
   xml:space="preserve"
   id="svg2"
   version="1.1"><metadata
     id="metadata8"><rdf:RDF><cc:Work
         rdf:about=""><dc:format>image/svg+xml</dc:format><dc:type
           rdf:resource="http://purl.org/dc/dcmitype/StillImage" /></cc:Work></rdf:RDF></metadata><defs
     id="defs6" /><g
     transform="matrix(1.3333333,0,0,-1.3333333,0,257.33333)"
     id="g10"><g
       transform="scale(0.1)"
       id="g12"><path
         id="path14"
         style="fill:#ffffff;fill-opacity:1;fill-rule:evenodd;stroke:none"
         d="M 0,1927.56 H 1927.56 V 0 H 0 v 1927.56" /><path
         id="path16"
         style="fill:#ed1c24;fill-opacity:1;fill-rule:evenodd;stroke:none"
         d="M 963.777,1842.52 C 712.887,1633.36 458.074,1528.49 164.164,1559.32 161.23,847.906 381.828,335.277 963.777,85.0391 1545.73,335.277 1766.32,847.906 1763.39,1559.32 c -293.91,-30.83 -548.72,74.04 -799.613,283.2" /><path
         id="path18"
         style="fill:#ffffff;fill-opacity:1;fill-rule:evenodd;stroke:none"
         d="m 910.387,1763.45 -24.074,-17.74 -24.125,-17.12 -24.219,-16.48 -24.297,-15.84 -24.395,-15.17 -24.472,-14.54 -24.61,-13.86 -24.699,-13.2 -24.836,-12.5 -24.953,-11.82 -25.078,-11.13 -25.215,-10.42 -25.375,-9.72 -25.5,-9 -25.656,-8.28 -25.82,-7.55 -25.989,-6.79 -26.136,-6.08 -26.329,-5.3 -26.492,-4.54 -26.679,-3.77 -26.844,-3.02 -27.043,-2.21 -27.227,-1.46 -27.437,-0.63 -27.614,0.14 -27.835,0.96 -24.313,1.52 0.207,-34.22 1.691,-64.34 3.055,-63.11 4.41,-61.86 5.821,-60.63 7.214,-59.36 8.661,-58.1 10.105,-56.79 11.602,-55.53 13.089,-54.194 14.618,-52.899 16.152,-51.57 17.734,-50.234 19.297,-48.903 20.926,-47.551 22.539,-46.214 24.219,-44.829 25.883,-43.48 27.59,-42.106 29.312,-40.742 31.086,-39.351 32.863,-37.985 34.699,-36.597 36.524,-35.207 38.418,-33.801 40.332,-32.402 42.285,-30.997 44.25,-29.574 46.266,-28.133 48.304,-26.699 50.395,-25.238 41.105,-18.621 41.103,18.621 50.4,25.238 48.31,26.699 46.26,28.133 44.25,29.574 42.28,30.997 40.33,32.402 38.42,33.801 36.53,35.207 34.7,36.597 32.86,37.985 31.09,39.351 29.31,40.742 27.59,42.106 25.88,43.48 24.22,44.829 22.54,46.214 20.93,47.551 19.29,48.903 17.73,50.234 16.16,51.57 14.61,52.899 13.09,54.194 11.61,55.53 10.1,56.79 8.66,58.1 7.22,59.36 5.82,60.63 4.41,61.86 3.05,63.11 1.7,64.34 0.2,34.22 -24.31,-1.52 -27.84,-0.96 -27.61,-0.14 -27.44,0.63 -27.23,1.46 -27.04,2.21 -26.84,3.02 -26.68,3.77 -26.49,4.54 -26.33,5.3 -26.14,6.08 -25.99,6.79 -25.82,7.55 -25.65,8.28 -25.5,9 -25.38,9.72 -25.21,10.42 -25.08,11.13 -24.95,11.82 -24.84,12.5 -24.7,13.2 -24.61,13.86 -24.48,14.54 -24.38,15.17 -24.3,15.84 -24.22,16.48 -24.12,17.12 -24.08,17.74 -23.986,18.38 -23.95,18.99 -5.457,4.48 -5.457,-4.48 -23.949,-18.99 -23.984,-18.38" /><path
         id="path20"
         style="fill:#3172c2;fill-opacity:1;fill-rule:evenodd;stroke:none"
         d="m 683.695,1575.95 -26.07,-11.57 -26.25,-10.85 -26.434,-10.12 -26.582,-9.39 -26.789,-8.64 -26.984,-7.9 -27.168,-7.1 -27.34,-6.35 -27.562,-5.55 -27.731,-4.75 -27.914,-3.95 -28.105,-3.16 -28.301,-2.32 -28.492,-1.51 -28.7,-0.67 -28.851,0.15 -7.625,0.26 1.355,-51.58 3.012,-62.14 4.34,-60.85 5.711,-59.55 7.074,-58.25 8.492,-56.92 9.879,-55.56 11.336,-54.24 12.77,-52.858 14.234,-51.512 15.711,-50.136 17.203,-48.766 18.707,-47.395 20.242,-46.011 21.778,-44.649 23.371,-43.242 24.945,-41.91 26.563,-40.539 28.195,-39.188 29.887,-37.843 31.593,-36.508 33.352,-35.18 35.121,-33.851 36.957,-32.52 38.828,-31.195 40.762,-29.879 42.703,-28.539 44.711,-27.188 46.762,-25.843 48.855,-24.469 22.531,-10.207 22.536,10.207 48.857,24.469 46.76,25.843 44.71,27.188 42.7,28.539 40.77,29.879 38.82,31.195 36.96,32.52 35.12,33.851 33.35,35.18 31.59,36.508 29.89,37.843 28.2,39.188 26.56,40.539 24.95,41.91 23.36,43.242 21.78,44.649 20.24,46.011 18.71,47.395 17.21,48.766 15.7,50.136 14.24,51.512 12.77,52.858 11.33,54.24 9.89,55.56 8.49,56.92 7.07,58.25 5.71,59.55 4.34,60.85 3.01,62.14 1.36,51.58 -7.63,-0.26 -28.85,-0.15 -28.69,0.67 -28.5,1.51 -28.3,2.32 -28.1,3.16 -27.92,3.95 -27.73,4.75 -27.56,5.55 -27.34,6.35 -27.17,7.1 -26.99,7.9 -26.78,8.64 -26.59,9.39 -26.43,10.12 -26.25,10.85 -26.07,11.57 -25.91,12.27 -25.76,12.97 -25.6,13.67 -25.45,14.34 -25.28,15.02 -25.16,15.65 -25.04,16.33 -24.92,16.94 -24.79,17.6 -24.704,18.21 -24.598,18.84 -2.871,2.27 -2.871,-2.27 -24.597,-18.84 -24.707,-18.21 -24.786,-17.6 -24.925,-16.94 -25.032,-16.33 -25.16,-15.65 -25.281,-15.02 -25.457,-14.34 -25.602,-13.67 -25.754,-12.97 -25.91,-12.27" /><path
         id="path22"
         style="fill:#ffffff;fill-opacity:1;fill-rule:evenodd;stroke:none"
         d="m 532.266,1489.75 -27.961,-7.31 -28.137,-6.53 -28.383,-5.72 -28.555,-4.89 -28.734,-4.07 -28.945,-3.25 -29.145,-2.38 -29.332,-1.57 -29.543,-0.68 -7.183,0.04 0.554,-21.36 2.985,-61.5 4.285,-60.17 5.648,-58.85 6.985,-57.49 8.371,-56.14 9.738,-54.73 11.156,-53.38 12.555,-51.969 13.973,-50.598 15.414,-49.176 16.863,-47.789 18.301,-46.386 19.797,-44.985 21.269,-43.597 22.801,-42.192 24.32,-40.867 25.879,-39.5 27.453,-38.148 29.09,-36.836 30.735,-35.524 32.46,-34.23 34.18,-32.95 35.988,-31.664 37.829,-30.39 39.746,-29.137 41.668,-27.852 43.675,-26.558 45.731,-25.274 47.824,-23.96 10.156,-4.594 10.157,4.594 47.826,23.96 45.73,25.274 43.68,26.558 41.66,27.852 39.75,29.137 37.83,30.39 35.98,31.664 34.18,32.95 32.47,34.23 30.73,35.524 29.09,36.836 27.45,38.148 25.89,39.5 24.31,40.867 22.8,42.192 21.27,43.597 19.8,44.985 18.3,46.386 16.86,47.789 15.42,49.176 13.97,50.598 12.55,51.969 11.16,53.38 9.74,54.73 8.37,56.14 6.99,57.49 5.64,58.85 4.29,60.17 2.99,61.5 0.55,21.36 -7.19,-0.04 -29.54,0.68 -29.33,1.57 -29.15,2.38 -28.94,3.25 -28.73,4.07 -28.56,4.89 -28.38,5.72 -28.14,6.53 -27.96,7.31 -27.76,8.12 -27.54,8.89 -27.31,9.65 -27.14,10.38 -26.94,11.14 -26.74,11.86 -26.54,12.59 -26.37,13.26 -26.19,14 -26.03,14.66 -25.82,15.33 -25.67,15.98 -25.52,16.64 -25.4,17.27 -25.222,17.91 -25.137,18.51 -10.184,7.81 -10.183,-7.81 -25.133,-18.51 -25.223,-17.91 -25.398,-17.27 -25.52,-16.64 -25.672,-15.98 -25.824,-15.33 -26.023,-14.66 -26.192,-14 -26.371,-13.26 -26.547,-12.59 -26.73,-11.86 -26.938,-11.14 -27.148,-10.38 -27.309,-9.65 -27.535,-8.89 -27.765,-8.12" /><path
         id="path24"
         style="fill:#3172c2;fill-opacity:1;fill-rule:evenodd;stroke:none"
         d="M 670.262,426.434 1630.8,1424.76 C 1612.97,850.98 1406.49,439.777 963.777,228.063 850.699,280.813 753.605,346.938 670.262,426.434" /><path
         id="path26"
         style="fill:#ed1c24;fill-opacity:1;fill-rule:evenodd;stroke:none"
         d="m 296.695,1426.68 c 229.946,3.2 451.84,91.91 667.082,251.5 73.583,-55.56 155.203,-104.66 243.513,-148.38 L 441.27,744.266 C 341.953,971.746 298.34,1199.23 296.695,1426.68" /><path
         id="path28"
         style="fill:#000000;fill-opacity:1;fill-rule:evenodd;stroke:none"
         d="m 970.734,896.93 c 10.543,-28.586 13.063,-55.907 7.524,-82.016 -5.488,-26.059 -19.156,-50.59 -40.852,-73.547 -15.758,-16.668 -33.062,-29.277 -52.019,-37.847 -18.903,-8.618 -38.836,-12.848 -59.844,-12.852 -19.961,0.336 -38.961,4.437 -57,12.387 -18.043,7.949 -35.563,19.957 -52.5,35.965 -36.121,34.14 -54.992,71.429 -56.555,111.914 -1.621,40.535 14.176,78.379 47.391,113.519 12.91,13.656 27.633,25.402 44.211,35.391 16.582,9.876 24.797,14.846 24.797,14.846 3.047,3.22 4.593,6.83 4.644,10.82 0.047,3.99 -1.429,9 -4.418,15.03 l 9.25,9.79 77.25,-64.85 -7.129,-7.542 c -27.582,10.558 -52.207,14.277 -73.773,11.273 -21.621,-3.051 -40.27,-12.938 -55.973,-29.555 -22.008,-23.277 -30.027,-50.254 -23.949,-80.937 6.074,-30.68 25.457,-61.516 58.238,-92.504 30.278,-28.617 60.551,-44.199 90.778,-46.59 30.281,-2.445 56.945,8.566 79.929,32.883 15.133,16.012 24.688,33.562 28.625,52.719 3.922,19.156 2.5,41.296 -4.269,66.418 z m 62.296,37.66 c 5.78,6.121 12.93,9.191 21.44,9.219 8.51,0.027 15.93,-2.957 22.22,-8.899 6.4,-6.043 9.73,-13.234 10.02,-21.469 0.29,-8.238 -2.59,-15.554 -8.64,-21.949 -6.09,-6.449 -13.19,-9.679 -21.27,-9.801 -8.08,-0.121 -15.5,2.969 -22.23,9.325 -6.18,5.839 -9.41,13.031 -9.75,21.531 -0.34,8.5 2.37,15.871 8.21,22.043 z m -46.538,215.34 137.978,-130.43 c 10.88,-10.28 19.94,-15.24 27.22,-14.76 7.27,0.36 16.21,6.2 26.79,17.4 l 7.55,-7.13 -68.85,-72.842 -7.55,7.129 c 10.49,11.094 15.66,20.176 15.67,27.305 -0.09,7.121 -5.6,15.847 -16.59,26.238 l -158.026,149.37 c -12.282,1.68 -22.387,1.71 -30.426,0 -7.981,-1.77 -14.852,-5.32 -20.5,-10.64 l -8.133,7.39 56.457,59.72 277.778,-11.64 -117.66,111.2 c -10.98,10.38 -20.06,15.34 -27.33,14.87 -7.17,-0.47 -16.1,-6.31 -26.69,-17.51 l -7.65,7.23 68.91,72.9 7.65,-7.23 c -10.49,-11.1 -15.77,-20.18 -15.72,-27.25 -0.08,-7.08 5.49,-15.86 16.59,-26.35 l 165.18,-156.14 c 4.21,-3.98 8.64,-8.05 13.38,-12.23 4.74,-4.17 9.76,-8.39 14.99,-12.72 l -7.9,-8.68 c -40.28,2.49 -82.89,4.48 -127.82,5.98 -10.91,0.39 -17.73,0.62 -20.45,0.8 z m 355.518,111.54 c 5.79,6.12 12.94,9.19 21.44,9.22 8.51,0.03 15.94,-2.96 22.23,-8.9 6.39,-6.04 9.73,-13.23 10.01,-21.47 0.29,-8.23 -2.59,-15.55 -8.63,-21.94 -6.1,-6.45 -13.19,-9.69 -21.27,-9.81 -8.09,-0.12 -15.51,2.97 -22.23,9.32 -6.18,5.84 -9.42,13.04 -9.76,21.54 -0.34,8.5 2.38,15.87 8.21,22.04" /></g></g></svg>