<?xml version="1.0" encoding="UTF-8" standalone="no"?>
<!-- Created with Inkscape (http://www.inkscape.org/) -->

<svg
   version="1.1"
   id="svg2"
   xml:space="preserve"
   width="566.92932"
   height="566.92932"
   viewBox="0 0 566.92932 566.92932"
   sodipodi:docname="Olimpia.ai"
   xmlns:inkscape="http://www.inkscape.org/namespaces/inkscape"
   xmlns:sodipodi="http://sodipodi.sourceforge.net/DTD/sodipodi-0.dtd"
   xmlns="http://www.w3.org/2000/svg"
   xmlns:svg="http://www.w3.org/2000/svg"><defs
     id="defs6"><clipPath
       clipPathUnits="userSpaceOnUse"
       id="clipPath16"><path
         d="M 0,425.197 H 425.197 V 0 H 0 Z"
         id="path14" /></clipPath></defs><sodipodi:namedview
     id="namedview4"
     pagecolor="#ffffff"
     bordercolor="#666666"
     borderopacity="1.0"
     inkscape:pageshadow="2"
     inkscape:pageopacity="0.0"
     inkscape:pagecheckerboard="0" /><g
     id="g8"
     inkscape:groupmode="layer"
     inkscape:label="Olimpia"
     transform="matrix(1.3333333,0,0,-1.3333333,0,566.92933)"><g
       id="g10"><g
         id="g12"
         clip-path="url(#clipPath16)"><g
           id="g18"
           transform="translate(279.5811,166.7041)"><path
             d="m 0,0 c -5.432,-7.864 -12.215,-14.729 -20.016,-20.248 v 37.637 h 2.629 z m -51.081,-33.587 c -5.023,-0.984 -10.22,-1.505 -15.519,-1.505 -0.391,0 -0.774,0.011 -1.164,0.011 v 52.47 h 16.683 z M 22.88,22.975 h -178.963 c 0.213,-0.829 0.442,-1.651 0.676,-2.467 h -0.004 c 0.01,-0.035 0.02,-0.073 0.033,-0.106 0.293,-1.012 0.6,-2.016 0.924,-3.013 h 0.008 c 6.061,-18.64 17.891,-34.714 33.385,-46.079 V 7.556 h -11.453 v -8.55 c -4.016,5.633 -7.325,11.807 -9.807,18.383 h 29.416 v -51.435 c 8.951,-5.219 15.768,-8.42 26.287,-10.384 v 11.679 c -6.271,1.347 -9.191,2.867 -14.83,5.578 v 44.562 h 22.231 v -63.074 c 4.123,-0.571 8.341,-0.86 12.617,-0.86 9.377,0 18.432,1.416 26.971,4.036 v 59.898 h 8.162 V -39.57 c 19.609,8.112 35.845,22.799 45.953,41.278 L -1.186,17.389 h 22.439 c 0.596,1.836 1.139,3.694 1.627,5.586"
             style="fill:#231f20;fill-opacity:1;fill-rule:evenodd;stroke:none"
             id="path20" /></g><g
           id="g22"
           transform="translate(259.5654,278.5527)"><path
             d="M 0,0 C 7.802,-5.518 14.584,-12.382 20.021,-20.245 L 2.476,-37.788 H 0 Z m 42.929,-43.38 c -0.48,1.892 -1.021,3.752 -1.611,5.592 H 18.671 l 15.832,15.829 C 24.394,-3.474 8.156,11.208 -11.45,19.324 v -57.112 h -8.162 v 60.046 c -3.722,1.145 -7.545,2.061 -11.453,2.726 V -37.788 H -47.747 V 26.289 C -51.628,26.242 -55.45,25.952 -59.2,25.436 v -63.224 h -22.234 v 57.243 c -3.961,-1.625 -7.791,-3.517 -11.457,-5.652 v -51.591 h -29.471 c 2.482,6.63 5.814,12.855 9.865,18.539 v -12.199 h 11.453 V 8.446 c -15.539,-11.397 -27.392,-27.531 -33.435,-46.234 h -0.012 c -0.225,-0.689 -0.432,-1.384 -0.644,-2.085 -0.051,-0.181 -0.112,-0.359 -0.166,-0.541 h 0.007 c -0.287,-0.983 -0.56,-1.969 -0.81,-2.966 z"
             style="fill:#231f20;fill-opacity:1;fill-rule:evenodd;stroke:none"
             id="path24" /></g><g
           id="g26"
           transform="translate(303.3066,231.6904)"><path
             d="m 0,0 h -95.426 -85.232 c -1.318,-6.192 -2.014,-12.612 -2.014,-19.185 0,-6.576 0.696,-12.996 2.014,-19.185 H 0 c 1.317,6.189 2.02,12.609 2.02,19.185 C 2.02,-12.612 1.317,-6.192 0,0"
             style="fill:#231f20;fill-opacity:1;fill-rule:nonzero;stroke:none"
             id="path28" /></g><g
           id="g30"
           transform="translate(285.5469,285.2422)"><path
             d="m 0,0 c 39.385,-39.386 38.875,-103.98 -1.14,-143.994 -40.014,-40.017 -104.608,-40.527 -143.995,-1.14 -39.386,39.387 -38.873,103.981 1.141,143.996 C -103.98,38.874 -39.388,39.386 0,0 m -26.257,38.792 c -15.722,6.511 -29.159,21.797 -46.176,21.791 -17.024,-10e-4 -30.463,-15.278 -46.184,-21.788 -15.728,-6.519 -36.297,-4.942 -48.334,-16.979 l 0.268,-0.269 c -12.034,-12.036 -10.729,-32.34 -17.243,-48.063 -6.515,-15.729 -21.794,-29.162 -21.791,-46.184 -0.007,-17.019 15.28,-30.456 21.791,-46.178 6.518,-15.727 5.209,-36.031 17.243,-48.069 12.037,-12.035 32.343,-10.73 48.066,-17.243 15.725,-6.514 29.16,-21.794 46.184,-21.797 17.019,0.003 30.451,15.28 46.183,21.797 15.725,6.511 36.028,5.205 48.063,17.241 12.039,12.038 10.73,32.341 17.248,48.068 6.508,15.725 21.787,29.157 21.793,46.181 -0.002,17.022 -15.285,30.455 -21.797,46.179 C 32.543,-10.793 33.85,9.511 21.813,21.547 9.774,33.582 -10.525,32.276 -26.257,38.792"
             style="fill:#231f20;fill-opacity:1;fill-rule:nonzero;stroke:none"
             id="path32" /></g><g
           id="g34"
           transform="translate(149.5645,207.6094)"><path
             d="m 0,0 v 9.756 c 0,1.928 -0.313,3.282 -0.949,4.057 -0.635,0.775 -1.758,1.164 -3.365,1.164 -1.615,0 -2.735,-0.384 -3.367,-1.145 C -8.316,13.07 -8.633,11.711 -8.633,9.756 V 0 c 0,-1.932 0.309,-3.277 0.926,-4.039 0.617,-0.762 1.748,-1.143 3.393,-1.143 1.607,0 2.73,0.381 3.365,1.143 C -0.313,-3.277 0,-1.932 0,0 m 5.758,-0.038 c 0,-2.92 -0.703,-5.068 -2.107,-6.439 -1.782,-1.753 -4.438,-2.63 -7.965,-2.63 -3.631,0 -6.27,0.877 -7.915,2.63 -1.409,1.499 -2.107,3.645 -2.107,6.439 V 9.83 c 0,2.899 0.698,5.057 2.107,6.481 1.71,1.726 4.35,2.589 7.915,2.589 3.701,0 6.355,-0.863 7.965,-2.589 1.404,-1.5 2.107,-3.659 2.107,-6.481 z"
             style="fill:#ffffff;fill-opacity:1;fill-rule:nonzero;stroke:none"
             id="path36" /></g><g
           id="g38"
           transform="translate(178.9648,199.9766)"><path
             d="m 0,0 c 0,-0.702 -0.48,-1.054 -1.441,-1.054 h -14.08 c -0.961,0 -1.438,0.355 -1.438,1.065 v 25.036 c 0,0.735 0.477,1.105 1.438,1.105 h 2.724 c 1.026,0 1.539,-0.37 1.539,-1.108 V 3.899 c 0,-0.737 0.463,-1.104 1.389,-1.104 h 8.428 C -0.48,2.795 0,2.43 0,1.7 Z"
             style="fill:#ffffff;fill-opacity:1;fill-rule:nonzero;stroke:none"
             id="path40" /></g><g
           id="g42"
           transform="translate(189.8066,199.9502)"><path
             d="m 0,0 c 0,-0.252 -0.162,-0.488 -0.488,-0.705 -0.326,-0.215 -0.658,-0.322 -1,-0.322 h -2.777 c -0.342,0 -0.67,0.099 -0.977,0.302 -0.311,0.204 -0.463,0.446 -0.463,0.725 v 25.11 c 0,0.711 0.479,1.068 1.44,1.068 h 2.827 c 0.339,0 0.667,-0.107 0.977,-0.324 C -0.154,25.64 0,25.403 0,25.151 Z"
             style="fill:#ffffff;fill-opacity:1;fill-rule:nonzero;stroke:none"
             id="path44" /></g><g
           id="g46"
           transform="translate(224.2422,199.9873)"><path
             d="m 0,0 c 0,-0.303 -0.164,-0.558 -0.49,-0.762 -0.323,-0.203 -0.676,-0.302 -1.054,-0.302 h -2.418 c -0.957,0 -1.436,0.364 -1.436,1.102 v 17.49 c 0,0.18 -0.051,0.268 -0.154,0.268 -0.071,0 -0.139,-0.088 -0.207,-0.268 L -11.31,0.038 c -0.237,-0.738 -0.838,-1.102 -1.797,-1.102 h -0.518 c -1.023,0 -1.644,0.354 -1.845,1.064 l -5.502,17.567 c -0.067,0.178 -0.137,0.266 -0.207,0.266 -0.098,0 -0.151,-0.088 -0.151,-0.266 V 0.038 c 0,-0.304 -0.156,-0.563 -0.461,-0.78 -0.31,-0.215 -0.652,-0.322 -1.031,-0.322 h -2.467 c -0.377,0 -0.711,0.112 -1,0.342 -0.293,0.226 -0.439,0.481 -0.439,0.76 v 25.036 c 0,0.711 0.482,1.067 1.443,1.067 h 5.399 c 0.964,0 1.562,-0.367 1.804,-1.104 l 4.446,-14.056 c 0.066,-0.181 0.158,-0.273 0.287,-0.273 0.123,0 0.22,0.089 0.283,0.269 l 4.462,14.062 c 0.245,0.735 0.86,1.102 1.856,1.102 h 5.2 C -0.517,26.141 0,25.771 0,25.037 Z"
             style="fill:#ffffff;fill-opacity:1;fill-rule:nonzero;stroke:none"
             id="path48" /></g><g
           id="g50"
           transform="translate(245.5693,217.8965)"><path
             d="M 0,0 C 0,1.691 -0.426,2.846 -1.268,3.461 -2.11,4.076 -3.706,4.384 -6.049,4.384 H -7.084 C -8.049,4.384 -8.53,4.012 -8.53,3.27 v -6.306 c 0,-0.722 0.481,-1.075 1.446,-1.075 h 1.035 c 2.273,0 3.853,0.298 4.732,0.9 C -0.44,-2.607 0,-1.537 0,0 M 5.91,0.268 C 5.91,-2.578 5.052,-4.658 3.332,-5.98 1.609,-7.3 -1.088,-7.963 -4.766,-7.963 h -2.322 c -0.963,0 -1.442,-0.381 -1.442,-1.142 v -8.804 c 0,-0.71 -0.511,-1.065 -1.531,-1.065 h -2.699 c -0.916,0 -1.373,0.343 -1.373,1.028 V 7.127 c 0,0.279 0.146,0.534 0.437,0.762 0.291,0.228 0.625,0.343 1.002,0.343 h 7.965 C -1.202,8.232 1.369,7.646 2.98,6.479 4.937,5.057 5.91,2.986 5.91,0.268"
             style="fill:#ffffff;fill-opacity:1;fill-rule:nonzero;stroke:none"
             id="path52" /></g><g
           id="g54"
           transform="translate(263.5586,199.9502)"><path
             d="M 0,0 C 0,-0.252 -0.162,-0.488 -0.488,-0.705 -0.816,-0.92 -1.15,-1.027 -1.492,-1.027 h -2.777 c -0.342,0 -0.668,0.099 -0.973,0.302 -0.312,0.204 -0.463,0.446 -0.463,0.725 v 25.11 c 0,0.711 0.476,1.068 1.436,1.068 h 2.828 c 0.342,0 0.668,-0.107 0.979,-0.324 C -0.152,25.64 0,25.403 0,25.151 Z"
             style="fill:#ffffff;fill-opacity:1;fill-rule:nonzero;stroke:none"
             id="path56" /></g><g
           id="g58"
           transform="translate(282.4336,209.7832)"><path
             d="m 0,0 -2.488,9.943 c -0.07,0.155 -0.176,0.229 -0.322,0.229 -0.141,0 -0.231,-0.086 -0.264,-0.263 l -2.392,-9.986 c -0.172,-0.662 0.259,-0.992 1.291,-0.992 h 2.941 C -0.242,-1.069 0.172,-0.713 0,0 M 8.262,-9.758 C 8.434,-10.496 8.006,-10.86 6.983,-10.86 H 4.276 c -0.951,0 -1.531,0.367 -1.731,1.11 l -1.056,3.689 c -0.244,0.765 -0.844,1.143 -1.805,1.143 h -4.9 c -0.381,0 -0.741,-0.12 -1.084,-0.359 -0.344,-0.242 -0.553,-0.501 -0.621,-0.781 L -7.89,-9.793 c -0.207,-0.713 -0.785,-1.067 -1.742,-1.067 h -2.67 c -0.957,0 -1.332,0.364 -1.129,1.102 l 6.529,25.076 c 0.172,0.684 0.736,1.027 1.695,1.027 h 4.887 c 0.988,0 1.59,-0.368 1.797,-1.104 z"
             style="fill:#ffffff;fill-opacity:1;fill-rule:nonzero;stroke:none"
             id="path60" /></g></g></g></g></svg>
