<?xml version="1.0" encoding="UTF-8" standalone="no"?>
<svg
   xmlns:dc="http://purl.org/dc/elements/1.1/"
   xmlns:cc="http://creativecommons.org/ns#"
   xmlns:rdf="http://www.w3.org/1999/02/22-rdf-syntax-ns#"
   xmlns:svg="http://www.w3.org/2000/svg"
   xmlns="http://www.w3.org/2000/svg"
   viewBox="0 0 257.33334 257.33334"
   height="257.33334"
   width="257.33334"
   xml:space="preserve"
   id="svg2"
   version="1.1"><metadata
     id="metadata8"><rdf:RDF><cc:Work
         rdf:about=""><dc:format>image/svg+xml</dc:format><dc:type
           rdf:resource="http://purl.org/dc/dcmitype/StillImage" /></cc:Work></rdf:RDF></metadata><defs
     id="defs6" /><g
     transform="matrix(1.3333333,0,0,-1.3333333,0,257.33333)"
     id="g10"><g
       transform="scale(0.1)"
       id="g12"><path
         id="path14"
         style="fill:#ffffff;fill-opacity:1;fill-rule:evenodd;stroke:none"
         d="M 9.99609,1930 H 1930 V 9.99609 H 9.99609 V 1930" /><path
         id="path16"
         style="fill:#c08e5c;fill-opacity:1;fill-rule:evenodd;stroke:none"
         d="m 970,1716.4 c 412.22,0 746.4,-334.18 746.4,-746.4 0,-412.227 -334.18,-746.402 -746.4,-746.402 -412.227,0 -746.402,334.175 -746.402,746.402 0,412.22 334.175,746.4 746.402,746.4" /><path
         id="path18"
         style="fill:#32a0d2;fill-opacity:1;fill-rule:evenodd;stroke:none"
         d="m 970,1679.79 c 392.01,0 709.79,-317.78 709.79,-709.79 0,-392.012 -317.78,-709.793 -709.79,-709.793 -392.012,0 -709.793,317.781 -709.793,709.793 0,392.01 317.781,709.79 709.793,709.79" /><path
         id="path20"
         style="fill:#c08e5c;fill-opacity:1;fill-rule:evenodd;stroke:none"
         d="m 970,1526.51 c 307.35,0 556.51,-249.16 556.51,-556.51 0,-307.355 -249.16,-556.516 -556.51,-556.516 -307.355,0 -556.516,249.161 -556.516,556.516 0,307.35 249.161,556.51 556.516,556.51" /><path
         id="path22"
         style="fill:#ffffff;fill-opacity:1;fill-rule:evenodd;stroke:none"
         d="m 970,1490.31 c 287.36,0 520.31,-232.95 520.31,-520.31 0,-287.359 -232.95,-520.312 -520.31,-520.312 -287.359,0 -520.312,232.953 -520.312,520.312 0,287.36 232.953,520.31 520.312,520.31" /><path
         id="path24"
         style="fill:#da251c;fill-opacity:1;fill-rule:evenodd;stroke:none"
         d="M 520.742,735.211 H 1419.25 L 970,1454.34 Z" /><path
         id="path26"
         style="fill:#ffffff;fill-opacity:1;fill-rule:evenodd;stroke:none"
         d="M 570.285,762.676 H 1369.71 L 970,1402.5 Z" /><path
         id="path28"
         style="fill:#da251c;fill-opacity:1;fill-rule:evenodd;stroke:none"
         d="M 623.094,791.953 H 1316.9 L 970,1347.25 Z" /><path
         id="path30"
         style="fill:#ffffff;fill-opacity:1;fill-rule:nonzero;stroke:none"
         d="m 930.043,1175.51 v 88.27 h 45.453 c 8.422,0 14.871,-0.72 19.313,-2.18 4.457,-1.44 8.051,-4.13 10.781,-8.03 2.73,-3.93 4.09,-8.71 4.09,-14.35 0,-4.88 -1.05,-9.12 -3.14,-12.67 -2.08,-3.58 -4.95,-6.45 -8.634,-8.67 -2.32,-1.4 -5.523,-2.57 -9.57,-3.5 3.246,-1.08 5.609,-2.15 7.086,-3.24 0.988,-0.72 2.445,-2.28 4.355,-4.65 1.893,-2.36 3.163,-4.19 3.803,-5.48 l 13.25,-25.5 h -30.814 l -14.571,26.92 c -1.851,3.49 -3.492,5.75 -4.929,6.8 -1.973,1.35 -4.215,2.03 -6.7,2.03 h -2.402 v -35.75 z m 27.371,52.39 h 11.524 c 1.234,0 3.66,0.41 7.234,1.22 1.808,0.34 3.285,1.27 4.418,2.77 1.148,1.5 1.726,3.2 1.726,5.14 0,2.85 -0.906,5.05 -2.714,6.57 -1.809,1.54 -5.2,2.3 -10.192,2.3 h -11.996 v -18" /><path
         id="path32"
         style="fill:#ffffff;fill-opacity:1;fill-rule:nonzero;stroke:none"
         d="m 707.152,839.777 25.891,1.625 c 0.555,-4.191 1.703,-7.398 3.43,-9.578 2.816,-3.551 6.82,-5.34 12.039,-5.34 3.886,0 6.883,0.903 8.98,2.731 2.117,1.828 3.164,3.945 3.164,6.351 0,2.282 -0.984,4.332 -2.98,6.141 -1.992,1.809 -6.633,3.492 -13.93,5.117 -11.957,2.672 -20.465,6.246 -25.558,10.703 -5.141,4.442 -7.708,10.114 -7.708,17.016 0,4.52 1.317,8.793 3.946,12.82 2.633,4.047 6.578,7.211 11.855,9.512 5.282,2.301 12.516,3.453 21.699,3.453 11.278,0 19.868,-2.098 25.786,-6.308 5.918,-4.192 9.429,-10.872 10.558,-20.036 l -25.64,-1.519 c -0.676,4.008 -2.118,6.926 -4.293,8.734 -2.2,1.828 -5.219,2.735 -9.063,2.735 -3.164,0 -5.57,-0.68 -7.172,-2.016 -1.601,-1.336 -2.402,-2.98 -2.402,-4.91 0,-1.399 0.656,-2.653 1.949,-3.781 1.258,-1.172 4.297,-2.239 9.102,-3.247 11.918,-2.566 20.449,-5.179 25.586,-7.804 5.156,-2.633 8.914,-5.879 11.257,-9.785 2.34,-3.883 3.512,-8.239 3.512,-13.067 0,-5.648 -1.562,-10.867 -4.683,-15.656 -3.141,-4.766 -7.5,-8.402 -13.129,-10.867 -5.61,-2.469 -12.676,-3.699 -21.227,-3.699 -14.996,0 -25.394,2.894 -31.168,8.671 -5.773,5.774 -9.039,13.106 -9.801,22.004" /><path
         id="path34"
         style="fill:#ffffff;fill-opacity:1;fill-rule:nonzero;stroke:none"
         d="m 1213.51,846.703 23.92,-7.215 c -1.61,-6.699 -4.14,-12.304 -7.61,-16.785 -3.45,-4.5 -7.73,-7.89 -12.86,-10.168 -5.12,-2.285 -11.63,-3.433 -19.54,-3.433 -9.62,0 -17.45,1.398 -23.55,4.171 -6.08,2.793 -11.32,7.704 -15.74,14.711 -4.41,7.004 -6.63,16.004 -6.63,26.938 0,14.586 3.88,25.805 11.65,33.652 7.78,7.828 18.78,11.754 32.99,11.754 11.12,0 19.88,-2.238 26.24,-6.742 6.35,-4.496 11.1,-11.402 14.18,-20.727 l -24.04,-5.324 c -0.84,2.672 -1.72,4.621 -2.65,5.856 -1.54,2.074 -3.41,3.679 -5.61,4.789 -2.22,1.129 -4.68,1.683 -7.42,1.683 -6.2,0 -10.95,-2.488 -14.23,-7.437 -2.49,-3.68 -3.74,-9.473 -3.74,-17.34 0,-9.781 1.48,-16.461 4.45,-20.098 2.98,-3.617 7.15,-5.425 12.54,-5.425 5.21,0 9.16,1.46 11.83,4.402 2.67,2.914 4.61,7.168 5.82,12.738" /><path
         id="path36"
         style="fill:#ffffff;fill-opacity:1;fill-rule:evenodd;stroke:none"
         d="m 1019.49,784.18 -23.15,10.648 -5.324,45.242 -1.063,53.231 5.856,31.14 c 0,0 15.701,3.192 17.831,3.192 2.13,0 11.18,2.664 13.84,4.527 2.66,1.86 9.31,7.985 9.31,7.985 l 2.4,-11.18 0.8,-4.793 5.59,0.801 2.39,-2.93 c 0,0 3.46,-2.395 5.06,-1.328 1.6,1.062 3.46,3.195 3.46,3.195 l 0.26,9.582 c 0,0 4.27,3.192 5.86,2.395 1.6,-0.801 3.46,-3.461 3.46,-3.461 l 5.06,-0.535 c 0,0 0.53,2.129 3.19,3.996 2.66,1.863 10.38,2.394 10.38,2.394 l 4.79,4.789 7.46,-5.054 c 0,0 1.59,-1.067 5.85,-0.536 4.26,0.536 9.05,1.333 9.05,1.333 l 3.99,1.863 14.37,7.984 -5.85,6.922 2.93,5.32 -0.27,5.325 2.39,2.925 c 0,0 -3.72,0.266 -2.92,1.864 0.8,1.597 1.86,4.523 1.86,4.523 l -6.65,0.801 -1.6,5.324 -6.12,-0.531 -1.33,9.051 -9.04,-1.598 3.19,12.244 c 0,0 -5.32,0.26 -5.86,1.86 -0.53,1.6 -2.66,5.86 -6.92,5.86 -4.25,0 -9.31,-4 -8.78,0.53 0.53,4.53 0,12.24 0,12.24 h -3.46 l 2.66,7.99 c 0,0 3.73,5.58 0.53,5.58 -3.19,0 -11.44,2.93 -11.44,2.93 l -0.27,5.32 -3.99,1.07 c 0,0 -9.31,1.33 -10.91,1.6 -1.6,0.26 -4.79,4.26 -4.79,4.26 0,0 1.06,0 2.66,1.59 1.6,1.6 7.98,3.73 7.98,3.73 l 0.53,7.18 -6.92,0.54 4,8.78 -2.4,9.58 -5.59,3.46 -7.45,-3.46 -6.12,7.19 5.06,3.46 -12.25,11.17 -11.71,-0.52 0.8,8.51 -12.77,-1.33 -2.13,9.05 2.66,1.59 -5.59,7.46 v 6.12 l -8.514,1.06 -5.058,-4.25 -5.856,7.72 -7.718,-1.34 -0.532,-9.58 -9.05,5.33 -2.395,-6.13 -8.25,-0.8 -5.32,-7.18 -7.989,-3.73 -0.531,-4.52 -6.652,6.92 -8.781,0.26 -3.461,-5.59 -0.535,-8.25 5.589,-2.93 -0.531,-13.83 -8.25,3.72 2.129,6.39 -9.051,1.06 -2.926,-3.19 -6.121,4.26 -3.195,-4.52 -7.187,-1.87 c 0,0 -0.797,-2.93 -2.395,-3.19 -1.594,-0.27 -10.379,-1.33 -10.379,-1.33 l 0.797,-5.06 -5.852,-1.86 1.864,-3.46 7.183,-4.79 0.266,-2.93 4.258,-0.8 -2.926,-3.19 7.988,-8.25 -1.601,-5.59 -11.442,1.06 -0.801,-2.93 -8.515,2.13 1.863,-12.77 -8.25,0.26 0.266,-4.78 h -2.926 l -1.332,-2.67 -8.781,-0.8 c 0,0 -0.535,-3.46 -0.535,-5.05 0,-1.6 1.863,-3.2 1.863,-3.2 l -0.531,-6.12 -6.387,2.67 -8.254,-4.26 0.269,-5.59 2.395,-6.13 -4.258,-5.585 -8.519,-1.328 -2.395,-5.059 -11.176,-3.461 -5.589,-1.062 c 0,0 -0.27,-8.782 3.191,-9.047 3.461,-0.266 9.848,-1.067 9.848,-1.067 l -1.332,-4.257 -4.786,-7.985 11.442,-3.992 -2.395,-7.723 c 0,0 7.188,-0.796 5.856,-3.191 -1.332,-2.395 -4.528,-5.055 -4.528,-5.055 l 9.051,1.594 12.774,-2.66 3.996,0.531 4.789,6.125 5.058,-2.398 3.192,5.32 5.855,-0.793 0.801,3.988 h 3.723 l -5.856,6.922 4.262,-1.066 v 6.121 l 5.59,-4.258 -2.395,5.856 h 3.723 l 1.598,8.785 4.789,-11.711 0.531,-4.262 -5.32,-4.258 3.726,-6.117 -10.379,-5.324 -2.129,-7.453 6.918,-1.598 v -4.258 l 17.301,-8.254 1.859,3.731 5.059,-1.602 10.379,2.395 0.269,5.324 16.235,3.195 4.258,-6.121 32.734,-24.222 -3.988,-16.235 -0.535,-91.019 -3.196,-11.18 -0.797,-12.777 z m -54.002,274.48 c 4.981,0.85 2.039,8.71 -2.945,6 -3.742,-2.04 -0.734,-7.94 2.945,-6 z m 8.149,15.41 c 0,-7.09 8.883,-3.68 6.047,1.53 -1.543,2.84 -5.965,1.92 -6.047,-1.53 z m -6.121,3.7 c -3.047,4.27 -8.914,-1.91 -3.907,-5.31 3.543,-2.4 7.461,2.77 3.907,5.31 z M 872.59,991.871 c 4.101,2.277 0.441,9.109 -3.442,5.902 -4.722,-3.89 0.02,-9.324 3.442,-5.902 z m -1.953,-11.117 c -2.66,-5.297 7.164,-7.094 6.418,0.23 -0.403,3.973 -6.321,3.719 -6.418,-0.23 z m -12.246,-6.074 c 0,-0.903 -0.411,-5.481 3.738,-4.633 5.242,1.074 2.543,11.949 -2.578,8.129 z m 213.469,8.347 c -1.06,-1.48 -6.88,-4.929 -2.59,-7.836 4.57,-3.093 13.48,9.305 6.44,10.747 -1.89,0.386 -3.7,-0.969 -3.85,-2.911 z m -73.965,86.623 c 2.165,-4.7 9.045,-0.76 5.395,3.67 -0.03,0.04 -1.75,5.25 -5.325,2.31 -1.719,-1.42 -1.477,-4.36 -0.07,-5.98 z m 5.815,8.14 c 0.28,-6.96 10.33,-2.42 6.27,2.04 -0.02,0.02 -2.45,4.87 -5.56,1.46 z m 3.06,9.73 c 0,-2.32 0.44,-6.11 4.18,-4.95 4.98,1.56 1.4,11.45 -3.12,7.32 z m 8.48,-140.457 -4.25,-1.067 -7.72,-7.719 v -6.652 h 9.85 l 13.83,7.719 z m -74.852,104.387 -1.066,-7.18 7.852,-0.54 5.722,-8.51 2.129,2.13 -0.531,6.12 -3.063,0.4 0.668,5.85 -4.793,-1.06 -2.128,4.13 z m -44.843,-75.313 c 0.398,-1.067 -0.266,-6.52 1.332,-6.52 1.597,0 7.586,2.528 7.586,2.528 l -5.059,4.125 z m 7.187,9.316 0.531,-6.785 7.586,2.793 -1.464,5.191 z m 101.278,31.677 c 0.79,-0.41 4.52,-2.67 4.52,-2.67 l 0.93,-3.06 8.65,7.32 -2.53,5.72 -4.66,-1.73 z m -12.782,-11.18 0.668,-3.73 9.574,1.46 -0.26,5.99 3.33,2.66 -3.6,1.6 -0.66,4.66 h -6.392 l -1.199,3.86 -6.117,0.13 -0.133,-9.71 3.461,-0.94 -5.457,-8.51 2.262,-0.53 z m -45.777,10.78 17.168,0.26 0.934,7.19 c 0,0 -2.266,5.05 -3.063,5.05 -0.801,0 -8.516,-2.39 -8.516,-2.39 l -3.726,-2.4 z m -7.719,0.4 -1.328,-11.32 -5.191,2.13 -0.133,5.86 -3.192,1.73 c 0,0 3.192,4.79 4.391,5.32 1.195,0.53 5.988,3.33 5.988,3.33 l 4.391,-1.87 z m -15.699,-15.71 -0.402,-9.447 -11.575,0.933 0.395,4.657 7.453,6.257 -0.129,7.98 -9.586,-0.93 1.598,6.52 2.93,3.86 10.246,-3.19 5.59,-12.11 0.398,-3.86 z m 25.812,-5.584 0.27,-7.051 -1.199,-3.597 -7.586,5.457 0.398,4.257 c 0,0 3.992,1.731 4.922,1.864 0.934,0.132 3.195,-0.93 3.195,-0.93 z m 26.348,-2 -4.203,-2.789 4.871,-6.656 -1.598,-15.039 -4.793,2.128 -1.46,3.727 -15.571,8.387 3.594,2.261 -3.727,3.59 1.864,4.926 c 0,0 4.125,-2.664 6.519,-2.664 2.395,0 6.125,1.199 6.125,1.199 l 0.531,7.184 H 970 Z m -92.75,-3.059 c 0.797,-0.269 3.457,-1.863 3.457,-1.863 l 1.996,-7.32 6.121,-0.137 -0.797,8.387 -5.855,11.976 -1.332,-7.449 z m 149.437,68.933 2.4,-13.04 7.18,1.33 -4.79,10.38 z m -1.33,-16.24 -18.1,0.27 8.25,-7.72 9.32,3.19 z m -36.732,-56.154 -5.324,-12.511 -7.184,13.043 1.332,4.257 z m 12.512,4.258 2.93,-8.785 -0.81,-8.25 -6.91,-4.523 -1.866,9.047 3.726,9.847 z m -76.121,-15.172 19.961,-15.968 -1.594,-3.196 -22.891,14.641 z m -1.063,7.188 29.539,-21.293 5.325,2.129 -30.34,25.019 z m 4.114,-31.543 6.183,-3.809 3.809,-8.562 -5.949,3.332 -8.329,0.238 -12.609,6.899 -8.246,-0.09 6.652,9.578 1.067,3.465 17.566,-0.535 -1.598,-6.122 z m 32.082,-0.66 5.648,-5.059 v -14.637 l -16.027,5.321 -6.121,3.461 3.992,3.461 7.449,2.394 z m 95.218,4.195 c -0.07,0.863 -1.67,5.984 -1.67,5.984 l -4.85,-3.656 c 0,0 -0.6,-3.793 0.06,-3.793 0.67,0 4.86,0 4.86,0 z m 7.58,-1.93 c 1.07,0.063 6.53,1.664 6.53,1.664 l 5.12,-2.398 -2.93,-2.398 -9.91,0.871 z m -2.52,12.973 3.99,-7.187 -5.52,-1.86 -0.8,7.051 z m -11.72,10.379 -2.93,-15.703 -5.05,6.922 3.72,8.515 z m -20.76,25.546 8.26,-12.769 -16.5,-0.801 z m -7.18,-18.359 2.39,-18.632 12.51,8.519 v -4.523 l -20.49,-14.375 -2.13,9.316 -6.65,4.524 z m -18.1,-19.961 -0.26,-6.652 7.18,-4.527 -17.567,-11.977 0.8,13.043 2.93,7.985 z m 31.93,-9.449 3.2,-3.062 -8.52,-9.848 -4.52,1.332 0.27,8.383 5.72,1.863 -0.67,2.528 h 3.33 l 1.19,-1.196" /><path
         id="path38"
         style="fill:#ffffff;fill-opacity:1;fill-rule:nonzero;stroke:none"
         d="m 382.344,1029.35 -81.996,14.88 7.664,42.22 c 1.422,7.82 3.179,13.7 5.281,17.57 2.086,3.9 5.191,6.79 9.281,8.67 4.106,1.88 8.781,2.33 14.012,1.38 4.543,-0.82 8.301,-2.51 11.246,-5.06 2.973,-2.53 5.16,-5.69 6.602,-9.47 0.906,-2.4 1.453,-5.58 1.629,-9.49 1.558,2.83 2.949,4.85 4.21,6.04 0.836,0.79 2.532,1.88 5.047,3.26 2.516,1.36 4.426,2.23 5.739,2.61 l 25.921,8.01 -5.195,-28.63 -27.465,-9 c -3.55,-1.13 -5.929,-2.27 -7.148,-3.43 -1.59,-1.61 -2.598,-3.57 -3.016,-5.88 l -0.406,-2.23 33.211,-6.03 z m -44.055,34.26 1.945,10.7 c 0.207,1.15 0.231,3.47 0.09,6.92 -0.015,1.75 -0.625,3.27 -1.832,4.58 -1.199,1.32 -2.683,2.14 -4.476,2.46 -2.657,0.48 -4.852,0.02 -6.567,-1.41 -1.738,-1.41 -3.015,-4.43 -3.859,-9.07 l -2.024,-11.15 z m -18.726,81.17 21.98,65.31 16.879,-5.69 -13.738,-40.81 12.578,-4.23 12.734,37.83 16.106,-5.42 -12.735,-37.84 15.551,-5.23 14.145,42.03 17.875,-6.02 -22.391,-66.51 z m 79.156,61.82 9.726,22.48 c 3.762,-1.33 6.95,-1.73 9.524,-1.21 4.195,0.84 7.414,3.45 9.652,7.84 1.664,3.27 2.188,6.18 1.547,8.73 -0.633,2.56 -1.965,4.35 -3.988,5.38 -1.918,0.98 -4.071,1.02 -6.446,0.12 -2.375,-0.9 -5.781,-4.08 -10.269,-9.53 -7.371,-8.91 -14.024,-14.54 -19.953,-16.92 -5.942,-2.42 -11.809,-2.15 -17.617,0.81 -3.805,1.93 -6.836,4.87 -9.098,8.81 -2.281,3.94 -3.25,8.62 -2.93,14.05 0.328,5.43 2.457,12 6.395,19.73 4.828,9.49 10.273,15.82 16.347,19 6.067,3.18 13.184,3.27 21.379,0.3 l -9.703,-22.23 c -3.66,1.15 -6.73,1.19 -9.187,0.13 -2.477,-1.07 -4.535,-3.22 -6.176,-6.45 -1.356,-2.67 -1.817,-4.98 -1.383,-6.9 0.441,-1.92 1.481,-3.3 3.106,-4.13 1.171,-0.59 2.511,-0.58 4.015,0.03 1.524,0.55 3.727,2.65 6.629,6.27 7.266,8.92 13.113,14.98 17.527,18.18 4.422,3.21 8.762,4.98 13.051,5.28 4.274,0.31 8.438,-0.57 12.5,-2.64 4.754,-2.42 8.477,-5.97 11.168,-10.65 2.664,-4.69 3.86,-9.91 3.524,-15.7 -0.329,-5.78 -2.321,-12.25 -5.981,-19.44 -6.426,-12.62 -13.312,-20.13 -20.644,-22.51 -7.332,-2.39 -14.903,-2 -22.715,1.17 z m -3.864,111.53 13.915,21.78 70.218,-44.89 -13.914,-21.77 z m 69.629,5.91 13.84,20.2 c 3.442,-2.02 6.492,-3.03 9.114,-3.01 4.281,0.03 7.941,1.97 10.976,5.86 2.254,2.89 3.324,5.64 3.18,8.27 -0.129,2.63 -1.094,4.64 -2.883,6.04 -1.695,1.32 -3.801,1.79 -6.301,1.35 -2.508,-0.43 -6.457,-2.91 -11.906,-7.39 -8.938,-7.35 -16.539,-11.6 -22.816,-12.8 -6.29,-1.24 -12,0.14 -17.141,4.15 -3.359,2.63 -5.774,6.09 -7.242,10.39 -1.485,4.31 -1.547,9.08 -0.196,14.35 1.36,5.26 4.707,11.32 10.043,18.15 6.555,8.39 13.106,13.57 19.68,15.52 6.559,1.97 13.57,0.7 21.043,-3.78 l -13.77,-19.96 c -3.375,1.82 -6.382,2.44 -8.996,1.87 -2.632,-0.57 -5.062,-2.29 -7.296,-5.15 -1.836,-2.36 -2.731,-4.54 -2.668,-6.51 0.062,-1.96 0.82,-3.52 2.257,-4.64 1.039,-0.81 2.356,-1.05 3.946,-0.74 1.601,0.25 4.164,1.89 7.707,4.88 8.836,7.38 15.73,12.21 20.675,14.5 4.954,2.31 9.551,3.22 13.821,2.7 4.25,-0.52 8.172,-2.18 11.765,-4.99 4.204,-3.28 7.18,-7.47 8.926,-12.58 1.719,-5.11 1.899,-10.46 0.457,-16.08 -1.426,-5.61 -4.613,-11.59 -9.578,-17.94 -8.719,-11.16 -16.914,-17.22 -24.566,-18.16 -7.649,-0.94 -15.008,0.89 -22.071,5.5 z m 15.954,107.73 56.621,54.13 14.238,-14.89 -19.012,-18.17 43.352,-45.35 -18.594,-17.78 -43.355,45.35 -19.012,-18.18 z m 75.593,68.59 56.215,39.85 10.297,-14.53 -35.133,-24.91 7.676,-10.82 32.57,23.09 9.828,-13.87 -32.574,-23.08 9.488,-13.39 36.18,25.64 10.906,-15.38 -57.261,-40.59 z m 80.106,54.03 21.441,10.86 48.672,-26.93 -20.789,41.06 21.699,10.98 37.653,-74.34 -21.7,-10.99 -48.398,26.78 20.676,-40.83 -21.598,-10.93 z m 168.855,16.32 23.578,-0.42 c 0.262,-6.5 -0.597,-12.25 -2.605,-17.21 -1.981,-4.97 -5,-9.15 -9.082,-12.54 -4.063,-3.38 -9.688,-6.09 -16.875,-8.12 -8.738,-2.47 -16.211,-3.2 -22.465,-2.25 -6.242,0.98 -12.262,4.1 -18.074,9.34 -5.809,5.23 -10.129,12.84 -12.93,22.78 -3.742,13.25 -3.09,24.44 1.957,33.57 5.07,9.1 14.055,15.48 26.973,19.13 10.101,2.85 18.629,3.05 25.57,0.6 6.926,-2.46 13.004,-7.52 18.195,-15.2 l -20.48,-11 c -1.449,2.21 -2.754,3.76 -3.91,4.64 -1.934,1.49 -4.039,2.47 -6.324,2.91 -2.305,0.46 -4.684,0.33 -7.172,-0.37 -5.637,-1.59 -9.313,-5.07 -11.032,-10.41 -1.312,-3.98 -0.972,-9.56 1.047,-16.71 2.504,-8.89 5.563,-14.58 9.203,-17.12 3.633,-2.52 7.887,-3.1 12.778,-1.72 4.742,1.34 7.953,3.68 9.629,7.03 1.679,3.34 2.343,7.7 2.019,13.07 z m 29.383,57.79 25.426,4.62 14.883,-82 -25.426,-4.62 z m 108.531,-56.4 -29.093,-2.22 -3.137,-14.01 -26.207,-2 24.945,85.49 28.106,2.14 37.472,-80.73 -26.887,-2.05 z m -6.808,17.58 -11.348,29.17 -6.836,-30.56 z m 84.902,-4.95 24.45,-1.5 c 0.03,-3.99 0.74,-7.12 2.1,-9.37 2.22,-3.66 5.77,-5.8 10.66,-6.41 3.64,-0.45 6.56,0.05 8.73,1.52 2.2,1.47 3.43,3.33 3.7,5.58 0.27,2.14 -0.41,4.18 -2.07,6.1 -1.66,1.93 -5.81,4.05 -12.46,6.42 -10.89,3.89 -18.45,8.23 -22.7,13 -4.3,4.76 -6.04,10.37 -5.24,16.84 0.53,4.23 2.26,8.09 5.19,11.55 2.94,3.49 7,5.99 12.21,7.54 5.22,1.54 12.13,1.77 20.74,0.7 10.57,-1.31 18.37,-4.27 23.42,-8.91 5.06,-4.61 7.57,-11.28 7.56,-20 l -24.2,1.57 c -0.16,3.82 -1.17,6.73 -3,8.68 -1.85,1.96 -4.57,3.16 -8.18,3.61 -2.96,0.37 -5.29,0.01 -6.95,-1.05 -1.66,-1.06 -2.6,-2.51 -2.82,-4.32 -0.16,-1.31 0.31,-2.56 1.39,-3.77 1.03,-1.24 3.76,-2.6 8.15,-4.1 10.86,-3.8 18.55,-7.23 23.05,-10.3 4.53,-3.06 7.67,-6.54 9.41,-10.47 1.75,-3.91 2.34,-8.13 1.77,-12.66 -0.65,-5.29 -2.72,-10 -6.21,-14.12 -3.5,-4.09 -8,-7 -13.56,-8.65 -5.55,-1.66 -12.31,-2 -20.32,-1 -14.05,1.75 -23.45,5.67 -28.19,11.75 -4.74,6.09 -6.95,13.34 -6.63,21.77 z m 106.52,39.22 41.22,-11.63 c 8.98,-2.53 15.1,-6.56 18.38,-12.1 3.25,-5.53 3.77,-12.25 1.55,-20.15 -2.29,-8.11 -6.52,-13.76 -12.68,-16.94 -6.16,-3.2 -14.25,-3.38 -24.26,-0.56 l -13.59,3.84 -8.37,-29.69 -24.88,7.01 z m 15.19,-41.3 6.11,-1.72 c 4.82,-1.36 8.43,-1.47 10.85,-0.36 2.41,1.11 3.98,2.97 4.71,5.57 0.71,2.51 0.47,4.88 -0.73,7.11 -1.19,2.23 -4.11,4.01 -8.78,5.32 l -7.1,2 z m 56.7,-24.54 c 5.58,12.4 13.37,20.5 23.39,24.29 10.04,3.8 21.21,2.92 33.56,-2.63 12.65,-5.7 20.87,-13.48 24.66,-23.34 3.79,-9.87 2.93,-20.92 -2.58,-33.15 -3.99,-8.88 -8.76,-15.48 -14.3,-19.81 -5.54,-4.34 -11.87,-6.81 -18.94,-7.43 -7.08,-0.62 -14.83,0.97 -23.27,4.77 -8.56,3.85 -15.04,8.4 -19.44,13.66 -4.38,5.27 -6.99,11.64 -7.82,19.12 -0.84,7.45 0.74,15.64 4.74,24.52 z m 23.43,-10.61 c -3.45,-7.66 -4.5,-13.83 -3.16,-18.45 1.37,-4.64 4.5,-8.07 9.42,-10.28 5.04,-2.27 9.71,-2.39 13.94,-0.36 4.26,2.04 8.28,7.29 12.11,15.8 3.22,7.15 4.12,13.02 2.71,17.61 -1.41,4.61 -4.58,8.02 -9.53,10.24 -4.74,2.14 -9.32,2.17 -13.69,0.12 -4.39,-2.04 -8.32,-6.95 -11.8,-14.68 z m 50.4,-70.68 48.34,67.89 34.96,-24.89 c 6.47,-4.62 11.04,-8.71 13.66,-12.26 2.64,-3.54 3.93,-7.58 3.89,-12.08 -0.05,-4.52 -1.62,-8.94 -4.71,-13.27 -2.68,-3.76 -5.8,-6.44 -9.36,-8.03 -3.55,-1.62 -7.34,-2.25 -11.38,-1.95 -2.55,0.21 -5.66,1.06 -9.28,2.56 1.9,-2.61 3.13,-4.73 3.68,-6.37 0.36,-1.1 0.62,-3.1 0.8,-5.96 0.16,-2.85 0.14,-4.96 -0.08,-6.3 l -3.77,-26.87 -23.7,16.88 3.53,28.68 c 0.49,3.7 0.47,6.33 -0.07,7.93 -0.77,2.12 -2.12,3.87 -4.03,5.23 l -1.85,1.32 -19.58,-27.5 z m 49.74,25.31 8.87,-6.31 c 0.95,-0.68 3.04,-1.69 6.22,-3.03 1.59,-0.73 3.23,-0.82 4.92,-0.29 1.71,0.52 3.08,1.52 4.14,3 1.56,2.2 2.07,4.39 1.51,6.55 -0.54,2.17 -2.73,4.61 -6.57,7.35 l -9.23,6.57 z m 76.38,-12.81 56.63,-54.12 -14.24,-14.9 -19.01,18.17 -43.35,-45.35 -18.59,17.78 43.34,45.35 -19.01,18.18 z m 92.13,-177.97 7.5,-22.36 c -6.03,-2.43 -11.73,-3.54 -17.08,-3.31 -5.35,0.2 -10.29,1.64 -14.86,4.35 -4.55,2.7 -8.99,7.09 -13.31,13.18 -5.25,7.4 -8.45,14.2 -9.64,20.42 -1.17,6.2 -0.24,12.92 2.74,20.15 2.98,7.22 8.7,13.85 17.12,19.82 11.24,7.96 22,11.1 32.29,9.4 10.28,-1.72 19.3,-8.05 27.07,-19 6.06,-8.56 9.12,-16.53 9.13,-23.89 0,-7.35 -2.73,-14.77 -8.23,-22.24 l -17.22,15.61 c 1.59,2.11 2.62,3.86 3.06,5.24 0.76,2.32 0.97,4.64 0.62,6.94 -0.33,2.32 -1.25,4.52 -2.75,6.63 -3.39,4.78 -7.89,7.07 -13.5,6.91 -4.19,-0.1 -9.34,-2.3 -15.4,-6.59 -7.53,-5.34 -11.87,-10.13 -13.04,-14.41 -1.16,-4.27 -0.28,-8.47 2.66,-12.61 2.85,-4.03 6.13,-6.27 9.85,-6.72 3.71,-0.46 8.04,0.37 12.99,2.48 z m 65.09,-11.81 11.62,-22.95 -56.07,-28.4 18.2,-35.92 -18.28,-9.26 -29.82,58.87 z m 55.17,-128.79 8.38,-24.32 -46.95,-16.16 c -4.63,-1.6 -9.29,-2.39 -13.91,-2.36 -4.65,0.03 -9.04,1.05 -13.22,3.09 -4.16,2.03 -7.44,4.53 -9.88,7.49 -3.37,4.13 -6.21,9.51 -8.49,16.13 -1.32,3.84 -2.48,8.11 -3.51,12.83 -1.03,4.71 -1.27,8.87 -0.73,12.47 0.55,3.59 1.85,7.15 3.92,10.68 2.06,3.54 4.49,6.31 7.29,8.32 4.49,3.23 8.67,5.51 12.54,6.84 l 46.94,16.16 8.37,-24.32 -48.05,-16.55 c -4.3,-1.48 -7.24,-3.82 -8.83,-7.02 -1.6,-3.21 -1.68,-6.93 -0.22,-11.15 1.43,-4.17 3.75,-7.04 6.96,-8.6 3.18,-1.55 6.97,-1.58 11.33,-0.08 z m 14.65,-53.56 8.62,-47.47 c 1.43,-7.9 0.57,-14.33 -2.57,-19.27 -3.15,-4.95 -7.61,-7.95 -13.4,-9 -4.84,-0.88 -9.28,-0.13 -13.28,2.28 -2.7,1.58 -5.05,4.21 -7.11,7.84 -0.34,-6.15 -1.98,-10.91 -4.93,-14.32 -2.95,-3.39 -7.03,-5.57 -12.24,-6.52 -4.26,-0.77 -8.26,-0.47 -12.01,0.88 -3.76,1.37 -6.92,3.59 -9.52,6.64 -1.61,1.92 -3.09,4.97 -4.42,9.16 -1.79,5.57 -2.86,9.28 -3.2,11.15 l -7.93,43.75 z m -27.54,-31.38 2.01,-11.05 c 0.71,-3.95 1.9,-6.59 3.54,-7.89 1.65,-1.3 3.76,-1.73 6.34,-1.26 2.38,0.43 4.11,1.56 5.16,3.35 1.08,1.79 1.25,4.62 0.56,8.46 l -2.04,11.22 z m -32.18,-5.84 2.34,-12.92 c 0.8,-4.37 2.14,-7.3 4.01,-8.82 1.87,-1.51 4.09,-2.03 6.7,-1.56 2.43,0.44 4.22,1.67 5.37,3.72 1.15,2.04 1.32,5.29 0.51,9.73 l -2.33,12.87 -16.6,-3.02" /><path
         id="path40"
         style="fill:#ffffff;fill-opacity:1;fill-rule:nonzero;stroke:none"
         d="m 824.035,403.609 -22.715,-81.632 -22.539,6.273 14.864,53.41 c -4.418,-1.75 -8.567,-2.992 -12.461,-3.738 -3.895,-0.754 -8.629,-1.203 -14.2,-1.324 l 5.055,18.164 c 8.27,0.355 15,1.664 20.141,3.937 5.168,2.289 9.644,5.633 13.425,10.035 z m 43.004,-76.859 23.227,0.137 c 0.222,-3.227 0.976,-5.602 2.246,-7.063 1.293,-1.484 2.965,-2.34 5.031,-2.59 3.699,-0.433 6.785,1.075 9.309,4.543 1.828,2.578 3.652,8.243 5.453,17.012 -3.09,-2.504 -6.149,-4.23 -9.211,-5.195 -3.051,-0.989 -6.481,-1.242 -10.293,-0.793 -7.414,0.879 -13.36,4.258 -17.844,10.121 -4.484,5.883 -6.234,12.851 -5.281,20.902 0.652,5.492 2.539,10.348 5.672,14.567 3.132,4.199 7.125,7.203 11.945,8.98 4.82,1.77 10.68,2.246 17.578,1.43 8.281,-0.981 14.742,-3.192 19.414,-6.617 4.668,-3.446 8.141,-8.426 10.395,-14.965 2.254,-6.535 2.789,-14.883 1.582,-25.055 -1.766,-14.926 -6.199,-25.48 -13.324,-31.687 -7.106,-6.192 -16.219,-8.629 -27.375,-7.305 -6.586,0.777 -11.68,2.144 -15.317,4.121 -3.613,1.969 -6.508,4.578 -8.687,7.789 -2.176,3.227 -3.692,7.113 -4.52,11.668 z m 46.758,31.906 c 0.535,4.489 -0.188,8.129 -2.141,10.942 -1.949,2.808 -4.554,4.406 -7.793,4.789 -3.062,0.363 -5.718,-0.496 -8.015,-2.543 -2.293,-2.055 -3.707,-5.387 -4.25,-9.992 -0.551,-4.622 0.07,-8.289 1.879,-10.985 1.793,-2.691 4.265,-4.234 7.386,-4.605 3.235,-0.383 6.075,0.492 8.512,2.605 2.422,2.113 3.902,5.379 4.422,9.789 z m 112.023,29.227 6.45,-84.485 -23.32,-1.781 -4.22,55.281 c -3.56,-3.148 -7.039,-5.73 -10.445,-7.761 -3.402,-2.032 -7.703,-4.071 -12.898,-6.078 l -1.438,18.796 c 7.656,3.153 13.539,6.676 17.602,10.567 4.079,3.91 7.149,8.578 9.199,14.008 z m 51.43,5.277 65.89,15.211 3.52,-15.238 c -4.54,-6.481 -8.03,-13.18 -10.5,-20.102 -2.96,-8.386 -4.75,-17.359 -5.38,-26.961 -0.55,-7.472 -0.07,-16.062 1.38,-25.761 l -22.45,-5.184 c -1.28,13.66 -1.07,25.414 0.66,35.273 1.73,9.856 5.52,20.844 11.39,32.969 l -40.12,-9.262 -4.39,19.055" /><path
         id="path42"
         style="fill:#c08e5c;fill-opacity:1;fill-rule:evenodd;stroke:none"
         d="m 415.066,694.008 c 15.289,0 27.684,-12.391 27.684,-27.676 0,-15.289 -12.395,-27.68 -27.684,-27.68 -15.281,0 -27.675,12.391 -27.675,27.68 0,15.285 12.394,27.676 27.675,27.676" /><path
         id="path44"
         style="fill:#c08e5c;fill-opacity:1;fill-rule:evenodd;stroke:none"
         d="m 1531.82,694.008 c 15.28,0 27.67,-12.391 27.67,-27.676 0,-15.289 -12.39,-27.68 -27.67,-27.68 -15.29,0 -27.68,12.391 -27.68,27.68 0,15.285 12.39,27.676 27.68,27.676" /></g></g></svg>