<?xml version="1.0" encoding="UTF-8" standalone="no"?>
<svg
   xmlns:dc="http://purl.org/dc/elements/1.1/"
   xmlns:cc="http://creativecommons.org/ns#"
   xmlns:rdf="http://www.w3.org/1999/02/22-rdf-syntax-ns#"
   xmlns:svg="http://www.w3.org/2000/svg"
   xmlns="http://www.w3.org/2000/svg"
   viewBox="0 0 257.33334 257.33334"
   height="257.33334"
   width="257.33334"
   xml:space="preserve"
   id="svg2"
   version="1.1"><metadata
     id="metadata8"><rdf:RDF><cc:Work
         rdf:about=""><dc:format>image/svg+xml</dc:format><dc:type
           rdf:resource="http://purl.org/dc/dcmitype/StillImage" /></cc:Work></rdf:RDF></metadata><defs
     id="defs6" /><g
     transform="matrix(1.3333333,0,0,-1.3333333,0,257.33333)"
     id="g10"><g
       transform="scale(0.1)"
       id="g12"><path
         id="path14"
         style="fill:#ffffff;fill-opacity:1;fill-rule:evenodd;stroke:none"
         d="M 0,1927.56 H 1927.56 V 0 H 0 v 1927.56" /><path
         id="path16"
         style="fill:#ffffff;fill-opacity:1;fill-rule:evenodd;stroke:none"
         d="m 964.203,1842.52 c 484.327,0 877.897,-393.57 877.897,-878.739 0,-485.176 -393.57,-878.7419 -877.897,-878.7419 -485.172,0 -878.7382,393.5659 -878.7382,878.7419 0,485.169 393.5662,878.739 878.7382,878.739" /><path
         id="path18"
         style="fill:#1170b8;fill-opacity:1;fill-rule:evenodd;stroke:none"
         d="m 964.203,1814.53 c 469.057,0 849.907,-380.85 849.907,-850.749 0,-469.906 -380.85,-850.75 -849.907,-850.75 -469.902,0 -850.746,380.844 -850.746,850.75 0,469.899 380.844,850.749 850.746,850.749" /><path
         id="path20"
         style="fill:#ffffff;fill-opacity:1;fill-rule:evenodd;stroke:none"
         d="m 964.203,1783.14 c 452.097,0 819.367,-367.27 819.367,-819.359 0,-452.093 -367.27,-819.367 -819.367,-819.367 -452.941,0 -819.363,367.274 -819.363,819.367 0,452.089 366.422,819.359 819.363,819.359" /><path
         id="path22"
         style="fill:#1170b8;fill-opacity:1;fill-rule:evenodd;stroke:none"
         d="m 964.203,1609.26 c 356.247,0 645.487,-289.23 645.487,-645.479 0,-356.25 -289.24,-645.484 -645.487,-645.484 -357.094,0 -646.332,289.234 -646.332,645.484 0,356.249 289.238,645.479 646.332,645.479" /><path
         id="path24"
         style="fill:#ffffff;fill-opacity:1;fill-rule:evenodd;stroke:none"
         d="m 645.277,1354.8 0.852,4.24 6.785,-6.78 -3.391,-19.51 -5.941,12.72 3.395,1.7 -5.09,5.94 z m 0,0 0.852,4.24 6.785,-6.78 -3.391,-19.51 -5.941,12.72 3.395,1.7 -5.09,5.94 z m 224.778,106.88 -1.7,1.69 -9.328,-4.24 9.328,-4.24 5.942,1.7 z m -46.653,36.47 -18.66,-8.49 -0.847,-5.93 33.925,6.78 0.848,4.25 -5.934,0.85 v 3.39 z m -11.027,-29.69 26.293,21.2 6.789,-11.87 13.57,5.94 0.848,-16.96 -8.48,-6.79 -12.727,5.94 -26.293,-2.55 z m 49.199,15.27 2.543,3.4 h -5.937 z m 8.481,-7.63 -2.547,5.93 4.242,-1.69 2.547,5.09 h 11.023 l -6.785,-5.09 4.242,-0.85 -2.543,-5.09 -8.484,-2.55 z m 22.902,20.35 -5.09,-4.24 -9.332,3.4 11.028,5.08 z m 12.723,8.48 h -4.242 l 1.699,5.09 4.238,-2.54 z m -6.785,4.25 -4.243,-4.25 -5.937,4.25 3.394,4.24 z m -30.54,-6.79 5.942,-4.24 -7.637,-4.24 h -17.812 l 9.332,11.02 5.937,-6.78 z m -15.265,5.94 9.332,0.85 -4.242,-3.39 -16.965,-0.86 z m 61.918,7.63 5.941,3.39 7.633,-9.33 -16.117,-5.09 -1.695,6.79 z m -12.723,-15.27 -5.09,-0.85 6.789,-2.54 -1.699,-9.33 26.297,-2.54 7.633,4.23 -6.785,3.4 -17.813,-1.7 -4.242,4.25 5.938,0.84 z m -4.242,-6.78 v -5.09 l -5.934,1.69 z m -5.934,-7.64 12.723,-2.54 -20.359,-8.48 z m 51.739,-36.47 4.242,-5.09 -7.633,-1.69 z m -11.875,63.62 -8.481,7.63 41.559,1.7 -32.227,-28.84 -17.816,3.39 16.965,11.03 -0.848,5.09 z m 5.09,-32.24 7.632,-4.23 -11.023,-0.85 -2.547,5.08 z m 83.127,-16.11 10.18,-4.24 h -10.18 z m -95.85,-562.359 1.695,-6.789 -7.633,-7.633 -4.242,7.633 3.395,4.242 -12.723,6.785 -12.723,-8.484 3.391,-6.781 -4.238,-3.395 -12.727,10.176 -12.722,2.547 -0.848,0.847 -17.813,17.813 -1.695,-4.238 -5.937,4.238 -0.852,11.027 -0.848,0.848 -14.418,21.207 -3.394,3.391 -9.328,-1.696 -13.571,6.785 h -0.847 l -11.875,3.395 -7.633,6.785 -0.848,0.848 -10.179,11.875 -14.422,5.937 -0.848,-0.847 -10.18,-4.243 -13.57,5.09 -47.496,29.686 -11.879,13.57 -4.242,11.03 5.094,8.48 -1.7,13.57 -15.265,31.39 -6.789,5.08 3.394,6.79 -14.418,27.99 -1.695,25.45 -9.332,11.02 v -1.69 l -3.395,-21.21 11.028,-33.93 0.851,-25.44 7.633,-10.18 -6.785,-5.09 -11.875,21.21 3.391,10.18 -4.243,13.56 -3.394,-0.84 -7.633,11.02 h 5.938 l 3.394,6.79 -7.633,15.27 v 29.68 0 l -3.394,16.12 -9.332,8.48 v 18.66 l 1.699,13.57 5.937,2.55 -5.937,0.85 3.394,22.9 8.481,12.72 0.848,0.85 23.75,35.63 h 4.242 l -3.395,2.54 7.633,15.27 7.637,-2.55 -3.395,-5.94 9.332,12.73 v 13.57 l -7.633,9.33 6.782,10.18 -2.543,1.69 6.789,16.12 5.933,4.24 -4.238,-0.85 9.328,10.18 -7.636,-2.54 18.664,28.84 -11.875,-5.1 5.937,9.34 -8.48,10.18 5.933,10.17 -24.594,-4.24 29.688,14.42 -40.715,-17.81 -27.992,-6.78 -4.242,3.38 h 0.847 l 36.473,12.73 -7.633,-0.85 21.207,16.12 -11.027,-2.55 16.117,12.73 31.379,7.63 h -5.086 l 13.57,12.72 h 8.485 l -5.942,-6.78 11.028,6.78 16.965,10.18 h 26.296 l -0.847,-20.36 1.691,-11.02 28.84,4.24 21.207,-20.36 -7.633,-1.69 17.809,-2.55 v -9.33 l 16.965,12.72 7.636,-9.33 15.266,2.55 10.18,-3.4 8.48,2.55 -5.086,9.33 11.871,10.18 5.09,-22.9 6.785,5.94 1.7,-12.73 13.57,8.48 -0.848,6.79 9.332,-0.85 4.239,-5.94 -5.09,-1.69 2.547,-8.48 -20.36,-5.94 -12.722,-12.72 -37.321,-16.97 -9.328,-16.96 8.481,-3.39 -2.547,-13.58 9.332,2.55 46.652,-19.51 -1.695,-17.81 5.086,-16.97 15.269,1.7 1.696,10.18 -4.239,17.81 21.203,12.72 -13.57,20.36 9.328,5.09 -5.086,19.51 21.203,1.7 11.875,-9.34 11.028,-1.69 -5.09,-18.66 25.445,0.85 0.848,10.17 4.247,4.24 11.87,-16.11 11.03,-7.64 -6.79,-3.39 35.62,-14.42 -19.5,-7.63 5.09,-3.4 16.11,8.49 9.33,-4.24 5.09,-11.88 -14.42,-8.48 -7.63,-9.33 -41.56,-2.54 -21.21,-18.66 -7.633,-11.88 16.961,16.12 22.902,5.93 5.09,-5.09 -15.27,-5.08 12.73,-1.7 -1.7,-6.79 11.03,-9.33 21.2,-4.24 -21.2,-7.63 -8.48,-11.03 -5.94,9.33 19.51,9.33 -27.99,-3.39 0.84,-5.09 -22.05,-9.33 -5.09,-12.72 8.485,-5.94 -33.082,-10.18 1.695,-4.24 -7.633,-11.88 -4.242,5.94 2.547,-10.18 -5.938,-12.72 -0.847,22.9 -4.242,-3.39 5.089,-30.54 -6.789,-0.85 7.637,-3.39 -5.937,-8.48 -41.563,-25.45 -5.937,-15.26 11.027,-37.33 -2.547,-16.11 -7.633,-2.55 -5.09,8.49 -8.48,20.35 v 13.57 l -9.332,9.34 -11.871,-3.4 -8.485,8.48 -15.265,-1.69 -20.36,2.54 0.848,-10.18 -6.781,-1.69 -9.332,6.78 -24.602,2.55 -4.238,-9.33 -11.875,-0.85 -8.481,-8.48 -1.699,-19.51 -7.633,-11.88 -3.394,-24.59 10.18,-33.09 10.179,-6.78 v 0 l 3.395,-5.09 20.355,4.24 7.633,-3.39 7.633,7.63 6.785,19.51 21.207,3.4 11.875,-5.09 -9.328,-15.27 -2.547,-16.12 -0.848,7.64 -3.394,-4.25 v -0.84 l -0.848,-15.269 -6.785,-9.332 1.695,-0.848 3.395,-1.695 H 815.77 848 l 16.965,-10.18 -0.848,-0.847 -4.242,-41.567 0.848,-0.847 10.179,-13.567 v 0 l 3.395,-5.941 11.023,-2.543 20.36,7.633 z m 5.937,-6.789 -0.847,6.789 11.875,9.328 0.847,10.18 5.938,5.086 5.09,-1.696 3.39,4.243 9.332,0.847 16.965,11.875 4.238,-2.543 -1.695,-3.394 -1.699,-11.875 -4.238,-6.785 5.09,-11.028 5.089,3.395 -4.242,15.265 14.422,15.27 4.238,-7.633 16.12,-10.18 29.69,-2.546 10.17,5.937 20.36,0.848 -9.33,-3.391 20.35,-10.176 v -8.484 l 12.73,-0.848 28.84,-23.75 29.68,-0.851 13.58,-2.543 10.17,-9.328 16.12,-22.903 -13.57,-22.902 -0.85,-16.113 20.36,4.238 0.85,-5.938 18.66,21.207 21.2,-5.941 4.25,-11.871 7.63,5.086 h 33.08 l 33.93,-16.113 3.39,-23.75 -49.19,-99.243 -34.79,-50.89 -61.07,-33.93 -4.23,-16.961 -50.05,-44.957 -13.57,-9.328 -28.84,3.391 -0.85,-4.239 8.49,-4.242 v -11.027 l -11.88,-9.332 -33.93,-4.238 -5.09,-13.571 h -18.66 l -1.69,-7.633 3.39,-5.093 -11.03,-11.028 -15.27,-5.933 11.03,-6.785 -22.902,-11.875 -5.938,-7.633 5.938,-2.547 -21.203,-6.785 2.543,4.238 -21.204,11.027 5.086,2.547 -11.875,12.723 3.395,5.09 16.113,2.543 -2.543,5.937 7.633,14.422 -11.875,0.848 4.242,11.871 -1.695,13.574 16.965,23.75 3.39,34.777 0.852,2.543 6.785,13.571 7.633,44.109 -2.547,27.988 -3.391,1.7 -54.289,33.078 -0.847,9.328 -13.567,16.965 -12.726,29.687 -22.903,24.598 2.547,2.547 -5.09,11.875 10.18,9.328 1.695,1.695 4.243,6.789 -1.7,4.238 -4.238,-5.086 -5.09,3.391 v 13.57 l 7.633,11.028 v 5.937 l 12.723,5.938 0.847,2.543 2.547,9.332 9.332,2.543 7.633,11.875 h -5.937 l 1.695,26.293 -5.938,8.484 7.633,7.633 -1.695,6.789 z m -27.992,538.608 22.903,-14.42 -5.09,-1.69 -9.328,4.24 -10.18,-5.94 -0.848,5.09 -6.785,-1.7 z m 0,0 22.903,-14.42 -5.09,-1.69 -9.328,4.24 -10.18,-5.94 -0.848,5.09 -6.785,-1.7 z m 22.055,-24.59 V 1404 l 3.39,5.94 z m 0,0 V 1404 l 3.39,5.94 z m 98.39,-95.85 15.27,-5.94 -11.87,0.85 z m 0,0 15.27,-5.94 -11.87,0.85 z m 4.24,-25.45 1.7,-4.24 12.72,-0.85 -3.39,-3.39 -6.79,1.7 -6.78,4.24 z m 0,0 1.7,-4.24 12.72,-0.85 -3.39,-3.39 -6.79,1.7 -6.78,4.24 z m 22.91,1.7 -3.4,-8.48 2.55,-5.09 8.48,4.24 -5.94,0.85 z m 0,0 -3.4,-8.48 2.55,-5.09 8.48,4.24 -5.94,0.85 z m 18.66,40.71 -11.03,-27.14 0.85,-8.48 22.9,4.24 2.54,-8.48 7.63,10.18 3.4,-8.49 7.63,-1.69 -3.39,13.57 -6.78,9.33 -12.73,-1.7 -6.79,19.51 z m 0,0 -11.03,-27.14 0.85,-8.48 22.9,4.24 2.54,-8.48 7.63,10.18 3.4,-8.49 7.63,-1.69 -3.39,13.57 -6.78,9.33 -12.73,-1.7 -6.79,19.51 z m -149.29,150.98 -6.785,-5.93 2.543,-7.64 14.422,12.72 v -9.33 l 50.89,-16.11 -5.937,-4.24 28.837,-10.18 -4.24,-12.72 -22.05,9.33 20.355,-25.45 -19.508,7.63 13.571,-12.72 -25.446,6.79 -11.027,11.02 h -20.359 l 3.394,5.94 h 16.117 l -3.394,4.24 8.484,7.64 -8.484,11.02 -8.481,-2.54 -7.636,11.02 -7.633,-3.39 -26.293,5.94 5.09,13.57 z m -22.902,-204.42 h -6.785 l 8.48,-3.39 1.699,2.55 z m 23.75,-185.75 -8.481,-1.7 z m 8.484,-5.94 -0.852,-4.24 z m 8.481,-11.03 v -5.93 z m 7.632,-8.48 -3.39,3.39 z m 0.848,-7.63 3.395,-7.64 z m 11.875,-10.18 -3.391,1.7 4.243,-1.7 -3.395,-4.24 z m 0,0 -3.391,1.7 4.243,-1.7 -3.395,-4.24 z m 12.727,-3.39 h -4.243 z m 5.085,-3.39 6.79,-2.55 z m -7.632,-6.79 -5.938,-4.24 z m -39.868,-29.69 8.485,-5.934 -9.332,-1.699 -11.875,5.933 z m -0.847,33.08 29.687,-15.27 -33.925,-4.24 5.937,6.79 -10.18,2.54 -5.937,8.49 -31.383,7.63 0.848,4.24 -8.481,0.85 -20.359,-7.63 11.027,9.32 19.508,3.4 15.27,-1.7 z m 54.289,-19.51 16.961,-0.84 16.117,-11.88 -21.207,-4.24 -3.391,1.69 -5.941,-6.781 -2.539,3.391 h -0.852 -20.355 l -5.938,5.09 19.508,0.85 -4.242,10.18 -5.09,2.54 h 16.117 z m 57.678,-12.72 -4.24,-4.24 -9.33,1.69 z m -119.6,67.86 1.699,-7.64 -4.246,3.39 z m 8.48,-68.71 8.485,-5.934 -9.332,-1.699 -11.875,5.933 z m 29.688,-538.606 1.699,-7.636 -5.09,-0.848 z m 0,0 1.699,-7.636 -5.09,-0.848 z m -9.328,-37.324 2.543,0.848 1.699,-4.238 z m 0,0 2.543,0.848 1.699,-4.238 z m 10.18,-13.57 11.875,-2.547 -6.79,-2.543 z m 0,0 11.875,-2.547 -6.79,-2.543 z m 22.902,-4.242 v -3.391 l 8.48,-4.242 21.208,1.695 -19.512,6.785 z m 108.568,552.183 v -3.394 z m -3.39,8.481 3.39,-4.242 z m -1.7,7.633 1.7,-4.243 z m -1.7,8.484 -3.39,-5.09 z m 7.64,-59.375 -1.7,-6.785 -6.78,-0.848 1.69,7.633 z m 0,0 -1.7,-6.785 -6.78,-0.848 1.69,7.633 z M 1200,832.309 v -4.243 h 4.25 z m 0,0 v -4.243 h 4.25 z m 16.12,-5.938 -5.09,-12.723 -13.57,-3.394 v 13.57 z m -166.24,-389.324 -5.09,-12.727 -13.58,-3.39 v 13.57 z m 146.73,387.629 -5.09,-5.094 0.85,6.789 z m -357.09,116.203 7.632,-10.18 -7.632,2.547 -2.547,5.934 z m 0,0 7.632,-10.18 -7.632,2.547 -2.547,5.934 z m 316.38,-383.391 5.09,-2.543 -16.97,-13.57 z m 0,0 5.09,-2.543 -16.97,-13.57 z m -154.37,109.418 8.48,-4.238 0.85,-4.242 -12.727,4.242 z m 0,0 8.48,-4.238 0.85,-4.242 -12.727,4.242 z m -190.003,689.594 2.547,-27.14 -6.785,-6.79 v 15.27 l -3.394,-1.7 -1.696,11.03 z m -46.648,42.41 14.418,6.79 3.391,-0.86 -4.239,-3.39 11.024,-2.54 z m 5.934,32.23 23.753,-5.94 -39.019,-7.63 z m 13.574,27.99 h -19.508 v -12.72 l 17.809,2.54 6.785,5.94 z m -111.965,-195.93 5.09,-3.4 -2.547,-7.63 z m 267.187,-7.64 4.239,8.49 -11.875,-3.4 1.699,-2.54 -16.117,-0.85 -5.09,-4.24 5.937,-0.85 z m -44.109,-18.66 -12.723,2.55 2.543,2.54 33.93,6.79 z m -67.855,50.89 12.722,-0.84 17.813,5.93 -5.09,-5.93 27.144,-3.4 3.391,-5.09 h -19.508 l -10.179,-9.33 5.937,2.55 -9.328,-16.97 v -12.72 h 7.633 l 6.785,25.45 11.027,9.33 10.176,-5.09 v -6.79 l -4.238,-6.78 7.633,3.39 2.546,-9.33 5.086,1.7 2.547,17.81 4.242,-5.94 10.176,1.7 -7.633,9.33 -24.597,6.78 h -0.848 l -0.848,12.72 h -6.785 l -13.574,10.18 -32.23,-18.66" /><g
         id="g26"><path
           id="path28"
           style="fill:none;stroke:#f47216;stroke-width:14.99050045;stroke-linecap:round;stroke-linejoin:round;stroke-miterlimit:2.61310005;stroke-dasharray:none;stroke-opacity:1"
           d="m 1255.99,1024 c -1.7,0 -2.54,0 -4.24,0 -3.4,-11.02 -4.25,-20.36 -4.25,-26.293 0.85,-13.57 -1.69,-25.445 -6.78,-36.472 -5.09,-13.571 -6.79,-27.141 -7.63,-40.715 0.84,2.547 0,-6.782 -5.09,-5.934 -4.24,0.848 -2.55,10.176 -2.55,7.633 -0.84,13.57 0,27.141 4.24,40.715 5.09,11.871 6.79,23.746 4.24,37.316 -1.69,5.09 -0.84,14.42 1.7,27.14 h -0.85 l -41.56,-97.538 c 1.7,2.547 -1.7,-5.938 -5.94,-4.242 -4.24,0.847 -0.85,9.332 -0.85,7.636 l 33.09,100.084 c 0,0.85 -0.85,0.85 -1.7,0.85 -6.79,-10.18 -11.03,-17.81 -12.72,-24.6 -3.4,-12.72 -9.33,-23.748 -17.82,-33.08 -9.33,-10.176 -15.26,-22.051 -19.51,-35.621 0.85,2.547 -2.54,-5.937 -6.78,-4.242 -4.24,1.695 0,10.176 -0.85,7.637 4.24,13.566 9.33,26.293 16.97,38.168 9.32,9.332 14.41,20.358 15.26,33.928 0.85,5.93 5.09,15.27 11.88,27.14 v 0 l -72.1,-81.424 c 2.55,1.695 -3.39,-5.094 -6.79,-2.547 -3.39,2.547 2.55,10.18 0.85,7.633 l 66.16,88.218 c -0.85,0 -0.85,0.84 -0.85,0.84 -13.57,-5.09 -22.9,-10.18 -27.99,-15.26 -10.17,-8.49 -20.35,-14.42 -33.08,-17.82 -13.57,-3.39 -24.59,-10.17 -35.62,-18.66 2.54,0.85 -5.94,-4.24 -7.63,0 -2.55,3.4 5.93,7.64 3.39,6.79 11.02,8.48 22.05,16.96 34.77,22.05 12.73,3.4 22.91,10.18 31.39,20.36 3.39,5.09 11.87,10.18 24.59,16.96 v 0 l -104.32,-29.68 c 2.54,0.85 -5.94,-2.55 -7.64,1.69 -1.69,4.24 7.64,6.79 5.09,5.94 l 100.09,37.32 v 1.7 c -13.57,-0.85 -22.05,-2.55 -28.84,-5.94 -11.87,-5.09 -23.75,-7.63 -36.47,-6.79 -13.57,0.85 -27.14,-2.54 -40.72,-6.78 2.55,0 -5.93,-2.55 -6.78,2.54 -0.85,4.24 7.63,5.94 5.09,5.09 13.57,5.09 26.29,9.33 40.71,10.18 12.72,-0.85 24.6,2.55 35.63,10.18 5.09,2.54 14.41,5.09 27.14,7.63 v 0.85 l -106.87,4.24 c 2.54,-0.84 -6.79,-0.84 -6.79,3.4 0,4.24 9.33,4.24 6.79,4.24 l 106.87,4.24 c 0,0.84 0,2.54 0,3.39 -11.88,4.24 -21.21,5.94 -27.99,5.09 -12.72,-0.85 -25.45,2.54 -36.47,7.63 -12.73,5.94 -26.3,7.64 -39.87,8.49 2.54,-0.85 -6.78,0.84 -5.94,5.08 0.85,4.25 10.18,2.55 7.64,2.55 13.57,0 27.14,-0.85 40.71,-5.09 11.87,-5.94 23.75,-7.64 37.32,-5.09 5.09,1.7 14.42,0.85 27.99,-2.55 v 0.85 l -97.54,44.11 c 2.54,-1.69 -5.94,1.7 -5.09,5.94 1.69,4.24 10.18,0 7.63,0.85 l 100.94,-35.63 c 0,0 0.85,0.85 0.85,1.7 -10.18,7.63 -18.66,11.87 -25.45,13.57 -11.87,3.39 -22.9,10.18 -32.23,18.66 -10.18,9.33 -22.05,15.27 -35.62,20.36 2.54,-1.7 -5.94,2.54 -3.4,5.94 1.7,4.24 10.18,0 7.63,0.84 13.58,-4.24 26.3,-9.33 37.33,-17.81 9.33,-8.48 20.35,-14.42 33.92,-16.11 5.94,0 14.43,-4.25 27.15,-11.88 v 0 l -80.58,72.95 c 2.54,-1.7 -5.09,4.24 -2.55,7.63 3.39,3.39 10.18,-2.54 7.64,-1.7 l 86.52,-67 c 0.84,0.84 0.84,0.84 1.69,1.69 -5.09,12.72 -10.18,22.06 -14.42,27.14 -8.48,10.18 -14.42,21.21 -17.81,33.08 -3.39,13.57 -10.18,25.45 -17.81,36.48 0.85,-2.55 -4.24,5.93 0,7.63 3.39,2.55 7.63,-5.94 6.78,-3.39 8.48,-11.03 16.97,-22.05 21.21,-35.63 3.39,-11.87 10.18,-22.9 19.5,-31.38 5.1,-4.24 10.18,-11.87 16.12,-24.6 h 0.85 l -27.14,104.33 c 0,-2.55 -2.55,5.94 1.69,7.63 4.25,0.85 6.79,-7.63 5.09,-5.08 l 34.78,-100.09 c 0.85,0 1.7,0.85 2.54,0.85 -0.84,11.87 -2.54,21.2 -5.09,27.14 -5.08,11.87 -6.78,24.6 -5.93,36.47 0.85,14.42 -2.55,27.99 -6.79,40.71 0.85,-2.54 -1.69,6.79 2.55,6.79 5.09,0.85 5.94,-7.63 5.09,-5.09 5.93,-13.57 9.33,-26.29 10.17,-39.86 -0.84,-13.57 1.7,-25.45 8.49,-36.48 3.39,-5.09 5.93,-13.57 7.63,-26.29 h 0.85 l 5.94,105.18 c 0,-2.55 0,6.78 4.24,6.78 4.24,0 4.24,-9.33 4.24,-6.78 l 1.69,-104.33 c 0.85,0 2.55,0 2.55,0 3.39,10.18 5.09,19.51 4.24,25.44 -0.85,12.73 1.7,25.45 6.79,36.48 5.09,12.72 7.63,26.29 7.63,39.86 -0.85,-2.54 0.85,7.64 5.09,5.94 4.24,0 2.54,-9.33 2.54,-6.79 0.85,-13.57 0,-27.99 -4.24,-40.71 -5.09,-11.87 -6.79,-24.6 -4.24,-37.32 1.7,-5.94 0.85,-14.42 -1.69,-26.3 h 0.84 l 41.57,95.85 c -0.85,-1.69 1.69,6.79 5.93,5.09 4.25,-1.69 0.85,-10.18 1.7,-7.64 l -33.93,-99.23 c 0.85,-0.85 1.7,-0.85 2.55,-1.7 6.78,10.18 10.17,17.81 11.87,24.6 3.4,12.72 9.33,22.9 17.81,32.23 9.33,11.03 15.27,22.9 19.51,36.47 -0.85,-2.54 2.54,5.94 6.79,3.4 4.24,-1.7 0,-9.33 0.84,-7.64 -4.23,-12.72 -9.32,-26.29 -16.96,-37.32 -9.33,-9.33 -14.42,-21.2 -15.27,-33.93 -0.84,-5.93 -4.24,-14.42 -11.02,-26.29 v 0 l 71.25,79.73 c -2.55,-1.7 3.39,5.94 6.78,2.54 3.4,-2.54 -2.55,-9.33 -0.85,-7.63 l -65.31,-86.52 c 0.85,-0.85 1.7,-0.85 1.7,-1.69 12.72,5.09 21.2,9.33 26.29,14.42 10.18,9.33 21.21,15.26 33.08,17.81 12.72,4.24 24.6,11.03 35.63,19.51 -1.7,-0.85 5.93,4.24 7.63,0 2.55,-4.24 -5.09,-8.48 -3.4,-6.79 -10.17,-9.33 -22.05,-16.96 -34.77,-22.05 -12.72,-3.39 -22.9,-10.18 -31.38,-20.36 -3.4,-5.09 -11.03,-10.18 -23.75,-16.11 l 0.85,-0.85 102.63,29.68 c -2.55,-0.84 5.94,2.55 7.63,-1.69 1.7,-4.24 -7.63,-6.79 -5.08,-5.94 l -99.25,-36.47 c 0.85,-0.85 0.85,-1.7 0.85,-2.55 11.88,0.85 21.21,2.55 27.15,5.94 11.87,5.09 23.75,6.79 36.46,5.94 14.43,0 27.15,2.54 40.72,7.63 -2.54,-0.85 5.94,1.7 6.78,-2.54 0.85,-4.24 -7.63,-5.94 -5.08,-5.09 -13.58,-5.94 -26.29,-10.18 -39.87,-10.18 -13.57,0 -25.44,-2.55 -36.47,-10.18 -5.09,-3.39 -13.57,-5.94 -26.29,-7.63 v -0.85 l 106.02,-4.24 c -2.54,0 6.79,0.84 6.79,-4.24 0,-4.24 -9.33,-4.24 -6.79,-3.4 l -105.18,-4.24 v -1.69 c 11.03,-3.4 19.51,-5.09 26.3,-4.25 12.72,0.85 25.44,-1.69 36.47,-6.78 12.73,-5.09 27.14,-7.63 40.71,-7.63 -2.54,0.85 6.79,0 5.94,-5.09 -0.85,-4.24 -10.18,-2.55 -7.63,-2.55 -13.58,-0.85 -27.99,0 -40.72,4.24 -11.87,5.09 -24.59,6.79 -37.32,4.25 -5.09,-1.7 -14.42,-0.85 -27.14,1.69 v -0.85 l 96.7,-41.56 c -1.7,0.85 6.78,-1.7 5.08,-5.94 -1.69,-4.24 -10.18,-0.84 -7.63,-0.84 l -100.09,33.07 c 0,-0.84 -0.85,-1.69 -0.85,-2.54 10.18,-6.79 17.82,-10.18 24.6,-11.87 12.72,-3.4 22.9,-9.34 32.24,-17.82 11.02,-9.33 22.89,-15.27 36.47,-20.36 -2.55,1.7 5.93,-1.69 3.39,-5.93 -1.7,-4.24 -9.33,0 -7.63,-0.85 -12.73,4.24 -25.45,9.33 -37.32,16.96 -9.34,9.34 -21.21,14.42 -33.93,15.27 -5.94,0.85 -15.27,4.24 -26.3,11.03 h -0.85 l 81.43,-71.252 c -2.55,1.699 5.09,-3.391 2.55,-6.782 -3.4,-3.394 -10.18,2.543 -7.64,0.848 l -87.36,65.306 c -0.85,-0.85 -0.85,-0.85 -1.7,-1.69 5.09,-12.73 10.18,-21.21 14.42,-26.3 9.33,-10.18 15.27,-21.203 17.81,-33.078 4.25,-13.57 11.03,-24.597 19.51,-36.472 -0.85,3.394 4.24,-5.086 0,-7.633 -3.39,-1.696 -7.63,6.785 -6.78,4.238 -9.34,10.18 -16.97,22.055 -22.06,34.781 -3.39,12.723 -10.18,22.894 -20.35,31.384 -5.09,3.39 -10.18,11.02 -16.12,23.75 l -0.85,-0.85 29.69,-102.631 c -0.85,2.543 2.55,-6.789 -1.7,-7.637 -4.24,-1.695 -6.78,7.637 -5.93,5.09 l -36.48,98.388 c -0.84,0 -1.69,0 -2.54,-0.85 0.85,-11.87 2.54,-20.35 5.93,-26.29 5.09,-11.873 6.79,-24.6 5.95,-36.471 0,-14.422 2.54,-27.144 7.63,-40.715 -0.85,2.543 1.69,-5.937 -2.55,-6.785 -4.24,-0.848 -5.94,7.633 -5.08,5.09 -5.95,12.723 -10.18,26.293 -10.18,39.867 0,13.567 -2.55,25.442 -10.18,36.469 -2.55,5.085 -5.94,13.575 -7.64,25.445 h -0.84 l -4.25,-105.176 c 0.85,2.547 0.85,-6.785 -4.24,-6.785 -4.24,0 -4.24,9.332 -3.39,6.785 z" /></g><path
         id="path30"
         style="fill:#fbc707;fill-opacity:1;fill-rule:evenodd;stroke:none"
         d="m 1255.99,1024 c -1.7,0 -2.54,0 -4.24,0 -3.4,-11.02 -4.25,-20.36 -4.25,-26.293 0.85,-13.57 -1.69,-25.445 -6.78,-36.473 -5.09,-13.57 -6.79,-27.14 -7.63,-40.714 0.84,2.546 0,-6.782 -5.09,-5.934 -4.24,0.848 -2.55,10.176 -2.55,7.633 -0.84,13.57 0,27.14 4.24,40.715 5.09,11.871 6.79,23.746 4.24,37.316 -1.69,5.09 -0.84,14.42 1.7,27.14 h -0.85 l -41.56,-97.538 c 1.7,2.546 -1.7,-5.938 -5.94,-4.243 -4.24,0.848 -0.85,9.332 -0.85,7.637 l 33.09,100.084 c 0,0.85 -0.85,0.85 -1.7,0.85 -6.79,-10.18 -11.03,-17.81 -12.72,-24.6 -3.4,-12.721 -9.33,-23.748 -17.82,-33.08 -9.33,-10.176 -15.26,-22.051 -19.51,-35.621 0.85,2.547 -2.54,-5.938 -6.78,-4.242 -4.24,1.695 0,10.176 -0.85,7.636 4.24,13.567 9.33,26.293 16.97,38.168 9.32,9.332 14.41,20.359 15.26,33.929 0.85,5.93 5.09,15.27 11.88,27.14 v 0 l -72.1,-81.424 c 2.55,1.695 -3.39,-5.094 -6.79,-2.547 -3.39,2.547 2.55,10.18 0.85,7.633 l 66.16,88.218 c -0.85,0 -0.85,0.84 -0.85,0.84 -13.57,-5.09 -22.9,-10.18 -27.98,-15.26 -10.18,-8.49 -20.36,-14.42 -33.09,-17.82 -13.57,-3.39 -24.59,-10.17 -35.62,-18.66 2.55,0.85 -5.94,-4.24 -7.63,0 -2.55,3.4 5.93,7.64 3.39,6.79 11.02,8.48 22.05,16.96 34.77,22.05 12.73,3.4 22.91,10.18 31.39,20.36 3.39,5.09 11.87,10.18 24.59,16.96 v 0 l -104.32,-29.68 c 2.54,0.85 -5.94,-2.55 -7.64,1.69 -1.69,4.24 7.64,6.79 5.09,5.94 l 100.09,37.32 v 1.7 c -13.57,-0.85 -22.05,-2.55 -28.84,-5.94 -11.87,-5.09 -23.75,-7.63 -36.47,-6.79 -13.57,0.85 -27.14,-2.54 -40.71,-6.78 2.54,0 -5.94,-2.55 -6.79,2.54 -0.85,4.24 7.63,5.94 5.09,5.09 13.57,5.09 26.29,9.33 40.71,10.18 12.72,-0.85 24.6,2.54 35.63,10.18 5.09,2.54 14.41,5.09 27.14,7.63 v 0.85 l -106.87,4.24 c 2.54,-0.84 -6.79,-0.84 -6.79,3.39 0,4.25 9.33,4.25 6.79,4.25 l 106.87,4.24 c 0,0.84 0,2.54 0,3.39 -11.88,4.24 -21.21,5.94 -27.99,5.09 -12.72,-0.85 -25.45,2.54 -36.47,7.63 -12.73,5.94 -26.3,7.64 -39.87,8.49 2.55,-0.85 -6.78,0.84 -5.94,5.08 0.85,4.25 10.18,2.55 7.64,2.55 13.57,0 27.14,-0.85 40.71,-5.09 11.87,-5.94 23.75,-7.64 37.32,-5.09 5.09,1.7 14.42,0.85 27.99,-2.55 v 0.85 l -97.54,44.11 c 2.54,-1.7 -5.94,1.7 -5.09,5.94 1.69,4.24 10.18,0 7.63,0.85 l 100.94,-35.63 c 0,0 0.85,0.85 0.85,1.7 -10.18,7.63 -18.66,11.87 -25.45,13.57 -11.87,3.39 -22.9,10.18 -32.23,18.66 -10.18,9.33 -22.05,15.27 -35.62,20.36 2.54,-1.7 -5.94,2.54 -3.4,5.94 1.7,4.24 10.18,0 7.63,0.84 13.58,-4.24 26.3,-9.33 37.33,-17.81 9.33,-8.48 20.35,-14.42 33.92,-16.12 5.94,0 14.43,-4.24 27.15,-11.87 v 0 l -80.58,72.95 c 2.54,-1.7 -5.09,4.24 -2.55,7.63 3.39,3.39 10.18,-2.54 7.64,-1.7 l 86.52,-67.01 c 0.84,0.85 0.84,0.85 1.69,1.7 -5.09,12.72 -10.18,22.05 -14.42,27.14 -8.48,10.18 -14.42,21.21 -17.81,33.08 -3.39,13.57 -10.18,25.45 -17.81,36.48 0.85,-2.55 -4.24,5.93 0,7.63 3.39,2.55 7.63,-5.94 6.78,-3.39 8.48,-11.03 16.97,-22.05 21.21,-35.63 3.39,-11.87 10.18,-22.9 19.5,-31.38 5.1,-4.24 10.18,-11.88 16.12,-24.6 h 0.85 l -27.14,104.33 c 0,-2.55 -2.55,5.94 1.69,7.63 4.25,0.85 6.79,-7.63 5.09,-5.08 l 34.78,-100.09 c 0.85,0 1.7,0.85 2.54,0.85 -0.84,11.87 -2.54,21.2 -5.09,27.14 -5.08,11.87 -6.78,24.6 -5.93,36.47 0.85,14.42 -2.55,27.99 -6.79,40.71 0.85,-2.54 -1.69,6.79 2.55,6.79 5.09,0.85 5.94,-7.63 5.09,-5.09 5.93,-13.57 9.33,-26.29 10.17,-39.86 -0.84,-13.58 1.7,-25.45 8.49,-36.48 3.39,-5.09 5.93,-13.57 7.63,-26.29 h 0.85 l 5.94,105.18 c 0,-2.55 0,6.78 4.24,6.78 4.24,0 4.24,-9.33 4.24,-6.78 l 1.69,-104.33 c 0.85,0 2.55,0 2.55,0 3.39,10.18 5.09,19.51 4.24,25.44 -0.85,12.73 1.7,25.45 6.79,36.48 5.09,12.72 7.63,26.29 7.63,39.86 -0.85,-2.54 0.85,7.64 5.09,5.94 4.24,0 2.54,-9.33 2.54,-6.79 0.85,-13.57 0,-27.99 -4.24,-40.71 -5.09,-11.88 -6.79,-24.6 -4.24,-37.32 1.7,-5.94 0.85,-14.42 -1.69,-26.3 h 0.84 l 41.57,95.85 c -0.85,-1.69 1.69,6.79 5.93,5.09 4.25,-1.7 0.85,-10.18 1.7,-7.64 l -33.93,-99.23 c 0.85,-0.85 1.7,-0.85 2.55,-1.7 6.78,10.18 10.17,17.81 11.87,24.6 3.4,12.72 9.33,22.9 17.81,32.23 9.33,11.03 15.27,22.9 19.51,36.47 -0.85,-2.54 2.54,5.94 6.79,3.4 4.24,-1.7 0,-9.33 0.84,-7.64 -4.23,-12.72 -9.32,-26.29 -16.96,-37.32 -9.33,-9.33 -14.42,-21.2 -15.27,-33.93 -0.84,-5.94 -4.24,-14.42 -11.02,-26.29 v 0 l 71.25,79.73 c -2.55,-1.7 3.39,5.94 6.78,2.54 3.4,-2.54 -2.55,-9.33 -0.85,-7.63 l -65.31,-86.52 c 0.85,-0.85 1.7,-0.85 1.7,-1.69 12.72,5.09 21.2,9.33 26.29,14.42 10.18,9.33 21.21,15.26 33.08,17.81 12.72,4.24 24.6,11.03 35.63,19.51 -1.7,-0.85 5.93,4.24 7.63,0 2.55,-4.24 -5.09,-8.48 -3.4,-6.79 -10.17,-9.33 -22.05,-16.96 -34.77,-22.05 -12.72,-3.39 -22.9,-10.18 -31.38,-20.36 -3.4,-5.09 -11.03,-10.18 -23.75,-16.12 l 0.85,-0.84 102.63,29.68 c -2.55,-0.84 5.94,2.55 7.63,-1.69 1.7,-4.24 -7.63,-6.79 -5.08,-5.94 l -99.25,-36.47 c 0.85,-0.85 0.85,-1.7 0.85,-2.55 11.88,0.85 21.21,2.55 27.15,5.94 11.87,5.09 23.75,6.79 36.46,5.94 14.43,0 27.15,2.54 40.72,7.63 -2.54,-0.85 5.94,1.7 6.78,-2.54 0.85,-4.24 -7.63,-5.94 -5.08,-5.09 -13.58,-5.94 -26.29,-10.18 -39.87,-10.18 -13.57,0 -25.44,-2.55 -36.47,-10.18 -5.09,-3.39 -13.57,-5.94 -26.29,-7.63 v -0.85 l 106.02,-4.24 c -2.54,0 6.79,0.84 6.79,-4.24 0,-4.25 -9.33,-4.25 -6.79,-3.4 l -105.18,-4.24 v -1.69 c 11.03,-3.4 19.51,-5.09 26.3,-4.25 12.72,0.85 25.44,-1.69 36.47,-6.78 12.73,-5.09 27.14,-7.64 40.71,-7.64 -2.54,0.86 6.79,0 5.94,-5.08 -0.85,-4.24 -10.18,-2.55 -7.63,-2.55 -13.58,-0.85 -27.99,0 -40.72,4.24 -11.87,5.09 -24.59,6.79 -37.32,4.25 -5.09,-1.7 -14.42,-0.86 -27.14,1.69 v -0.85 l 96.7,-41.56 c -1.7,0.85 6.78,-1.7 5.08,-5.94 -1.69,-4.24 -10.18,-0.84 -7.63,-0.84 l -100.09,33.07 c 0,-0.84 -0.85,-1.69 -0.85,-2.54 10.18,-6.79 17.82,-10.18 24.6,-11.87 12.72,-3.4 22.9,-9.34 32.24,-17.82 11.02,-9.33 22.89,-15.27 36.47,-20.36 -2.55,1.7 5.93,-1.69 3.39,-5.93 -1.7,-4.24 -9.33,0 -7.63,-0.85 -12.73,4.24 -25.45,9.33 -37.32,16.96 -9.34,9.34 -21.21,14.42 -33.93,15.27 -5.94,0.85 -15.27,4.24 -26.3,11.03 h -0.85 l 81.43,-71.253 c -2.55,1.7 5.09,-3.39 2.55,-6.781 -3.4,-3.394 -10.18,2.543 -7.64,0.848 l -87.36,65.306 c -0.85,-0.85 -0.85,-0.85 -1.7,-1.69 5.09,-12.73 10.18,-21.21 14.42,-26.3 9.33,-10.18 15.27,-21.203 17.81,-33.078 4.25,-13.57 11.03,-24.598 19.51,-36.473 -0.85,3.395 4.24,-5.086 0,-7.632 -3.39,-1.696 -7.63,6.785 -6.78,4.238 -9.34,10.18 -16.97,22.055 -22.06,34.781 -3.39,12.723 -10.18,22.894 -20.35,31.384 -5.09,3.39 -10.18,11.02 -16.12,23.75 l -0.85,-0.85 29.69,-102.632 c -0.85,2.543 2.55,-6.789 -1.7,-7.636 -4.24,-1.696 -6.78,7.636 -5.93,5.09 l -36.48,98.388 c -0.84,0 -1.69,0 -2.54,-0.85 0.85,-11.87 2.54,-20.35 5.93,-26.29 5.09,-11.873 6.79,-24.6 5.95,-36.471 0,-14.422 2.54,-27.145 7.63,-40.715 -0.85,2.543 1.69,-5.937 -2.55,-6.785 -4.24,-0.848 -5.94,7.633 -5.08,5.09 -5.95,12.722 -10.18,26.293 -10.18,39.867 0,13.566 -2.55,25.441 -10.18,36.469 -2.55,5.085 -5.94,13.575 -7.64,25.445 h -0.84 l -4.25,-105.176 c 0.85,2.547 0.85,-6.785 -4.24,-6.785 -4.24,0 -4.24,9.332 -3.39,6.785 L 1255.99,1024" /><path
         id="path32"
         style="fill:#ffffff;fill-opacity:1;fill-rule:evenodd;stroke:none"
         d="m 500.234,733.066 v 84.825 h -23.746 l 13.571,25.445 h 38.168 v -110.27 z m 110.27,55.985 c 5.086,0 9.332,1.695 11.875,5.086 3.391,2.547 4.238,6.785 4.238,11.879 0,5.086 -0.847,9.328 -4.238,12.722 -3.395,3.391 -6.789,4.239 -11.875,4.239 -5.938,0 -9.328,-0.848 -12.723,-4.239 -2.547,-3.394 -4.242,-7.636 -4.242,-12.722 0,-5.094 1.695,-9.332 4.242,-11.879 3.395,-3.391 6.785,-5.086 12.723,-5.086 z m 0.848,-17.817 c -1.696,0 -3.395,-0.843 -5.09,-0.843 -2.543,-0.848 -4.239,-0.848 -6.785,-0.848 -9.329,0 -16.961,3.391 -22.903,10.176 -5.937,6.785 -9.332,15.269 -9.332,25.445 0,11.879 3.395,22.055 11.028,28.84 8.484,7.633 18.66,11.875 31.386,11.875 12.723,0 22.903,-4.242 30.535,-11.027 7.633,-7.633 11.875,-17.809 11.875,-29.688 0,-6.785 -1.695,-13.57 -4.242,-21.203 -3.394,-6.785 -8.48,-16.117 -16.113,-27.992 l -15.27,-22.903 h -30.535 z m 137.41,15.27 c 0,-17.809 -3.395,-31.383 -11.028,-41.563 -7.632,-10.179 -17.812,-15.265 -31.382,-15.265 -12.727,0 -22.903,5.086 -30.536,15.265 -7.632,10.18 -11.027,24.602 -11.027,42.414 0,18.661 3.395,32.227 11.027,42.407 7.633,10.179 17.809,15.269 30.536,15.269 13.57,0 23.75,-5.09 31.382,-15.269 7.633,-10.18 11.028,-24.598 11.028,-43.258 z m -55.985,0.851 c 0,-11.878 0.848,-20.359 3.395,-26.296 1.699,-5.938 5.937,-8.485 10.18,-8.485 5.089,0 8.48,2.547 11.027,8.485 2.543,5.937 3.391,14.418 3.391,26.296 0,12.719 -0.848,21.204 -3.391,27.141 -2.547,5.086 -5.938,8.481 -11.027,8.481 -4.243,0 -8.481,-3.395 -10.18,-8.481 -2.547,-5.937 -3.395,-14.422 -3.395,-27.141 z m 111.965,1.696 c 5.09,0 9.332,1.695 12.723,5.086 2.543,2.547 4.242,6.785 4.242,11.879 0,5.086 -1.699,9.328 -4.242,12.722 -3.391,3.391 -7.633,4.239 -12.723,4.239 -5.09,0 -9.328,-0.848 -11.875,-4.239 -3.394,-3.394 -5.09,-7.636 -5.09,-12.722 0,-5.094 1.696,-9.332 5.09,-11.879 2.547,-3.391 6.785,-5.086 11.875,-5.086 z m 1.699,-17.817 c -1.699,0 -3.394,-0.843 -5.941,-0.843 -1.695,-0.848 -3.391,-0.848 -5.934,-0.848 -9.332,0 -16.964,3.391 -23.753,10.176 -5.934,6.785 -8.481,15.269 -8.481,25.445 0,11.879 3.395,22.055 11.027,28.84 7.633,7.633 17.813,11.875 31.383,11.875 12.723,0 22.903,-4.242 30.535,-11.027 7.637,-7.633 11.875,-17.809 11.875,-29.688 0,-6.785 -1.695,-13.57 -5.089,-21.203 -2.543,-6.785 -7.633,-16.117 -15.266,-27.992 l -15.27,-22.903 h -31.382 l 26.296,38.168" /><path
         id="path34"
         style="fill:#1170b8;fill-opacity:1;fill-rule:evenodd;stroke:none"
         d="m 320.418,1258.95 c 6.785,1.7 12.723,3.4 16.965,6.79 4.238,2.55 7.633,5.94 10.176,10.18 1.699,3.39 2.546,7.63 1.699,11.03 -0.848,3.39 -2.547,5.93 -5.942,7.63 -3.39,1.69 -6.785,1.69 -9.328,0.85 -3.39,-0.85 -7.633,-5.09 -13.57,-11.03 -7.633,-8.48 -15.27,-13.57 -22.055,-16.11 -5.937,-1.7 -13.57,-0.85 -21.203,3.39 -9.332,5.09 -16.117,12.72 -18.664,22.9 -2.543,10.18 -0.848,20.35 4.246,30.53 3.391,5.94 6.781,11.03 11.024,15.27 4.242,4.24 9.332,7.64 14.418,10.18 l 16.117,-19.51 c -5.09,-1.69 -8.481,-3.39 -11.875,-5.94 -3.391,-2.54 -5.938,-5.93 -7.633,-9.32 -1.695,-3.4 -1.695,-5.94 -1.695,-9.34 0.847,-2.54 1.695,-5.08 4.238,-6.78 2.547,-0.85 5.937,-0.85 7.633,0 2.547,0.85 5.941,3.39 10.179,8.48 0.848,0 0.848,0 1.696,0.85 8.484,9.33 16.117,15.27 22.054,16.96 3.395,0.85 7.633,1.7 11.879,0.85 4.239,-0.85 8.481,-1.7 12.719,-4.24 11.027,-5.94 17.813,-14.42 21.207,-24.6 2.543,-11.02 0.848,-22.05 -5.937,-34.77 -3.395,-6.79 -8.481,-12.73 -13.575,-16.97 -5.933,-5.09 -12.722,-8.48 -21.203,-11.02 z m 117.055,208.66 c 6.781,-5.09 11.871,-11.02 15.265,-17.81 4.242,-7.64 5.938,-15.27 6.785,-22.9 0.848,-8.48 0,-16.96 -2.543,-24.6 -1.699,-7.63 -5.941,-15.26 -11.027,-21.2 -5.094,-6.79 -11.875,-11.88 -18.66,-16.12 -7.637,-3.39 -15.27,-5.94 -22.902,-6.78 -8.485,-1.7 -16.118,-0.85 -24.598,1.69 -7.637,1.7 -14.422,5.94 -21.207,11.03 -5.938,5.09 -11.027,11.03 -15.27,18.66 -3.39,6.78 -5.933,14.42 -6.785,22.9 -0.847,7.63 0,16.12 2.547,23.75 2.543,8.48 5.938,15.27 11.875,22.06 5.09,5.93 11.027,11.02 18.66,15.26 6.785,4.24 14.418,6.79 22.903,7.63 8.48,0.85 16.117,0 23.75,-1.69 7.632,-2.54 14.418,-5.94 21.207,-11.88 z m -12.727,-69.55 c 5.938,6.78 7.633,14.42 6.785,22.9 -1.695,8.49 -5.937,16.12 -14.418,22.06 -7.633,5.93 -15.269,9.32 -24.597,8.48 -8.485,0 -15.27,-3.39 -21.207,-10.18 -5.09,-6.79 -7.633,-15.27 -5.938,-23.75 1.699,-8.48 5.938,-16.12 13.574,-22.05 7.633,-5.94 16.114,-9.34 24.594,-8.48 8.484,0 16.117,3.39 21.207,11.02 z m 86.516,59.38 -74.641,89.06 23.75,20.35 57.676,-67.85 30.535,25.45 17.813,-21.21 z m 111.965,82.27 -53.438,104.33 22.055,11.03 c 16.113,8.48 27.992,13.57 35.625,15.27 7.633,1.69 14.418,2.54 21.203,0.84 9.332,-0.84 16.965,-4.24 23.75,-9.33 7.637,-5.94 13.57,-12.72 17.812,-22.05 5.09,-9.33 7.637,-18.66 7.637,-27.14 0,-9.33 -1.699,-17.82 -5.941,-25.45 -3.391,-5.94 -7.633,-11.87 -13.571,-16.12 -5.937,-5.09 -15.269,-11.02 -28.836,-17.81 l -5.093,-2.54 z m 16.117,38.17 5.086,1.69 c 11.027,5.95 17.816,12.73 20.359,19.52 3.395,7.63 1.695,16.11 -3.391,25.44 -5.093,10.18 -11.027,16.12 -18.664,18.66 -7.632,1.7 -16.964,0 -27.992,-5.94 l -5.086,-2.54 z m 114.508,22.05 -29.688,112.81 68.703,17.82 6.785,-24.6 -39.019,-10.18 5.094,-19.51 37.32,9.33 5.937,-23.75 -36.472,-10.17 5.09,-18.66 39.015,10.17 6.785,-25.44 z m 171.336,75.49 h 31.382 l -11.875,38.17 c -0.847,1.7 -1.695,3.39 -1.695,5.94 -0.848,2.54 -1.695,5.94 -2.543,10.18 -0.848,-3.39 -1.699,-5.94 -2.547,-8.48 0,-2.55 -0.847,-5.09 -1.695,-7.64 z m -44.106,-44.95 38.168,117.9 h 39.867 l 42.413,-115.35 -31.385,-0.85 -5.942,21.2 -45.801,-0.85 -5.089,-21.2 z m 283.298,-23.75 -28.84,5.09 1.7,50.89 c 0,4.24 0,7.64 0.85,11.87 0,5.09 0.84,9.34 1.69,14.43 -1.69,-4.25 -4.24,-10.18 -7.63,-16.97 -0.85,-1.69 -1.7,-2.54 -1.7,-3.39 l -25.44,-50.89 -21.21,3.39 -5.93,56.83 c 0,0.85 0,1.69 0,3.39 -0.85,7.64 -1.7,13.57 -0.85,18.66 -1.7,-4.24 -2.55,-8.48 -3.39,-12.72 -1.7,-4.24 -2.55,-8.48 -4.25,-12.73 l -15.27,-48.34 -29.68,5.09 38.17,111.96 31.38,-5.09 6.79,-62.77 c 0,0 0,-0.85 0,-1.69 0.84,-5.94 0.84,-11.03 0.84,-14.42 0.85,1.69 1.7,4.24 2.55,6.78 0.85,2.55 2.54,5.09 4.24,8.48 l 27.99,55.99 30.54,-5.94 z m 34.78,-15.27 47.5,106.87 65.31,-29.68 -10.18,-22.91 -37.32,16.12 -7.63,-18.66 34.77,-15.27 -10.18,-22.9 -34.77,15.27 -8.48,-17.81 37.32,-16.12 -11.03,-23.75 z m 100.09,-49.2 61.91,99.25 28,-17.82 c 11.02,-6.79 18.66,-11.87 22.05,-16.11 4.24,-3.39 6.79,-7.64 8.48,-11.88 1.7,-5.09 2.54,-10.17 1.7,-15.26 -0.85,-5.94 -2.55,-11.03 -5.94,-16.12 -4.24,-7.63 -10.18,-12.72 -16.96,-15.27 -6.79,-2.54 -14.42,-1.7 -22.9,0.85 l 2.54,-56.83 -30.54,19.51 1.7,52.59 -24.6,-38.17 z m 57.68,36.48 5.08,-3.39 c 5.94,-3.4 11.03,-5.09 15.27,-4.25 3.39,0 6.79,2.55 9.33,6.79 3.39,4.24 4.24,8.48 3.39,12.72 -1.69,3.4 -5.09,6.79 -11.02,11.03 l -5.09,3.39 z m 43.25,-110.27 75.5,89.91 24.59,-21.2 -75.49,-89.06 z m 197.63,-46.65 -27.14,-22.05 c 0.85,6.78 0.85,11.87 0,16.96 -0.85,5.09 -3.39,9.33 -5.94,12.73 -5.93,7.63 -13.57,11.02 -22.05,11.87 -7.63,0 -16.12,-2.54 -23.75,-9.33 -7.63,-5.94 -11.88,-12.72 -12.72,-21.2 -1.7,-8.49 0.84,-16.12 6.79,-22.91 2.54,-4.24 6.78,-6.78 11.02,-8.48 4.24,-2.54 10.18,-3.39 16.96,-3.39 l -27.14,-22.06 c -5.09,2.55 -10.18,5.09 -14.42,8.49 -3.39,2.54 -7.63,5.94 -10.18,10.17 -4.24,5.09 -7.63,10.18 -9.33,15.27 -2.54,5.09 -4.23,10.18 -4.23,16.12 -0.86,10.18 0.84,20.36 4.23,28.84 4.25,9.32 11.03,17.81 19.51,24.6 6.79,5.93 13.58,9.33 21.21,11.87 7.63,2.54 15.26,3.39 23.75,2.54 8.48,-0.85 15.26,-3.39 22.05,-6.78 5.94,-3.39 12.72,-8.48 17.81,-15.27 3.4,-4.24 5.94,-8.48 7.64,-12.72 2.54,-5.09 4.24,-10.18 5.93,-15.27 z m -13.57,-109.42 15.27,-27.99 27.99,28.84 c 0.85,0.85 2.55,1.69 4.24,3.39 2.55,2.55 5.09,4.25 8.49,7.64 -3.4,-0.85 -5.94,-1.7 -8.49,-2.55 -2.54,-0.84 -5.09,-0.84 -7.63,-1.69 z m -59.37,18.66 122.14,19.51 18.66,-35.63 -83.97,-89.9 -15.27,27.99 16.12,14.42 -21.21,40.71 -21.2,-5.09 z M 226.266,856.906 l 5.089,-30.535 35.625,17.813 c 1.696,0.847 3.395,1.695 5.938,2.546 1.695,0.844 5.09,2.54 9.332,4.239 -3.395,0 -5.941,0 -8.484,0.847 -2.543,0 -5.09,0 -7.633,0.848 z m -50.891,36.473 122.141,-19.508 6.785,-39.019 -108.571,-60.223 -5.089,31.387 19.511,9.328 -7.636,44.953 -22.051,1.699 z m 67.008,-140.805 c -3.395,-6.785 -5.938,-11.871 -6.785,-17.812 -0.848,-5.086 -0.848,-9.328 0.847,-13.567 0.848,-4.242 3.391,-7.636 6.785,-9.332 2.543,-1.695 5.938,-1.695 9.333,-0.847 3.39,0.847 5.933,3.39 7.632,5.937 0.848,3.395 0.848,9.328 0.848,17.809 -0.848,11.879 0,20.359 3.395,26.297 2.542,6.785 8.48,11.027 16.964,13.57 10.176,3.394 20.356,3.394 28.836,-1.695 9.332,-5.09 16.117,-12.723 19.512,-23.75 2.543,-5.938 3.391,-12.723 3.391,-18.661 0.847,-5.937 0,-11.875 -1.696,-17.812 l -24.601,1.695 c 1.699,5.09 2.547,9.332 2.547,12.723 0,4.242 0,8.484 -1.696,11.879 -0.851,3.39 -2.547,5.933 -5.09,7.633 -2.542,1.695 -5.089,2.543 -7.636,1.695 -3.391,-1.695 -5.086,-3.395 -5.934,-5.938 -0.851,-2.543 -0.851,-6.785 -0.851,-12.722 0,-0.848 0,-0.848 0,-1.696 0.851,-13.574 0,-22.902 -2.543,-27.992 -1.696,-3.394 -4.239,-6.785 -7.633,-9.328 -3.395,-2.547 -7.633,-4.242 -11.875,-5.941 -11.875,-4.239 -22.903,-3.391 -32.231,1.699 -10.179,5.09 -16.968,14.418 -21.207,27.141 -2.543,7.636 -4.242,15.269 -3.394,22.054 0,7.633 2.547,14.418 5.941,22.903 z m 113.66,-79.726 16.113,-27.993 -49.195,-27.992 c -7.633,-4.238 -12.723,-7.633 -15.266,-9.332 -3.394,-2.543 -5.09,-5.086 -6.785,-6.781 -1.699,-2.547 -2.547,-5.937 -2.547,-9.332 0,-3.395 0.848,-6.785 3.395,-10.18 1.695,-4.242 4.238,-6.785 7.633,-8.48 2.547,-1.695 5.937,-2.547 8.48,-2.547 3.395,0.852 5.938,1.699 9.332,2.547 3.395,1.695 8.481,4.238 16.113,8.48 l 6.789,4.242 42.411,24.598 15.269,-27.14 -53.441,-31.387 c -11.028,-5.934 -19.508,-10.176 -25.446,-11.875 -5.937,-1.696 -11.875,-2.543 -16.96,-0.848 -6.79,0.848 -11.875,3.395 -17.817,8.485 -5.086,5.089 -11.023,11.871 -16.113,20.355 -4.242,8.48 -7.633,16.117 -9.332,23.75 -1.696,6.785 -0.848,13.57 0.847,19.508 2.547,5.09 5.09,10.179 10.18,14.418 4.242,4.242 11.875,10.179 22.902,16.117 l 11.028,5.937 z m -22.902,-184.063 88.211,77.188 20.359,-23.75 -16.965,-72.098 c 0,-1.695 -0.848,-4.242 -2.547,-8.484 -1.695,-3.391 -3.39,-8.481 -5.933,-13.571 3.39,4.243 6.785,6.785 9.328,10.18 2.547,2.543 5.09,5.09 6.785,6.785 l 44.109,37.32 19.508,-22.902 -88.211,-76.34 -19.512,22.907 16.118,72.941 c 0.847,1.699 1.695,4.242 3.394,7.637 0.848,4.238 3.391,8.48 5.086,13.57 -3.391,-3.391 -5.937,-6.785 -8.48,-9.332 -2.547,-2.543 -5.09,-5.086 -7.633,-6.781 L 353.496,465.883 Z M 578.27,407.359 556.219,380.215 c 0,6.785 -0.848,11.875 -3.391,16.117 -1.699,5.086 -4.246,8.481 -8.484,11.875 -6.789,5.086 -14.422,7.633 -22.903,6.785 -8.48,-1.699 -16.113,-5.937 -22.054,-13.574 -5.934,-7.633 -8.481,-15.266 -7.633,-23.746 0,-8.484 4.242,-15.27 11.027,-21.207 3.395,-3.395 7.633,-5.086 12.723,-5.938 5.09,-0.847 10.18,-0.847 16.965,0 l -22.055,-27.14 c -5.086,0.847 -10.18,2.543 -15.266,5.086 -4.242,2.547 -8.48,5.09 -12.722,8.484 -5.09,3.395 -9.332,7.633 -11.879,12.723 -3.391,4.238 -5.934,9.332 -7.633,14.418 -3.391,10.179 -3.391,20.355 -1.695,29.687 2.547,10.18 6.785,19.508 13.574,27.992 5.934,6.786 11.875,11.875 18.66,16.118 6.781,3.39 14.418,5.933 22.899,6.785 7.636,0.847 15.269,0.847 22.902,-1.7 6.785,-1.695 13.574,-5.933 20.355,-11.027 4.246,-3.39 7.633,-6.785 10.18,-11.023 3.395,-4.242 5.938,-8.485 8.481,-13.571 z m -36.469,-108.574 63.613,97.547 27.145,-16.965 -63.618,-98.39 z m 199.324,-33.078 c -3.391,-7.637 -7.633,-14.418 -12.719,-19.508 -5.941,-5.937 -12.726,-10.179 -20.359,-13.57 -7.633,-3.395 -15.27,-4.246 -23.75,-4.246 -8.481,0 -16.113,0.851 -23.746,4.246 -7.637,3.391 -14.422,7.633 -20.36,13.57 -5.937,5.09 -11.027,11.871 -13.574,19.508 -4.238,7.637 -5.933,15.27 -5.933,23.75 0,7.633 1.695,15.266 5.086,23.75 2.546,7.633 6.789,14.418 12.726,19.508 5.934,5.937 12.723,10.18 20.356,13.57 7.632,3.395 15.265,4.242 23.75,4.242 7.632,0 16.117,-0.847 23.75,-4.242 7.632,-3.39 14.418,-7.633 20.355,-13.57 5.938,-5.938 11.027,-11.875 13.57,-19.508 3.395,-7.637 5.09,-15.269 5.09,-23.75 0,-7.633 -0.847,-15.266 -4.242,-23.75 z m -70.398,-8.484 c 7.632,-2.543 16.117,-2.543 23.75,0.847 7.632,4.246 13.57,11.028 16.964,19.512 4.239,9.328 4.239,17.813 0.844,26.293 -2.539,8.484 -8.48,14.422 -16.113,16.965 -8.481,3.394 -16.113,3.394 -23.75,-0.848 -7.633,-3.394 -13.57,-10.179 -17.813,-19.508 -3.39,-8.48 -3.39,-17.812 -0.847,-25.445 2.543,-8.484 8.484,-14.422 16.965,-17.816 z m 86.519,-56.828 22.899,114.507 29.687,-5.937 32.231,-67.008 c 0,-1.695 1.699,-4.242 2.546,-8.48 0.848,-3.395 2.543,-8.481 3.391,-13.575 0.848,5.094 0.848,9.332 1.695,12.727 0,3.391 0.852,6.781 0.852,10.176 l 11.027,55.98 30.535,-5.086 -22.054,-114.511 -30.535,5.093 -31.383,67.856 c -0.848,1.695 -1.696,4.238 -3.395,8.48 -0.847,3.395 -1.695,8.481 -3.394,13.574 0,-5.093 -0.848,-9.332 -0.848,-12.726 -0.848,-4.242 -0.848,-7.633 -1.695,-10.176 l -11.028,-56.832 z m 185.754,0.847 -0.848,25.446 54.286,2.546 0.847,-26.293 z m 158.61,-14.418 -29.68,-5.937 -22.05,114.508 32.23,6.785 c 12.72,1.695 22.05,3.39 27.14,2.543 5.94,0 10.18,-0.848 14.42,-3.391 5.09,-2.547 9.33,-6.785 12.72,-11.027 3.39,-5.09 5.09,-11.028 6.79,-16.961 0.84,-6.789 0.84,-13.574 0,-18.664 -0.85,-5.938 -3.4,-11.024 -7.64,-15.27 -2.54,-2.543 -5.93,-5.086 -10.18,-7.633 -4.24,-1.695 -11.02,-3.394 -20.35,-5.089 l -5.94,-1.692 -5.09,-0.851 z m -12.72,62.766 5.94,0.848 c 7.63,1.699 12.72,3.394 15.26,6.785 2.55,2.547 3.4,5.941 2.55,11.027 -0.85,5.094 -3.39,7.633 -6.78,9.332 -3.4,1.695 -8.48,1.695 -16.12,0 l -5.94,-0.852 z m 111.11,7.633 29.69,11.027 -24.59,32.234 c -0.85,0.848 -1.7,2.547 -3.4,4.239 -1.7,2.547 -3.39,5.09 -5.93,8.484 0.84,-2.543 0.84,-5.09 0.84,-8.484 0.85,-2.543 0.85,-5.086 0.85,-7.633 z m -27.14,-55.981 -2.54,122.992 37.32,13.571 78.04,-95.848 -29.69,-11.027 -12.72,17.812 -42.41,-15.265 1.69,-22.055 z m 141.65,53.438 -60.22,100.086 28.84,17.816 c 11.03,6.785 19.51,10.176 23.75,11.871 5.09,1.699 10.18,2.547 15.27,1.699 5.09,0 9.33,-1.699 14.42,-5.089 4.24,-3.391 7.63,-7.637 11.02,-12.723 5.09,-7.633 6.79,-14.422 5.94,-22.055 -0.85,-6.785 -5.09,-13.57 -11.03,-19.508 l 51.75,-23.746 -31.39,-18.664 -45.8,25.446 22.9,-39.016 z m -5.93,68.707 5.08,2.543 c 5.95,4.242 9.34,7.633 11.03,11.027 1.7,3.395 0.85,7.633 -1.69,11.875 -3.39,5.086 -6.79,7.633 -10.18,8.481 -4.24,0.847 -8.48,-0.848 -14.42,-4.243 l -5.94,-3.39 z m 115.35,55.133 24.6,19.507 -33.93,22.903 c -0.85,0.847 -2.55,1.695 -4.24,3.39 -2.54,1.7 -5.09,3.395 -8.48,5.938 1.69,-2.543 2.54,-5.09 3.39,-7.633 1.7,-2.543 2.55,-4.238 3.39,-6.785 z m -7.63,-61.922 -41.57,116.203 30.54,24.601 105.18,-65.312 -24.6,-19.508 -17.81,12.723 -35.63,-28.84 8.48,-20.36 z m 116.2,167.097 -18.66,15.266 39.87,48.352 c 0.84,-0.848 1.69,-0.848 2.54,-1.696 0.85,-0.851 1.7,-1.699 3.39,-2.547 15.27,-12.722 23.75,-27.14 25.45,-42.41 1.7,-15.265 -3.39,-30.535 -16.11,-44.953 -5.94,-7.637 -12.73,-12.727 -19.52,-16.965 -6.78,-3.394 -14.41,-5.941 -22.9,-6.789 -7.63,0 -15.26,0.848 -22.9,3.395 -8.48,2.547 -15.27,5.937 -21.2,11.875 -6.78,5.09 -11.88,11.875 -16.12,18.66 -3.39,6.785 -5.94,14.418 -6.79,22.902 0,8.485 0.85,16.117 3.4,23.75 2.55,7.633 6.78,15.266 12.73,21.207 6.78,9.328 15.26,15.266 24.59,19.508 9.33,3.391 18.66,5.086 29.69,4.238 l -7.64,-29.687 c -5.93,0 -11.02,-0.848 -15.27,-2.543 -4.23,-1.695 -7.63,-4.242 -11.02,-8.481 -5.94,-6.789 -8.48,-15.269 -7.64,-22.902 1.7,-8.48 6.79,-16.117 15.27,-23.75 8.48,-6.785 16.97,-10.18 25.45,-10.18 8.48,0 15.27,3.395 21.21,11.028 5.08,5.937 8.48,12.722 8.48,19.507 0.84,6.79 -1.7,12.723 -5.94,16.965 z m -6.78,111.118 16.11,27.988 49.2,-28.836 c 6.78,-4.242 12.72,-6.789 16.11,-8.485 3.4,-1.695 5.94,-2.542 8.49,-2.542 3.39,-0.852 6.78,0 9.33,1.695 2.54,2.543 5.09,5.09 7.63,8.48 1.7,4.242 3.39,7.637 3.39,11.028 0,3.39 -0.85,5.937 -2.54,9.332 -1.7,1.695 -4.24,4.238 -6.79,5.937 -3.39,2.543 -8.48,5.086 -15.26,9.328 l -6.79,4.242 -42.41,24.598 15.27,27.141 54.28,-30.535 c 11.03,-6.786 18.67,-11.871 22.9,-16.114 4.25,-4.242 7.64,-9.332 9.33,-14.418 2.55,-5.941 2.55,-12.726 1.7,-19.511 -1.7,-7.637 -5.09,-15.27 -10.18,-23.75 -5.08,-9.328 -10.18,-16.114 -15.26,-20.356 -5.94,-5.09 -11.88,-8.484 -17.82,-9.332 -5.09,-0.848 -11.02,-0.848 -16.96,0.848 -6.79,1.699 -15.27,5.937 -26.3,12.726 l -10.17,5.934 z m 145.89,134.863 7.63,30.535 -39.86,-1.695 c -0.85,0 -3.4,0 -5.94,0 -2.55,0 -5.94,0 -10.18,0.847 2.54,-1.695 5.09,-3.394 7.63,-4.242 1.7,-1.695 4.24,-2.547 5.94,-4.242 z m 30.53,-54.285 -102.63,68.703 10.18,39.015 123.84,8.485 -8.48,-30.535 h -22.06 l -11.03,-44.106 18.67,-11.027 z m 39.87,162.007 -53.44,5.086 -67,-33.925 3.39,36.472 32.23,12.723 c 0,0 0,0 0.85,0 3.39,1.695 5.93,2.543 9.33,2.543 -2.55,0.848 -5.94,2.547 -8.48,4.242 -0.85,0.852 -0.85,0.852 -0.85,0.852 l -28.84,18.66 4.24,36.469 58.52,-47.497 53.44,-5.089 -3.39,-30.536" /></g></g></svg>