<?xml version="1.0" encoding="UTF-8" standalone="no"?>
<svg
   xmlns:dc="http://purl.org/dc/elements/1.1/"
   xmlns:cc="http://creativecommons.org/ns#"
   xmlns:rdf="http://www.w3.org/1999/02/22-rdf-syntax-ns#"
   xmlns:svg="http://www.w3.org/2000/svg"
   xmlns="http://www.w3.org/2000/svg"
   viewBox="0 0 257.33334 257.33334"
   height="257.33334"
   width="257.33334"
   xml:space="preserve"
   id="svg2"
   version="1.1"><metadata
     id="metadata8"><rdf:RDF><cc:Work
         rdf:about=""><dc:format>image/svg+xml</dc:format><dc:type
           rdf:resource="http://purl.org/dc/dcmitype/StillImage" /></cc:Work></rdf:RDF></metadata><defs
     id="defs6" /><g
     transform="matrix(1.3333333,0,0,-1.3333333,0,257.33333)"
     id="g10"><g
       transform="scale(0.1)"
       id="g12"><path
         id="path14"
         style="fill:#ffffff;fill-opacity:1;fill-rule:evenodd;stroke:none"
         d="M 0,1927.56 H 1927.56 V 0 H 0 v 1927.56" /><path
         id="path16"
         style="fill:#231f20;fill-opacity:1;fill-rule:evenodd;stroke:none"
         d="m 963.777,1712.13 c -270.101,-1.73 -434.304,44.75 -561.871,130.39 L 183.492,1626.73 C 456.848,1405.81 320.707,1266.2 265.863,1105.51 126.777,790.145 97.7305,442.781 492.605,323.148 665.723,259.84 843.855,243.707 963.777,85.0391 1083.7,243.707 1261.84,259.84 1434.95,323.148 c 394.87,119.633 365.83,466.997 226.75,782.362 -54.85,160.69 -190.99,300.3 82.36,521.22 l -218.41,215.79 C 1398.09,1756.88 1233.88,1710.4 963.777,1712.13" /><g
         transform="scale(0.999936,1.00006)"
         id="g18"><path
           id="path20"
           style="fill:none;stroke:#231f20;stroke-width:0.62208498;stroke-linecap:butt;stroke-linejoin:miter;stroke-miterlimit:2.61310005;stroke-dasharray:none;stroke-opacity:1"
           d="M 963.839,1712.02 C 693.72,1710.29 529.506,1756.76 401.932,1842.4 L 183.504,1626.63 C 456.877,1405.72 320.728,1266.12 265.88,1105.44 126.785,790.094 97.7367,442.753 492.637,323.128 665.765,259.823 843.909,243.691 963.839,85.0336 1083.77,243.691 1261.92,259.823 1435.04,323.128 c 394.9,119.625 365.86,466.966 226.76,782.312 -54.85,160.68 -191,300.28 82.37,521.19 l -218.42,215.77 c -127.57,-85.64 -291.79,-132.11 -561.911,-130.38 z" /></g><path
         id="path22"
         style="fill:#ffffff;fill-opacity:1;fill-rule:evenodd;stroke:none"
         d="m 756.09,1692.23 -20.477,2.5 -20.004,2.78 -19.535,3.06 -19.086,3.32 -18.644,3.61 -18.215,3.88 -17.801,4.16 -17.375,4.41 -17.004,4.69 -16.613,4.96 -16.254,5.24 -15.871,5.48 -15.543,5.76 -15.191,6.02 -14.872,6.29 -14.535,6.54 -14.246,6.79 -13.941,7.04 -13.66,7.32 -13.36,7.54 -13.121,7.79 -4.871,3.04 -178.055,-175.91 22.747,-20.57 20.847,-20.5 18.75,-20.2 16.754,-19.96 14.797,-19.73 12.941,-19.52 11.133,-19.35 9.387,-19.19 7.699,-19.02 6.07,-18.84 4.5,-18.63 3.02,-18.41 1.617,-18.14 0.324,-17.85 -0.863,-17.49 -1.918,-17.18 -2.871,-16.86 -3.699,-16.51 -4.406,-16.2 -4.993,-15.9 -5.476,-15.64 -5.863,-15.41 -6.137,-15.17 -6.321,-14.99 -6.406,-14.83 -6.406,-14.69 -6.313,-14.56 -6.125,-14.45 -5.863,-14.36 -5.515,-14.3 -5.559,-15.5 -12.93,-30.2 -11.758,-29.17 -10.984,-29.22 -10.183,-29.203 -9.301,-29.156 -8.383,-29.047 -7.406,-28.879 -6.368,-28.649 -5.281,-28.39 -4.152,-28.059 -2.961,-27.676 -1.742,-27.238 -0.457,-26.758 0.851,-26.211 2.211,-25.636 3.602,-25.004 5.058,-24.344 6.516,-23.652 8.039,-22.93 9.594,-22.184 11.234,-21.445 12.903,-20.664 14.64,-19.898 16.485,-19.086 18.41,-18.297 20.41,-17.446 22.515,-16.57 24.696,-15.64 26.984,-14.668 29.34,-13.633 31.762,-12.539 35.32,-11.711 16.379,-5.856 15.902,-5.437 15.977,-5.262 16.012,-5.098 16.07,-4.992 16.094,-4.91 16.113,-4.855 16.125,-4.832 16.133,-4.872 16.113,-4.91 16.094,-5.011 16.051,-5.137 16.015,-5.309 15.945,-5.492 15.887,-5.742 15.801,-6.016 15.715,-6.34 15.594,-6.687 15.48,-7.082 15.332,-7.508 15.191,-7.988 15.004,-8.485 14.817,-9.035 14.609,-9.613 14.383,-10.234 14.129,-10.887 13.855,-11.574 13.563,-12.278 13.25,-13.039 12.902,-13.808 0.914,-1.059 0.918,1.063 12.91,13.804 13.246,13.039 13.575,12.282 13.85,11.57 14.12,10.883 14.38,10.238 14.63,9.621 14.81,9.031 15.01,8.481 15.18,7.988 15.35,7.512 15.47,7.078 15.59,6.687 15.7,6.34 15.83,6.016 15.87,5.742 15.95,5.492 16.01,5.309 16.05,5.137 16.09,5.011 16.12,4.91 16.13,4.872 16.13,4.832 16.11,4.855 16.1,4.91 16.06,4.992 16.02,5.098 15.96,5.262 15.91,5.437 16.36,5.856 35.34,11.718 31.76,12.532 29.35,13.633 26.98,14.668 24.71,15.64 22.51,16.57 20.41,17.442 18.4,18.301 16.49,19.093 14.65,19.891 12.91,20.66 11.21,21.442 9.61,22.191 8.03,22.93 6.52,23.64 5.04,24.356 3.62,25.008 2.2,25.632 0.86,26.207 -0.47,26.762 -1.73,27.238 -2.96,27.676 -4.16,28.051 -5.29,28.398 -6.36,28.653 -7.4,28.883 -8.38,29.035 -9.31,29.16 -10.17,29.203 -11,29.22 -11.75,29.17 -12.95,30.2 -5.55,15.52 -5.51,14.28 -5.86,14.36 -6.13,14.46 -6.3,14.55 -6.41,14.69 -6.41,14.82 -6.33,15 -6.13,15.18 -5.87,15.4 -5.47,15.64 -5,15.91 -4.39,16.19 -3.7,16.51 -2.87,16.84 -1.93,17.2 -0.85,17.51 0.32,17.83 1.63,18.13 3,18.42 4.52,18.63 6.06,18.84 7.7,19 9.37,19.2 11.14,19.36 12.94,19.52 14.81,19.73 16.74,19.96 18.76,20.2 20.84,20.49 22.74,20.58 -178.06,175.91 -4.87,-3.04 -13.11,-7.79 -13.37,-7.54 -13.65,-7.31 -13.94,-7.05 -14.24,-6.8 -14.55,-6.53 -14.85,-6.29 -15.2,-6.02 -15.53,-5.76 -15.88,-5.48 -16.25,-5.24 -16.62,-4.96 -17,-4.69 -17.39,-4.41 -17.79,-4.16 -18.22,-3.88 -18.64,-3.61 -19.09,-3.32 -19.53,-3.06 -20.01,-2.78 -20.47,-2.5 -20.98,-2.23 -21.46,-1.95 -21.99,-1.67 -22.52,-1.4 -23.05,-1.1 -23.61,-0.84 -24.18,-0.54 -24.759,-0.26 -25.164,0.02 -25.152,-0.02 -24.754,0.26 -24.18,0.54 -23.613,0.84 -23.047,1.1 -22.519,1.4 -21.985,1.67 -21.472,1.95 -20.965,2.23" /><g
         transform="scale(0.999936,1.00006)"
         id="g24"><path
           id="path26"
           style="fill:none;stroke:#231f20;stroke-width:0.62208498;stroke-linecap:butt;stroke-linejoin:miter;stroke-miterlimit:2.61310005;stroke-dasharray:none;stroke-opacity:1"
           d="m 756.138,1692.12 -20.478,2.5 -20.005,2.78 -19.536,3.06 -19.087,3.33 -18.646,3.61 -18.216,3.87 -17.802,4.16 -17.376,4.41 -17.005,4.69 -16.615,4.96 -16.255,5.24 -15.872,5.48 -15.544,5.76 -15.192,6.02 -14.872,6.29 -14.536,6.53 -14.247,6.8 -13.942,7.04 -13.661,7.31 -13.361,7.54 -13.122,7.8 -4.871,3.04 -178.066,-175.9 22.747,-20.57 20.849,-20.5 18.752,-20.2 16.755,-19.96 14.797,-19.73 12.943,-19.52 11.133,-19.35 9.388,-19.19 7.699,-19.02 6.071,-18.84 4.5,-18.62 3.02,-18.41 1.617,-18.14 0.325,-17.84 -0.864,-17.49 -1.918,-17.19 -2.871,-16.85 -3.7,-16.51 -4.406,-16.2 -4.993,-15.9 -5.477,-15.64 -5.863,-15.41 -6.137,-15.17 -6.321,-14.99 -6.407,-14.82 -6.406,-14.69 -6.313,-14.56 -6.126,-14.45 -5.863,-14.36 -5.516,-14.3 -5.559,-15.5 -12.931,-30.2 -11.758,-29.16 -10.985,-29.22 -10.185,-29.205 -9.301,-29.155 -8.383,-29.045 -7.407,-28.877 -6.368,-28.647 -5.281,-28.388 -4.153,-28.057 -2.961,-27.674 -1.742,-27.237 -0.457,-26.756 0.851,-26.209 2.211,-25.635 3.602,-25.002 5.059,-24.343 6.516,-23.65 8.04,-22.929 9.594,-22.182 11.235,-21.444 12.903,-20.663 14.642,-19.897 16.485,-19.084 18.412,-18.296 20.411,-17.444 22.517,-16.57 24.697,-15.639 26.986,-14.667 29.342,-13.632 31.764,-12.538 35.322,-11.711 16.38,-5.855 15.903,-5.437 15.978,-5.261 16.013,-5.098 16.071,-4.992 16.095,-4.909 16.114,-4.856 16.126,-4.831 16.134,-4.871 16.114,-4.91 16.095,-5.011 16.052,-5.137 16.017,-5.308 15.946,-5.492 15.888,-5.742 15.801,-6.015 15.716,-6.339 15.595,-6.687 15.481,-7.082 15.333,-7.507 15.193,-7.988 15.005,-8.484 14.817,-9.034 14.61,-9.613 14.384,-10.234 14.13,-10.886 13.856,-11.573 13.564,-12.277 13.25,-13.038 12.904,-13.808 0.914,-1.058 0.918,1.062 12.911,13.804 13.247,13.038 13.571,12.281 13.85,11.569 14.13,10.882 14.38,10.238 14.62,9.62 14.82,9.031 15.01,8.48 15.18,7.988 15.35,7.511 15.47,7.078 15.59,6.687 15.71,6.339 15.82,6.015 15.88,5.742 15.95,5.492 16.01,5.308 16.05,5.137 16.09,5.011 16.12,4.91 16.13,4.871 16.14,4.831 16.11,4.856 16.09,4.909 16.07,4.992 16.02,5.098 15.96,5.261 15.91,5.437 16.36,5.855 35.34,11.718 31.77,12.531 29.35,13.632 26.98,14.667 24.71,15.639 22.51,16.57 20.41,17.44 18.4,18.3 16.5,19.092 14.65,19.889 12.9,20.659 11.22,21.44 9.61,22.19 8.03,22.929 6.52,23.639 5.04,24.354 3.62,25.006 2.2,25.631 0.86,26.205 -0.47,26.76 -1.73,27.237 -2.96,27.674 -4.16,28.049 -5.29,28.396 -6.36,28.651 -7.4,28.881 -8.38,29.033 -9.31,29.159 -10.18,29.205 -10.99,29.22 -11.76,29.16 -12.95,30.2 -5.55,15.51 -5.51,14.29 -5.86,14.36 -6.13,14.46 -6.3,14.55 -6.41,14.68 -6.41,14.83 -6.33,14.99 -6.13,15.18 -5.87,15.4 -5.47,15.64 -5,15.91 -4.39,16.19 -3.7,16.5 -2.87,16.85 -1.93,17.2 -0.85,17.5 0.32,17.84 1.62,18.12 3.01,18.42 4.52,18.63 6.06,18.83 7.7,19.01 9.37,19.2 11.14,19.35 12.94,19.52 14.81,19.73 16.74,19.96 18.77,20.2 20.83,20.49 22.75,20.57 -178.07,175.91 -4.87,-3.04 -13.11,-7.8 -13.38,-7.54 -13.64,-7.3 -13.95,-7.05 -14.24,-6.8 -14.55,-6.54 -14.85,-6.28 -15.2,-6.02 -15.53,-5.76 -15.88,-5.48 -16.25,-5.24 -16.63,-4.96 -17,-4.69 -17.38,-4.41 -17.79,-4.16 -18.22,-3.87 -18.65,-3.61 -19.09,-3.33 -19.53,-3.06 -20.01,-2.78 -20.47,-2.5 -20.98,-2.23 -21.46,-1.95 -22,-1.67 -22.52,-1.39 -23.05,-1.11 -23.61,-0.84 -24.19,-0.54 -24.755,-0.26 -25.166,0.02 -25.154,-0.02 -24.756,0.26 -24.181,0.54 -23.615,0.84 -23.048,1.11 -22.521,1.39 -21.986,1.67 -21.474,1.95 z" /></g><path
         id="path28"
         style="fill:#231f20;fill-opacity:1;fill-rule:evenodd;stroke:none"
         d="M 1585,1251.99 V 398.91 c 100.9,77.629 159.38,185.555 155.88,337.77 -3.19,145.172 -70.55,325.34 -155.88,515.31 z M 190.805,736.68 1335.01,1729.4 l 185.04,94.2 199.18,-194.87 -259.79,-223.62 V 342.613 l -99.59,-30.308 V 1319.39 L 1238.62,1215.03 V 277.66 l -99.59,-38.972 V 1129.31 L 1013.47,1021.22 V 160.742 l -47.63,-47.633 -51.957,56.293 V 935.504 L 788.316,827.418 V 243.016 L 688.73,273.332 V 741.691 L 567.496,637.336 V 312.305 l -99.586,34.64 V 551.613 L 320.699,424.895 C 219.668,517.273 176.367,621.203 190.805,736.68" /><path
         id="path30"
         style="fill:#231f20;fill-opacity:1;fill-rule:evenodd;stroke:none"
         d="m 583.898,1651.95 c 91.997,0 167.036,-75.04 167.036,-167.05 0,-92.01 -75.039,-167.06 -167.036,-167.06 -92,0 -167.035,75.05 -167.035,167.06 0,92.01 75.035,167.05 167.035,167.05" /><g
         transform="scale(0.999936,1.00006)"
         id="g32"><path
           id="path34"
           style="fill:none;stroke:#231f20;stroke-width:0.62374002;stroke-linecap:butt;stroke-linejoin:miter;stroke-miterlimit:2.61310005;stroke-dasharray:none;stroke-opacity:1"
           d="m 583.936,1651.85 c 92.002,0 167.045,-75.04 167.045,-167.05 0,-92 -75.043,-167.04 -167.045,-167.04 -92.006,0 -167.046,75.04 -167.046,167.04 0,92.01 75.04,167.05 167.046,167.05 z" /></g><path
         id="path36"
         style="fill:#ffffff;fill-opacity:1;fill-rule:evenodd;stroke:none"
         d="m 583.906,1639.51 c 85.141,0 154.586,-69.46 154.586,-154.61 0,-85.16 -69.445,-154.61 -154.586,-154.61 -85.148,0 -154.597,69.45 -154.597,154.61 0,85.15 69.449,154.61 154.597,154.61" /><g
         transform="matrix(0.690862,0.309114,-0.309074,0.69095,0,0)"
         id="g38"><path
           id="path40"
           style="fill:none;stroke:#231f20;stroke-width:16.43930054;stroke-linecap:butt;stroke-linejoin:miter;stroke-miterlimit:2.61310005;stroke-dasharray:none;stroke-opacity:1"
           d="m 1507.92,1399.19 c 32.09,0 58.26,-17.46 58.26,-38.84 0,-21.4 -26.18,-38.85 -58.26,-38.85 -32.1,0 -58.27,17.45 -58.27,38.85 0,21.38 26.17,38.84 58.27,38.84 z" /></g><g
         transform="scale(0.999936,1.00006)"
         id="g42"><path
           id="path44"
           style="fill:none;stroke:#231f20;stroke-width:12.44279957;stroke-linecap:butt;stroke-linejoin:miter;stroke-miterlimit:2.61310005;stroke-dasharray:none;stroke-opacity:1"
           d="m 499.743,1622.45 c 15.852,-75.84 48.538,-141.56 101.565,-195.11" /></g><g
         transform="scale(0.999936,1.00006)"
         id="g46"><path
           id="path48"
           style="fill:none;stroke:#231f20;stroke-width:12.44279957;stroke-linecap:butt;stroke-linejoin:miter;stroke-miterlimit:2.61310005;stroke-dasharray:none;stroke-opacity:1"
           d="m 430.254,1528.91 c 29.451,-65.22 79.341,-104.41 149.674,-117.61" /></g><g
         transform="scale(0.999936,1.00006)"
         id="g50"><path
           id="path52"
           style="fill:none;stroke:#231f20;stroke-width:12.44279957;stroke-linecap:butt;stroke-linejoin:miter;stroke-miterlimit:2.61310005;stroke-dasharray:none;stroke-opacity:1"
           d="m 454.31,1387.25 c 48.261,-14.79 92.799,-16.57 133.634,-5.34" /></g><g
         transform="scale(0.999936,1.00006)"
         id="g54"><path
           id="path56"
           style="fill:none;stroke:#231f20;stroke-width:12.44279957;stroke-linecap:butt;stroke-linejoin:miter;stroke-miterlimit:2.61310005;stroke-dasharray:none;stroke-opacity:1"
           d="m 633.38,1435.36 c 4.145,68.6 1.661,137.19 -5.348,205.8" /></g><g
         transform="scale(0.999936,1.00006)"
         id="g58"><path
           id="path60"
           style="fill:none;stroke:#231f20;stroke-width:12.44279957;stroke-linecap:butt;stroke-linejoin:miter;stroke-miterlimit:2.61310005;stroke-dasharray:none;stroke-opacity:1"
           d="m 657.433,1427.34 c 30.9,39.44 51.229,87.93 56.128,149.67" /></g><g
         transform="scale(0.999936,1.00006)"
         id="g62"><path
           id="path64"
           style="fill:none;stroke:#231f20;stroke-width:12.44279957;stroke-linecap:butt;stroke-linejoin:miter;stroke-miterlimit:2.61310005;stroke-dasharray:none;stroke-opacity:1"
           d="m 598.632,1371.21 c -8.602,-19.75 -24.634,-35.78 -48.105,-48.1" /></g><g
         transform="scale(0.999936,1.00006)"
         id="g66"><path
           id="path68"
           style="fill:none;stroke:#231f20;stroke-width:12.44279957;stroke-linecap:butt;stroke-linejoin:miter;stroke-miterlimit:2.61310005;stroke-dasharray:none;stroke-opacity:1"
           d="m 662.781,1416.65 c 25.829,-2.98 49.659,0.72 75.501,12.61" /></g><g
         transform="scale(0.999936,1.00006)"
         id="g70"><path
           id="path72"
           style="fill:none;stroke:#231f20;stroke-width:12.44279957;stroke-linecap:butt;stroke-linejoin:miter;stroke-miterlimit:2.61310005;stroke-dasharray:none;stroke-opacity:1"
           d="m 648.252,1383.3 30.565,-28.12" /></g><path
         id="path74"
         style="fill:#ffffff;fill-opacity:1;fill-rule:evenodd;stroke:none"
         d="m 319.418,761.07 137.715,119.418 31.402,-36.226 -46.222,-40.082 95.718,-110.414 -45.301,-39.282 -95.718,110.414 -46.188,-40.05 z m 340.668,80.934 -51.617,-44.758 13.883,-30.367 -46.289,-40.137 -72.028,194.414 49.399,42.836 182.257,-98.832 -47.418,-41.117 z m -36.988,23.488 -61.914,38.656 29.586,-66.687 z m 169.07,153.598 50.117,22.41 c 6.988,-13.44 10.84,-26.36 11.586,-38.82 0.75,-12.446 -1.5,-24.266 -6.719,-35.426 -5.183,-11.195 -14.379,-22.457 -27.484,-33.82 -15.945,-13.829 -31,-22.817 -45.063,-26.938 -14.132,-4.117 -29.945,-3.535 -47.41,1.777 -17.425,5.34 -34.047,17.063 -49.824,35.262 -21.043,24.274 -30.781,48.547 -29.152,72.745 1.594,24.23 14.207,46.59 37.797,67.04 18.468,16.02 36.203,24.88 53.269,26.58 17.063,1.69 34.86,-2.97 53.387,-13.99 l -32.285,-43.61 c -5.274,3.26 -9.586,5.27 -12.926,6.02 -5.516,1.25 -10.934,1.22 -16.215,-0.07 -5.308,-1.32 -10.207,-3.95 -14.746,-7.88 -10.242,-8.89 -14.547,-19.85 -12.848,-32.85 1.2,-9.73 7.461,-21.161 18.856,-34.305 14.121,-16.289 26.262,-25.258 36.414,-27.039 10.191,-1.75 19.723,1.254 28.633,8.98 8.672,7.52 13.129,15.625 13.332,24.356 0.234,8.699 -2.684,18.548 -8.719,29.578 z m 81.922,222.95 45.234,39.22 75.797,-87.44 c 7.519,-8.67 13.229,-18.01 17.219,-28.06 3.96,-10.03 5.59,-20.46 4.82,-31.23 -0.76,-10.77 -3.31,-20.04 -7.62,-27.9 -6,-10.88 -15.122,-21.67 -27.481,-32.38 -7.137,-6.19 -15.332,-12.46 -24.653,-18.75 -9.289,-6.32 -18.039,-10.44 -26.281,-12.38 -8.242,-1.94 -17.102,-2.21 -26.547,-0.83 -9.449,1.37 -17.539,4.23 -24.312,8.52 -10.879,6.89 -19.442,13.94 -25.688,21.15 l -75.801,87.43 45.235,39.23 77.605,-89.53 c 6.953,-8.02 14.59,-12.34 22.871,-13 8.344,-0.66 16.446,2.42 24.328,9.26 7.782,6.75 12.008,14.29 12.598,22.58 0.582,8.23 -2.672,16.46 -9.719,24.59 z m 264.57,14.95 -51.61,-44.76 13.88,-30.36 -46.29,-40.14 -72.023,194.42 49.393,42.83 182.26,-98.84 -47.42,-41.11 z m -36.98,23.49 -61.92,38.65 29.59,-66.68 z m 127.68,12.75 -127.13,146.64 75.52,65.48 c 13.99,12.14 25.75,20.24 35.22,24.21 9.48,4.03 19.3,4.77 29.5,2.19 10.16,-2.55 19.28,-8.52 27.36,-17.84 7.08,-8.16 11.4,-16.67 13.08,-25.57 1.64,-8.92 1,-17.84 -1.85,-26.77 -1.88,-5.7 -5.48,-12.23 -10.9,-19.57 6.96,2.87 12.45,4.46 16.52,4.82 2.67,0.22 7.31,-0.23 13.89,-1.41 6.61,-1.21 11.33,-2.37 14.25,-3.61 l 58.77,-23.5 -51.21,-44.41 -63.06,23.85 c -8.08,3.1 -14.09,4.53 -18.03,4.16 -5.2,-0.55 -9.89,-2.66 -14.02,-6.24 l -4,-3.46 51.59,-59.51 z m -30.12,126.7 19.12,16.57 c 2.05,1.78 5.48,5.89 10.27,12.37 2.46,3.22 3.59,6.89 3.37,11.01 -0.25,4.08 -1.75,7.75 -4.54,10.95 -4.11,4.75 -8.75,7.07 -13.94,6.99 -5.23,-0.05 -11.96,-3.67 -20.22,-10.84 l -19.9,-17.25 z m 38.11,137.11 50.32,43.63 72.51,-23.84 -13.32,75.17 50.02,43.36 16.86,-134.65 53.25,-61.42 -45.4,-39.37 -53.25,61.42 -130.99,35.7" /></g></g></svg>